{
.formatVersion = 3;
axes = (
{
name = Weight;
tag = wght;
}
);
classes = (
{
code = "zero.lnum five.lnum seven.lnum eight.lnum a g i ordfeminine periodcentered agrave aacute acircumflex atilde adieresis aring ae amacron abreve aogonek gcircumflex gbreve gdotaccent gcommaaccent Scedilla scedilla Tcedilla tcedilla gcaron aringacute aeacute adblgrave ainvertedbreve gravecomb acutecomb circumflexcomb tildecomb macroncomb brevecomb dotaccentcomb dieresiscomb hookabovecomb ringcomb hungarumlautcomb dblgravecomb breveinvertedcomb commaturnedabovecomb strokeshortcomb tonos Decyr Kacyr Elcyr acyr becyr vecyr zhecyr zecyr icyr ishortcyr kacyr elcyr tsecyr shacyr shchacyr hardcyr softcyr yucyr gjecyr igravecyr abrevecyr adieresiscyr aiecyr adotbelow ahoi acircumflexacute acircumflexgrave acircumflexhoi acircumflextilde acircumflexdotbelow abreveacute abrevegrave abrevehoi abrevetilde abrevedotbelow zero two.lnum.ss05 five six seven eight nine periodcentered.loclCAT caroncomb.case horncomb.case pecyr.loclSRB tecyr.loclSRB gjecyr.loclMKD";
name = aalt;
},
{

glyphs = (
{
glyphname = .notdef;
layers = (
{
layerId = "EBD03586-66CA-4B27-94EE-9B66F2D0C841";
shapes = (
{
closed = 1;
nodes = (
(1101,0,l),
(1478,1410,l),
(367,1410,l),
(-11,0,l)
);
},
{
closed = 1;
nodes = (
(620,1142,l),
(1079,1142,l),
(845,268,l),
(386,268,l)
);
}
);
width = 1360;
},
{
layerId = "DDFB1734-E0D7-49FC-BA30-BBC7C7BD5F60";
shapes = (
{
closed = 1;
nodes = (
(989,0,l),
(1366,1410,l),
(404,1410,l),
(26,0,l)
);
},
{
closed = 1;
nodes = (
(539,1256,l),
(1147,1256,l),
(852,155,l),
(244,155,l)
);
}
);
width = 1270;
},
{
layerId = "49A5562C-FB3D-4EE7-BE2B-5FF0A3F25A62";
shapes = (
{
closed = 1;
nodes = (
(917,0,l),
(1295,1410,l),
(427,1410,l),
(49,0,l)
);
},
{
closed = 1;
nodes = (
(486,1328,l),
(1190,1328,l),
(856,84,l),
(153,84,l)
);
}
);
width = 1214;
}
);
},
{
glyphname = exclam;
layers = (
{
layerId = "EBD03586-66CA-4B27-94EE-9B66F2D0C841";
shapes = (
{
closed = 1;
nodes = (
(537,536,l),
(844,1440,l),
(361,1440,l),
(181,536,l)
);
},
{
closed = 1;
nodes = (
(315,-30,o),
(380,-6,o),
(431,39,cs),
(482,84,o),
(511,149,o),
(511,230,cs),
(511,290,o),
(486,334,o),
(449,366,cs),
(412,398,o),
(359,416,o),
(299,416,cs),
(231,416,o),
(166,393,o),
(118,350,cs),
(69,306,o),
(36,243,o),
(36,159,cs),
(36,102,o),
(60,54,o),
(97,22,cs),
(134,-10,o),
(189,-30,o),
(250,-30,cs)
);
}
);
width = 720;
},
{
layerId = "DDFB1734-E0D7-49FC-BA30-BBC7C7BD5F60";
shapes = (
{
closed = 1;
nodes = (
(397,469,l),
(692,1440,l),
(445,1440,l),
(217,469,l)
);
},
{
closed = 1;
nodes = (
(241,-30,o),
(283,-15,o),
(315,15,cs),
(347,44,o),
(365,83,o),
(365,132,cs),
(365,168,o),
(351,195,o),
(329,216,cs),
(306,237,o),
(272,249,o),
(233,249,cs),
(190,249,o),
(149,235,o),
(118,207,cs),
(87,180,o),
(66,139,o),
(66,89,cs),
(66,54,o),
(81,25,o),
(104,4,cs),
(127,-17,o),
(161,-30,o),
(199,-30,cs)
);
}
);
width = 636;
},
{
layerId = "49A5562C-FB3D-4EE7-BE2B-5FF0A3F25A62";
shapes = (
{
closed = 1;
nodes = (
(307,426,l),
(596,1440,l),
(498,1440,l),
(239,426,l)
);
},
{
closed = 1;
nodes = (
(194,-30,o),
(221,-21,o),
(241,-1,cs),
(261,19,o),
(273,40,o),
(273,70,cs),
(273,90,o),
(265,108,o),
(253,122,c),
(238,135,o),
(216,144,o),
(192,144,cs),
(165,144,o),
(139,135,o),
(118,117,cs),
(97,99,o),
(85,74,o),
(85,45,cs),
(85,24,o),
(94,6,o),
(108,-8,cs),
(121,-20,o),
(143,-30,o),
(166,-30,cs)
);
}
);
width = 583;
}
);
leftKerningGroup = _b2;
rightKerningGroup = _d;
unicode = 33;
},
{
glyphname = quotedbl;
layers = (
{
layerId = "EBD03586-66CA-4B27-94EE-9B66F2D0C841";
shapes = (
{
alignment = -1;
ref = quotesingle;
},
{
alignment = -1;
pos = (460,0);
ref = quotesingle;
}
);
width = 976;
},
{
layerId = "DDFB1734-E0D7-49FC-BA30-BBC7C7BD5F60";
shapes = (
{
closed = 1;
nodes = (
(411,905,l),
(562,1400,l),
(377,1400,l),
(264,905,l)
);
},
{
closed = 1;
nodes = (
(759,905,l),
(910,1400,l),
(725,1400,l),
(612,905,l)
);
}
);
width = 797;
},
{
layerId = "49A5562C-FB3D-4EE7-BE2B-5FF0A3F25A62";
shapes = (
{
closed = 1;
nodes = (
(386,1033,l),
(490,1400,l),
(416,1400,l),
(323,1033,l)
);
},
{
closed = 1;
nodes = (
(663,1033,l),
(767,1400,l),
(693,1400,l),
(600,1033,l)
);
}
);
width = 684;
}
);
leftKerningGroup = _tonos2;
rightKerningGroup = _tonos;
unicode = 34;
},
{
glyphname = numbersign;
layers = (
{
layerId = "EBD03586-66CA-4B27-94EE-9B66F2D0C841";
shapes = (
{
closed = 1;
nodes = (
(453,32,l),
(525,336,l),
(709,334,l),
(637,32,l),
(909,32,l),
(983,334,l),
(1145,334,l),
(1207,592,l),
(1047,592,l),
(1095,802,l),
(1255,802,l),
(1315,1058,l),
(1157,1058,l),
(1232,1368,l),
(960,1368,l),
(885,1058,l),
(699,1058,l),
(774,1368,l),
(502,1368,l),
(427,1058,l),
(265,1058,l),
(203,802,l),
(365,802,l),
(315,592,l),
(155,592,l),
(93,336,l),
(253,336,l),
(181,32,l)
);
},
{
closed = 1;
nodes = (
(635,802,l),
(823,802,l),
(775,592,l),
(587,592,l)
);
}
);
width = 1314;
},
{
layerId = "DDFB1734-E0D7-49FC-BA30-BBC7C7BD5F60";
shapes = (
{
closed = 1;
nodes = (
(377,50,l),
(462,393,l),
(770,393,l),
(686,49,l),
(837,49,l),
(922,393,l),
(1094,393,l),
(1129,540,l),
(957,540,l),
(1029,858,l),
(1202,858,l),
(1235,1005,l),
(1065,1005,l),
(1150,1351,l),
(999,1351,l),
(913,1005,l),
(604,1005,l),
(690,1350,l),
(539,1350,l),
(452,1005,l),
(280,1005,l),
(245,859,l),
(418,859,l),
(343,539,l),
(170,539,l),
(137,393,l),
(310,393,l),
(225,50,l)
);
},
{
closed = 1;
nodes = (
(566,859,l),
(878,858,l),
(806,540,l),
(495,539,l)
);
}
);
width = 1261;
},
{
layerId = "49A5562C-FB3D-4EE7-BE2B-5FF0A3F25A62";
shapes = (
{
closed = 1;
nodes = (
(328,62,l),
(421,430,l),
(808,430,l),
(716,59,l),
(791,59,l),
(883,430,l),
(1061,430,l),
(1079,507,l),
(901,507,l),
(988,893,l),
(1168,893,l),
(1185,971,l),
(1006,971,l),
(1098,1341,l),
(1023,1341,l),
(931,971,l),
(544,971,l),
(636,1338,l),
(562,1338,l),
(468,971,l),
(290,971,l),
(272,896,l),
(452,896,l),
(361,505,l),
(180,505,l),
(165,430,l),
(345,430,l),
(253,62,l)
);
},
{
closed = 1;
nodes = (
(523,896,l),
(912,893,l),
(825,507,l),
(436,505,l)
);
}
);
width = 1227;
}
);
unicode = 35;
},
{
glyphname = dollar;
layers = (
{
layerId = "EBD03586-66CA-4B27-94EE-9B66F2D0C841";
shapes = (
{
closed = 1;
nodes = (
(814,-30,o),
(1081,153,o),
(1086,470,cs),
(1090,671,o),
(918,789,o),
(760,822,cs),
(654,844,ls),
(586,858,o),
(549,928,o),
(550,1002,cs),
(552,1114,o),
(669,1159,o),
(755,1159,cs),
(870,1159,o),
(985,1111,o),
(1053,1008,c),
(1255,1231,l),
(1153,1377,o),
(952,1432,o),
(789,1432,cs),
(529,1432,o),
(272,1240,o),
(266,938,cs),
(264,797,o),
(326,620,o),
(526,581,cs),
(629,561,ls),
(713,545,o),
(787,497,o),
(785,393,cs),
(783,279,o),
(676,242,o),
(588,242,cs),
(466,242,o),
(309,305,o),
(235,412,c),
(37,181,l),
(156,36,o),
(370,-30,o),
(545,-30,cs)
);
},
{
closed = 1;
nodes = (
(555,-160,l),
(1009,1560,l),
(761,1560,l),
(306,-160,l)
);
}
);
width = 1200;
},
{
layerId = "DDFB1734-E0D7-49FC-BA30-BBC7C7BD5F60";
shapes = (
{
closed = 1;
nodes = (
(803,-30,o),
(1032,137,o),
(1038,435,cs),
(1041,606,o),
(918,701,o),
(784,750,c),
(657,800,ls),
(569,835,o),
(477,902,o),
(479,1016,cs),
(482,1188,o),
(626,1277,o),
(770,1277,cs),
(892,1277,o),
(1011,1235,o),
(1091,1134,c),
(1211,1262,l),
(1112,1385,o),
(949,1432,o),
(803,1432,cs),
(559,1432,o),
(322,1263,o),
(317,977,cs),
(315,845,o),
(382,725,o),
(558,659,c),
(677,611,ls),
(770,574,o),
(874,512,o),
(872,388,cs),
(868,208,o),
(721,127,o),
(572,127,cs),
(440,127,o),
(296,178,o),
(207,283,c),
(87,149,l),
(198,26,o),
(391,-30,o),
(547,-30,cs)
);
},
{
closed = 1;
nodes = (
(503,-160,l),
(957,1560,l),
(814,1560,l),
(359,-160,l)
);
}
);
width = 1200;
},
{
layerId = "49A5562C-FB3D-4EE7-BE2B-5FF0A3F25A62";
shapes = (
{
closed = 1;
nodes = (
(796,-30,o),
(1002,127,o),
(1007,412,cs),
(1010,565,o),
(918,645,o),
(799,704,c),
(659,772,ls),
(557,820,o),
(431,886,o),
(433,1025,cs),
(436,1234,o),
(598,1351,o),
(778,1351,cs),
(904,1351,o),
(1026,1313,o),
(1116,1214,c),
(1182,1281,l),
(1087,1389,o),
(946,1431,o),
(812,1431,cs),
(578,1431,o),
(353,1278,o),
(348,1002,cs),
(346,875,o),
(416,791,o),
(577,708,c),
(707,643,ls),
(807,593,o),
(929,522,o),
(927,385,cs),
(922,162,o),
(749,55,o),
(562,55,cs),
(424,55,o),
(287,97,o),
(188,202,c),
(118,128,l),
(223,19,o),
(404,-30,o),
(548,-30,cs)
);
},
{
closed = 1;
nodes = (
(470,-160,l),
(924,1560,l),
(847,1560,l),
(393,-160,l)
);
}
);
width = 1200;
}
);
unicode = 36;
},
{
glyphname = percent;
layers = (
{
layerId = "EBD03586-66CA-4B27-94EE-9B66F2D0C841";
shapes = (
{
closed = 1;
nodes = (
(614,756,o),
(743,1001,o),
(743,1191,cs),
(743,1339,o),
(660,1440,o),
(507,1440,cs),
(293,1440,o),
(163,1198,o),
(163,1008,cs),
(163,860,o),
(246,756,o),
(400,756,cs)
);
},
{
closed = 1;
nodes = (
(376,1081,o),
(417,1241,o),
(489,1241,cs),
(521,1241,o),
(529,1193,o),
(529,1168,cs),
(529,1114,o),
(492,958,o),
(421,958,cs),
(385,958,o),
(376,995,o),
(376,1024,cs)
);
},
{
closed = 1;
nodes = (
(1018,-40,o),
(1147,205,o),
(1147,395,cs),
(1147,543,o),
(1064,644,o),
(910,644,cs),
(697,644,o),
(567,403,o),
(567,212,cs),
(567,64,o),
(650,-40,o),
(803,-40,cs)
);
},
{
closed = 1;
nodes = (
(779,285,o),
(820,445,o),
(892,445,cs),
(925,445,o),
(932,397,o),
(932,372,cs),
(932,318,o),
(895,162,o),
(825,162,cs),
(789,162,o),
(779,199,o),
(779,228,cs)
);
},
{
closed = 1;
nodes = (
(148,-43,l),
(1294,1344,l),
(1157,1440,l),
(11,57,l)
);
}
);
width = 1200;
},
{
layerId = "DDFB1734-E0D7-49FC-BA30-BBC7C7BD5F60";
shapes = (
{
closed = 1;
nodes = (
(616,749,o),
(743,1008,o),
(743,1188,cs),
(743,1324,o),
(678,1433,o),
(529,1433,cs),
(323,1433,o),
(198,1178,o),
(198,997,cs),
(198,862,o),
(262,749,o),
(411,749,cs)
);
},
{
closed = 1;
nodes = (
(320,1106,o),
(390,1320,o),
(521,1320,cs),
(594,1320,o),
(620,1242,o),
(620,1180,cs),
(620,1077,o),
(550,864,o),
(424,864,cs),
(344,864,o),
(320,933,o),
(320,1001,cs)
);
},
{
closed = 1;
nodes = (
(989,-33,o),
(1114,226,o),
(1114,406,cs),
(1114,541,o),
(1049,651,o),
(901,651,cs),
(695,651,o),
(568,395,o),
(568,214,cs),
(568,79,o),
(634,-33,o),
(782,-33,cs)
);
},
{
closed = 1;
nodes = (
(691,324,o),
(761,537,o),
(891,537,cs),
(964,537,o),
(990,460,o),
(990,397,cs),
(990,294,o),
(923,82,o),
(796,82,cs),
(716,82,o),
(691,151,o),
(691,219,cs)
);
},
{
closed = 1;
nodes = (
(121,-29,l),
(1267,1364,l),
(1186,1427,l),
(36,37,l)
);
}
);
width = 1200;
},
{
layerId = "49A5562C-FB3D-4EE7-BE2B-5FF0A3F25A62";
shapes = (
{
closed = 1;
nodes = (
(617,745,o),
(742,1012,o),
(742,1185,cs),
(742,1314,o),
(688,1429,o),
(542,1429,cs),
(342,1429,o),
(219,1165,o),
(219,990,cs),
(219,863,o),
(272,745,o),
(417,745,cs)
);
},
{
closed = 1;
nodes = (
(285,1122,o),
(374,1370,o),
(540,1370,cs),
(640,1370,o),
(678,1273,o),
(678,1187,cs),
(678,1053,o),
(587,805,o),
(426,805,cs),
(319,805,o),
(285,893,o),
(285,986,cs)
);
},
{
closed = 1;
nodes = (
(970,-29,o),
(1093,238,o),
(1093,412,cs),
(1093,539,o),
(1039,655,o),
(895,655,cs),
(693,655,o),
(569,389,o),
(569,215,cs),
(569,88,o),
(624,-29,o),
(767,-29,cs)
);
},
{
closed = 1;
nodes = (
(635,349,o),
(724,596,o),
(890,596,cs),
(989,596,o),
(1027,499,o),
(1027,413,cs),
(1027,279,o),
(939,32,o),
(777,32,cs),
(670,32,o),
(635,120,o),
(635,213,cs)
);
},
{
closed = 1;
nodes = (
(103,-19,l),
(1251,1376,l),
(1205,1419,l),
(51,25,l)
);
}
);
width = 1200;
}
);
leftKerningGroup = _percent;
unicode = 37;
},
{
glyphname = ampersand;
layers = (
{
layerId = "EBD03586-66CA-4B27-94EE-9B66F2D0C841";
shapes = (
{
closed = 1;
nodes = (
(555,-29,o),
(629,-18,o),
(702,5,cs),
(774,28,o),
(840,58,o),
(904,100,c),
(969,0,l),
(1383,0,l),
(1177,319,l),
(1246,376,o),
(1324,454,o),
(1394,539,cs),
(1462,623,o),
(1525,710,o),
(1558,778,c),
(1265,899,l),
(1225,823,o),
(1187,763,o),
(1147,708,cs),
(1107,652,o),
(1066,608,o),
(1021,564,c),
(742,958,l),
(713,1002,o),
(709,1030,o),
(709,1053,cs),
(709,1093,o),
(724,1120,o),
(751,1139,cs),
(778,1158,o),
(815,1164,o),
(856,1164,cs),
(897,1164,o),
(942,1155,o),
(988,1142,cs),
(1033,1129,o),
(1075,1109,o),
(1115,1083,c),
(1262,1330,l),
(1140,1411,o),
(1011,1443,o),
(870,1440,c),
(740,1440,o),
(618,1404,o),
(529,1334,cs),
(439,1265,o),
(381,1160,o),
(381,1022,cs),
(381,957,o),
(397,894,o),
(429,827,c),
(742,346,l),
(695,309,o),
(625,289,o),
(565,289,cs),
(520,289,o),
(484,300,o),
(457,319,cs),
(430,338,o),
(417,368,o),
(417,401,cs),
(417,441,o),
(439,486,o),
(475,524,cs),
(510,561,o),
(557,592,o),
(605,604,c),
(459,838,l),
(342,796,o),
(243,735,o),
(170,650,cs),
(97,566,o),
(52,463,o),
(52,341,cs),
(52,233,o),
(95,141,o),
(171,76,cs),
(248,10,o),
(352,-29,o),
(486,-29,cs)
);
}
);
width = 1558;
},
{
layerId = "DDFB1734-E0D7-49FC-BA30-BBC7C7BD5F60";
shapes = (
{
closed = 1;
nodes = (
(576,-26,o),
(658,-11,o),
(736,20,c),
(814,49,o),
(889,93,o),
(963,150,c),
(1061,0,l),
(1286,0,l),
(1107,271,l),
(1173,336,o),
(1241,413,o),
(1304,495,cs),
(1367,577,o),
(1425,666,o),
(1467,751,c),
(1313,821,l),
(1265,727,o),
(1218,649,o),
(1170,579,cs),
(1122,508,o),
(1074,452,o),
(1023,402,c),
(700,865,l),
(641,951,o),
(624,1009,o),
(624,1066,cs),
(624,1132,o),
(651,1184,o),
(696,1223,cs),
(740,1262,o),
(800,1282,o),
(864,1282,cs),
(918,1282,o),
(965,1272,o),
(1010,1257,c),
(1054,1242,o),
(1090,1218,o),
(1130,1190,c),
(1221,1333,l),
(1120,1406,o),
(1009,1442,o),
(867,1440,c),
(757,1440,o),
(650,1404,o),
(571,1334,cs),
(491,1266,o),
(439,1170,o),
(439,1050,cs),
(439,972,o),
(464,902,o),
(522,811,c),
(875,284,l),
(769,187,o),
(655,145,o),
(537,145,cs),
(454,145,o),
(390,165,o),
(344,199,cs),
(299,234,o),
(276,284,o),
(276,345,cs),
(276,428,o),
(309,504,o),
(374,566,cs),
(438,628,o),
(528,674,o),
(641,696,c),
(554,819,l),
(425,786,o),
(307,727,o),
(221,641,cs),
(134,556,o),
(81,447,o),
(81,320,cs),
(81,213,o),
(121,128,o),
(194,68,cs),
(269,8,o),
(370,-26,o),
(497,-26,cs)
);
}
);
width = 1491;
},
{
layerId = "49A5562C-FB3D-4EE7-BE2B-5FF0A3F25A62";
shapes = (
{
closed = 1;
nodes = (
(588,-23,o),
(674,-5,o),
(757,29,cs),
(839,62,o),
(920,114,o),
(1000,182,c),
(1121,0,l),
(1223,0,l),
(1062,241,l),
(1127,311,o),
(1188,386,o),
(1248,467,cs),
(1307,548,o),
(1361,637,o),
(1411,733,c),
(1343,770,l),
(1290,667,o),
(1237,577,o),
(1185,497,cs),
(1131,418,o),
(1078,352,o),
(1024,299,c),
(673,806,ls),
(595,917,o),
(570,996,o),
(570,1074,cs),
(570,1156,o),
(605,1224,o),
(662,1276,cs),
(716,1327,o),
(790,1356,o),
(868,1356,cs),
(931,1356,o),
(980,1344,o),
(1023,1329,c),
(1066,1313,o),
(1101,1288,o),
(1140,1259,c),
(1196,1335,l),
(1107,1403,o),
(1007,1441,o),
(865,1440,c),
(767,1440,o),
(672,1403,o),
(598,1334,cs),
(525,1266,o),
(476,1176,o),
(476,1066,cs),
(476,981,o),
(507,906,o),
(581,800,c),
(959,244,l),
(817,110,o),
(675,53,o),
(518,53,cs),
(413,53,o),
(329,80,o),
(273,124,c),
(216,167,o),
(185,232,o),
(185,310,cs),
(185,420,o),
(228,515,o),
(310,593,cs),
(392,670,o),
(508,726,o),
(664,752,c),
(613,807,l),
(477,779,o),
(348,721,o),
(253,635,cs),
(157,550,o),
(99,437,o),
(99,305,cs),
(99,201,o),
(137,119,o),
(209,62,cs),
(281,6,o),
(380,-23,o),
(504,-23,cs)
);
}
);
width = 1448;
}
);
rightKerningGroup = _x;
unicode = 38;
},
{
glyphname = quotesingle;
layers = (
{
layerId = "EBD03586-66CA-4B27-94EE-9B66F2D0C841";
shapes = (
{
closed = 1;
nodes = (
(453,707,l),
(680,1410,l),
(317,1410,l),
(171,707,l)
);
}
);
width = 516;
},
{
layerId = "DDFB1734-E0D7-49FC-BA30-BBC7C7BD5F60";
shapes = (
{
closed = 1;
nodes = (
(414,911,l),
(566,1410,l),
(380,1410,l),
(266,911,l)
);
}
);
width = 449;
},
{
layerId = "49A5562C-FB3D-4EE7-BE2B-5FF0A3F25A62";
shapes = (
{
closed = 1;
nodes = (
(389,1040,l),
(493,1410,l),
(419,1410,l),
(325,1040,l)
);
}
);
width = 406;
}
);
leftKerningGroup = _tonos2;
rightKerningGroup = _tonos;
unicode = 39;
},
{
glyphname = parenleft;
layers = (
{
layerId = "EBD03586-66CA-4B27-94EE-9B66F2D0C841";
shapes = (
{
closed = 1;
nodes = (
(482,-123,l),
(454,-3,o),
(443,116,o),
(443,248,cs),
(443,475,o),
(490,705,o),
(575,922,cs),
(660,1139,o),
(785,1334,o),
(942,1491,c),
(634,1610,l),
(465,1419,o),
(329,1209,o),
(237,984,cs),
(144,757,o),
(94,520,o),
(94,269,cs),
(94,101,o),
(111,-61,o),
(156,-230,c)
);
}
);
width = 732;
},
{
layerId = "DDFB1734-E0D7-49FC-BA30-BBC7C7BD5F60";
shapes = (
{
closed = 1;
nodes = (
(384,-171,l),
(354,-42,o),
(338,81,o),
(338,221,cs),
(338,454,o),
(385,699,o),
(474,933,cs),
(564,1167,o),
(695,1377,o),
(863,1542,c),
(714,1610,l),
(542,1427,o),
(405,1212,o),
(310,977,cs),
(215,742,o),
(165,494,o),
(165,242,cs),
(165,80,o),
(181,-76,o),
(225,-230,c)
);
}
);
width = 686;
},
{
layerId = "49A5562C-FB3D-4EE7-BE2B-5FF0A3F25A62";
shapes = (
{
closed = 1;
nodes = (
(322,-201,l),
(291,-67,o),
(272,59,o),
(272,205,cs),
(272,441,o),
(317,696,o),
(411,940,cs),
(503,1183,o),
(637,1405,o),
(813,1574,c),
(764,1610,l),
(591,1433,o),
(452,1214,o),
(356,973,cs),
(259,732,o),
(209,478,o),
(209,226,cs),
(209,65,o),
(225,-85,o),
(268,-230,c)
);
}
);
width = 657;
}
);
rightKerningGroup = _parenleft;
unicode = 40;
},
{
glyphname = parenright;
layers = (
{
layerId = "EBD03586-66CA-4B27-94EE-9B66F2D0C841";
shapes = (
{
closed = 1;
nodes = (
(192,-230,l),
(363,-37,o),
(497,170,o),
(590,398,cs),
(682,626,o),
(732,863,o),
(732,1111,cs),
(732,1279,o),
(713,1441,o),
(670,1610,c),
(342,1503,l),
(373,1386,o),
(383,1265,o),
(383,1132,cs),
(383,905,o),
(336,675,o),
(251,459,cs),
(208,351,o),
(157,250,o),
(94,153,cs),
(31,56,o),
(-37,-32,o),
(-116,-109,c)
);
}
);
width = 732;
},
{
layerId = "DDFB1734-E0D7-49FC-BA30-BBC7C7BD5F60";
shapes = (
{
closed = 1;
nodes = (
(80,-230,l),
(253,-45,o),
(389,168,o),
(484,405,cs),
(578,641,o),
(628,889,o),
(628,1138,cs),
(628,1301,o),
(610,1456,o),
(569,1610,c),
(408,1551,l),
(440,1425,o),
(455,1300,o),
(455,1159,cs),
(455,926,o),
(409,682,o),
(319,449,cs),
(275,332,o),
(221,223,o),
(154,118,cs),
(88,14,o),
(15,-79,o),
(-70,-160,c)
);
}
);
width = 686;
},
{
layerId = "49A5562C-FB3D-4EE7-BE2B-5FF0A3F25A62";
shapes = (
{
closed = 1;
nodes = (
(8,-230,l),
(184,-51,o),
(320,166,o),
(416,408,cs),
(513,650,o),
(563,905,o),
(563,1154,cs),
(563,1314,o),
(545,1465,o),
(504,1610,c),
(449,1581,l),
(481,1450,o),
(501,1322,o),
(501,1175,cs),
(501,939,o),
(455,685,o),
(362,442,c),
(316,320,o),
(261,205,o),
(192,96,cs),
(123,-14,o),
(48,-108,o),
(-41,-192,c)
);
}
);
width = 657;
}
);
leftKerningGroup = _parenright;
unicode = 41;
},
{
glyphname = asterisk;
layers = (
{
layerId = "EBD03586-66CA-4B27-94EE-9B66F2D0C841";
shapes = (
{
closed = 1;
nodes = (
(629,651,l),
(700,375,l),
(1055,499,l),
(926,750,l),
(1209,743,l),
(1191,1115,l),
(911,1075,l),
(1016,1337,l),
(651,1435,l),
(607,1158,l),
(387,1334,l),
(179,1022,l),
(426,888,l),
(190,732,l),
(428,450,l)
);
}
);
width = 1192;
},
{
layerId = "DDFB1734-E0D7-49FC-BA30-BBC7C7BD5F60";
shapes = (
{
closed = 1;
nodes = (
(648,866,l),
(736,577,l),
(919,640,l),
(793,918,l),
(1098,917,l),
(1087,1109,l),
(787,1079,l),
(882,1364,l),
(700,1414,l),
(636,1117,l),
(392,1297,l),
(284,1136,l),
(547,984,l),
(303,806,l),
(422,662,l)
);
}
);
width = 1088;
},
{
layerId = "49A5562C-FB3D-4EE7-BE2B-5FF0A3F25A62";
shapes = (
{
closed = 1;
nodes = (
(660,1002,l),
(759,704,l),
(832,730,l),
(709,1024,l),
(1027,1026,l),
(1022,1106,l),
(709,1081,l),
(797,1380,l),
(730,1401,l),
(654,1090,l),
(395,1273,l),
(350,1208,l),
(623,1044,l),
(374,853,l),
(418,796,l)
);
}
);
width = 1023;
}
);
leftKerningGroup = _degree2;
rightKerningGroup = _degree;
unicode = 42;
},
{
glyphname = plus;
layers = (
{
layerId = "EBD03586-66CA-4B27-94EE-9B66F2D0C841";
shapes = (
{
closed = 1;
nodes = (
(678,110,l),
(793,536,l),
(1233,536,l),
(1304,804,l),
(864,804,l),
(980,1230,l),
(700,1230,l),
(584,804,l),
(144,804,l),
(73,536,l),
(513,536,l),
(398,110,l)
);
}
);
width = 1296;
},
{
layerId = "DDFB1734-E0D7-49FC-BA30-BBC7C7BD5F60";
shapes = (
{
closed = 1;
nodes = (
(644,187,l),
(752,592,l),
(1177,592,l),
(1216,740,l),
(791,740,l),
(900,1145,l),
(746,1145,l),
(637,740,l),
(213,740,l),
(174,592,l),
(598,592,l),
(490,187,l)
);
}
);
width = 1296;
},
{
layerId = "49A5562C-FB3D-4EE7-BE2B-5FF0A3F25A62";
shapes = (
{
closed = 1;
nodes = (
(622,236,l),
(727,627,l),
(1142,627,l),
(1160,699,l),
(745,699,l),
(850,1091,l),
(775,1091,l),
(671,699,l),
(256,699,l),
(238,627,l),
(652,627,l),
(548,236,l)
);
}
);
width = 1296;
}
);
leftKerningGroup = _plus2;
rightKerningGroup = _plus;
unicode = 43;
},
{
glyphname = hyphen;
layers = (
{
layerId = "EBD03586-66CA-4B27-94EE-9B66F2D0C841";
shapes = (
{
closed = 1;
nodes = (
(676,392,l),
(771,742,l),
(151,742,l),
(56,392,l)
);
}
);
width = 800;
},
{
layerId = "DDFB1734-E0D7-49FC-BA30-BBC7C7BD5F60";
shapes = (
{
closed = 1;
nodes = (
(649,476,l),
(694,648,l),
(164,648,l),
(119,476,l)
);
}
);
width = 775;
},
{
layerId = "49A5562C-FB3D-4EE7-BE2B-5FF0A3F25A62";
shapes = (
{
closed = 1;
nodes = (
(631,529,l),
(645,589,l),
(172,589,l),
(158,529,l)
);
}
);
width = 759;
}
);
leftKerningGroup = _hyphen2;
rightKerningGroup = _hyphen;
unicode = 45;
},
{
glyphname = slash;
layers = (
{
layerId = "EBD03586-66CA-4B27-94EE-9B66F2D0C841";
shapes = (
{
closed = 1;
nodes = (
(1202,1428,l),
(928,1610,l),
(-155,-47,l),
(119,-230,l)
);
}
);
width = 948;
},
{
layerId = "DDFB1734-E0D7-49FC-BA30-BBC7C7BD5F60";
shapes = (
{
closed = 1;
nodes = (
(1171,1513,l),
(1030,1610,l),
(-150,-136,l),
(-6,-230,l)
);
}
);
width = 909;
},
{
layerId = "49A5562C-FB3D-4EE7-BE2B-5FF0A3F25A62";
shapes = (
{
closed = 1;
nodes = (
(1150,1567,l),
(1094,1610,l),
(-147,-192,l),
(-86,-230,l)
);
}
);
width = 884;
}
);
unicode = 47;
},
{
glyphname = zero;
layers = (
{
layerId = "EBD03586-66CA-4B27-94EE-9B66F2D0C841";
shapes = (
{
closed = 1;
nodes = (
(1009,-30,o),
(1245,500,o),
(1245,893,cs),
(1245,1229,o),
(1063,1440,o),
(750,1440,cs),
(294,1440,o),
(57,911,o),
(57,518,cs),
(57,184,o),
(242,-30,o),
(553,-30,cs)
);
},
{
closed = 1;
nodes = (
(462,314,o),
(423,410,o),
(423,524,cs),
(423,702,o),
(504,1096,o),
(722,1096,cs),
(838,1096,o),
(881,1004,o),
(881,889,cs),
(881,711,o),
(797,314,o),
(580,314,cs)
);
}
);
width = 1200;
},
{
layerId = "DDFB1734-E0D7-49FC-BA30-BBC7C7BD5F60";
shapes = (
{
closed = 1;
nodes = (
(967,-30,o),
(1215,504,o),
(1215,900,cs),
(1215,1200,o),
(1066,1440,o),
(772,1440,cs),
(335,1440,o),
(100,883,o),
(100,507,cs),
(100,209,o),
(251,-30,o),
(543,-30,cs)
);
},
{
closed = 1;
nodes = (
(372,152,o),
(295,315,o),
(295,502,cs),
(295,775,o),
(441,1258,o),
(751,1258,cs),
(944,1258,o),
(1020,1102,o),
(1020,911,cs),
(1020,639,o),
(875,152,o),
(563,152,cs)
);
}
);
width = 1200;
},
{
layerId = "49A5562C-FB3D-4EE7-BE2B-5FF0A3F25A62";
shapes = (
{
closed = 1;
nodes = (
(938,-30,o),
(1196,506,o),
(1196,904,cs),
(1196,1181,o),
(1068,1440,o),
(787,1440,cs),
(360,1440,o),
(125,865,o),
(125,500,cs),
(125,226,o),
(257,-30,o),
(536,-30,cs)
);
},
{
closed = 1;
nodes = (
(315,49,o),
(213,255,o),
(213,489,cs),
(213,822,o),
(400,1360,o),
(769,1360,cs),
(1011,1360,o),
(1108,1163,o),
(1108,924,cs),
(1108,593,o),
(922,49,o),
(553,49,cs)
);
}
);
width = 1200;
}
);
leftKerningGroup = _plus2;
rightKerningGroup = _plus;
unicode = 48;
},
{
glyphname = one;
layers = (
{
layerId = "EBD03586-66CA-4B27-94EE-9B66F2D0C841";
shapes = (
{
closed = 1;
nodes = (
(1022,0,l),
(1111,360,l),
(790,360,l),
(1051,1410,l),
(980,1410,l),
(213,1154,l),
(298,846,l),
(588,938,l),
(442,360,l),
(81,360,l),
(-8,0,l)
);
}
);
width = 1200;
},
{
layerId = "DDFB1734-E0D7-49FC-BA30-BBC7C7BD5F60";
shapes = (
{
closed = 1;
nodes = (
(962,0,l),
(1006,184,l),
(654,184,l),
(960,1410,l),
(896,1410,l),
(300,1200,l),
(347,1043,l),
(722,1176,l),
(471,184,l),
(81,184,l),
(35,0,l)
);
}
);
width = 1200;
},
{
layerId = "49A5562C-FB3D-4EE7-BE2B-5FF0A3F25A62";
shapes = (
{
closed = 1;
nodes = (
(923,0,l),
(939,72,l),
(568,72,l),
(901,1410,l),
(843,1410,l),
(354,1228,l),
(379,1168,l),
(806,1326,l),
(490,72,l),
(80,72,l),
(62,0,l)
);
}
);
width = 1200;
}
);
leftKerningGroup = _plus2;
rightKerningGroup = _plus;
unicode = 49;
},
{
glyphname = two;
layers = (
{
layerId = "EBD03586-66CA-4B27-94EE-9B66F2D0C841";
shapes = (
{
closed = 1;
nodes = (
(417,852,l),
(484,957,o),
(619,1132,o),
(753,1132,cs),
(823,1132,o),
(884,1098,o),
(884,1021,cs),
(884,1001,o),
(881,979,o),
(875,960,cs),
(824,791,o),
(214,397,o),
(39,291,c),
(-38,0,l),
(977,0,l),
(1063,322,l),
(605,322,l),
(822,416,o),
(1093,590,o),
(1206,821,cs),
(1239,889,o),
(1260,963,o),
(1260,1040,cs),
(1260,1319,o),
(1022,1440,o),
(768,1440,cs),
(465,1440,o),
(262,1253,o),
(126,1009,c)
);
}
);
width = 1200;
},
{
layerId = "DDFB1734-E0D7-49FC-BA30-BBC7C7BD5F60";
shapes = (
{
closed = 1;
nodes = (
(407,1012,l),
(468,1147,o),
(634,1279,o),
(782,1279,cs),
(956,1279,o),
(1050,1216,o),
(1050,1091,cs),
(1050,1038,o),
(1029,975,o),
(1004,927,c),
(885,685,o),
(290,298,o),
(38,152,c),
(-3,0,l),
(941,0,l),
(989,174,l),
(353,174,l),
(579,295,o),
(986,557,o),
(1159,836,cs),
(1211,918,o),
(1243,1004,o),
(1243,1086,cs),
(1243,1332,o),
(1078,1440,o),
(791,1440,cs),
(554,1440,o),
(347,1292,o),
(241,1087,c)
);
}
);
width = 1200;
},
{
layerId = "49A5562C-FB3D-4EE7-BE2B-5FF0A3F25A62";
shapes = (
{
closed = 1;
nodes = (
(400,1115,l),
(456,1266,o),
(643,1371,o),
(801,1371,cs),
(1040,1371,o),
(1156,1291,o),
(1156,1138,cs),
(1156,1062,o),
(1122,972,o),
(1085,906,cs),
(924,616,o),
(336,237,o),
(37,64,c),
(19,0,l),
(920,0,l),
(941,81,l),
(193,81,l),
(425,220,o),
(916,536,o),
(1129,846,cs),
(1192,937,o),
(1230,1031,o),
(1230,1117,cs),
(1230,1340,o),
(1113,1440,o),
(807,1440,cs),
(609,1440,o),
(400,1317,o),
(313,1138,c)
);
}
);
width = 1200;
}
);
leftKerningGroup = _two.tnum2;
rightKerningGroup = _two.tnum;
unicode = 50;
},
{
glyphname = three;
layers = (
{
layerId = "EBD03586-66CA-4B27-94EE-9B66F2D0C841";
shapes = (
{
closed = 1;
nodes = (
(790,-32,o),
(1086,154,o),
(1086,479,cs),
(1086,644,o),
(995,768,o),
(844,816,c),
(1207,1115,l),
(1285,1410,l),
(353,1410,l),
(267,1085,l),
(743,1085,l),
(374,828,l),
(407,594,l),
(446,602,o),
(490,604,o),
(532,604,cs),
(630,604,o),
(726,571,o),
(726,471,cs),
(726,356,o),
(615,304,o),
(512,304,cs),
(389,304,o),
(250,353,o),
(195,456,c),
(11,167,l),
(89,31,o),
(347,-32,o),
(496,-32,cs)
);
}
);
width = 1200;
},
{
layerId = "DDFB1734-E0D7-49FC-BA30-BBC7C7BD5F60";
shapes = (
{
closed = 1;
nodes = (
(783,-30,o),
(1053,164,o),
(1053,472,cs),
(1053,698,o),
(861,799,o),
(668,822,c),
(1208,1252,l),
(1250,1410,l),
(379,1410,l),
(333,1236,l),
(950,1236,l),
(397,806,l),
(418,686,l),
(448,691,o),
(487,692,o),
(525,692,cs),
(680,692,o),
(861,641,o),
(861,461,cs),
(861,264,o),
(699,150,o),
(508,150,cs),
(375,150,o),
(227,198,o),
(145,294,c),
(40,138,l),
(138,23,o),
(354,-30,o),
(498,-30,cs)
);
}
);
width = 1200;
},
{
layerId = "49A5562C-FB3D-4EE7-BE2B-5FF0A3F25A62";
shapes = (
{
closed = 1;
nodes = (
(777,-28,o),
(1032,170,o),
(1032,468,cs),
(1032,732,o),
(775,819,o),
(556,825,c),
(1208,1338,l),
(1227,1410,l),
(395,1410,l),
(375,1331,l),
(1080,1331,l),
(412,790,l),
(425,742,l),
(449,747,o),
(484,747,o),
(519,747,cs),
(710,747,o),
(945,686,o),
(945,455,cs),
(945,204,o),
(751,52,o),
(506,52,cs),
(364,52,o),
(211,99,o),
(113,191,c),
(58,119,l),
(168,17,o),
(358,-28,o),
(499,-28,cs)
);
}
);
width = 1200;
}
);
leftKerningGroup = _plus2;
rightKerningGroup = _plus;
unicode = 51;
},
{
glyphname = four;
layers = (
{
layerId = "EBD03586-66CA-4B27-94EE-9B66F2D0C841";
shapes = (
{
closed = 1;
nodes = (
(860,0,l),
(923,248,l),
(1091,248,l),
(1174,568,l),
(1006,568,l),
(1068,818,l),
(749,818,l),
(687,568,l),
(483,568,l),
(1048,1410,l),
(650,1410,l),
(57,527,l),
(-17,248,l),
(603,248,l),
(541,0,l)
);
}
);
width = 1200;
},
{
layerId = "DDFB1734-E0D7-49FC-BA30-BBC7C7BD5F60";
shapes = (
{
closed = 1;
nodes = (
(794,0,l),
(870,294,l),
(1083,294,l),
(1127,466,l),
(914,466,l),
(995,786,l),
(821,786,l),
(740,466,l),
(281,466,l),
(1008,1410,l),
(794,1410,l),
(58,450,l),
(19,294,l),
(696,294,l),
(620,0,l)
);
}
);
width = 1200;
},
{
layerId = "49A5562C-FB3D-4EE7-BE2B-5FF0A3F25A62";
shapes = (
{
closed = 1;
nodes = (
(753,0,l),
(836,323,l),
(1077,323,l),
(1097,403,l),
(855,403,l),
(948,767,l),
(867,767,l),
(773,403,l),
(153,403,l),
(983,1410,l),
(885,1410,l),
(59,403,l),
(41,323,l),
(754,323,l),
(671,0,l)
);
}
);
width = 1200;
}
);
leftKerningGroup = _plus2;
rightKerningGroup = _plus;
unicode = 52;
},
{
glyphname = five;
layers = (
{
layerId = "EBD03586-66CA-4B27-94EE-9B66F2D0C841";
shapes = (
{
closed = 1;
nodes = (
(838,-30,o),
(1083,193,o),
(1083,515,cs),
(1083,781,o),
(888,904,o),
(629,904,cs),
(621,904,o),
(613,904,o),
(605,902,c),
(602,902,l),
(665,1061,l),
(1200,1061,l),
(1290,1410,l),
(486,1410,l),
(245,743,l),
(345,572,l),
(412,594,o),
(470,602,o),
(523,602,cs),
(604,602,o),
(718,581,o),
(718,474,cs),
(718,358,o),
(622,306,o),
(521,306,cs),
(394,306,o),
(270,342,o),
(194,452,c),
(18,161,l),
(131,25,o),
(345,-30,o),
(509,-30,cs)
);
}
);
width = 1200;
},
{
layerId = "DDFB1734-E0D7-49FC-BA30-BBC7C7BD5F60";
shapes = (
{
closed = 1;
nodes = (
(794,-30,o),
(1047,183,o),
(1047,499,cs),
(1047,757,o),
(844,876,o),
(613,876,cs),
(569,876,o),
(526,870,o),
(479,858,c),
(476,858,l),
(614,1229,l),
(1211,1229,l),
(1256,1410,l),
(516,1410,l),
(275,744,l),
(320,673,l),
(403,701,o),
(477,712,o),
(544,712,cs),
(689,712,o),
(849,648,o),
(849,474,cs),
(849,274,o),
(694,150,o),
(508,150,cs),
(381,150,o),
(236,199,o),
(147,296,c),
(45,137,l),
(147,25,o),
(352,-30,o),
(495,-30,cs)
);
}
);
width = 1200;
},
{
layerId = "49A5562C-FB3D-4EE7-BE2B-5FF0A3F25A62";
shapes = (
{
closed = 1;
nodes = (
(766,-30,o),
(1024,176,o),
(1024,489,cs),
(1024,741,o),
(816,858,o),
(603,858,cs),
(535,858,o),
(470,849,o),
(401,830,c),
(398,830,l),
(582,1335,l),
(1217,1335,l),
(1234,1410,l),
(534,1410,l),
(294,744,l),
(304,736,l),
(397,767,o),
(480,781,o),
(557,781,cs),
(742,781,o),
(931,692,o),
(931,474,cs),
(931,220,o),
(740,50,o),
(500,50,cs),
(372,50,o),
(213,109,o),
(117,196,c),
(61,121,l),
(157,24,o),
(356,-30,o),
(486,-30,cs)
);
}
);
width = 1200;
}
);
leftKerningGroup = _plus2;
rightKerningGroup = _plus;
unicode = 53;
},
{
glyphname = six;
layers = (
{
layerId = "EBD03586-66CA-4B27-94EE-9B66F2D0C841";
shapes = (
{
closed = 1;
nodes = (
(894,-30,o),
(1146,203,o),
(1146,505,cs),
(1146,752,o),
(970,928,o),
(707,928,cs),
(650,928,o),
(597,913,o),
(548,883,c),
(660,1036,o),
(896,1107,o),
(1173,1131,c),
(1157,1440,l),
(586,1440,o),
(65,1069,o),
(65,506,cs),
(65,184,o),
(274,-30,o),
(584,-30,cs)
);
},
{
closed = 1;
nodes = (
(506,290,o),
(446,356,o),
(446,443,cs),
(446,550,o),
(524,624,o),
(617,624,cs),
(704,624,o),
(764,558,o),
(764,472,cs),
(764,367,o),
(687,290,o),
(595,290,cs)
);
}
);
width = 1200;
},
{
layerId = "DDFB1734-E0D7-49FC-BA30-BBC7C7BD5F60";
shapes = (
{
closed = 1;
nodes = (
(880,-30,o),
(1134,206,o),
(1134,502,cs),
(1134,738,o),
(951,903,o),
(701,903,cs),
(577,903,o),
(462,852,o),
(373,761,c),
(495,1067,o),
(809,1264,o),
(1207,1272,c),
(1206,1440,l),
(629,1440,o),
(114,1037,o),
(114,450,cs),
(114,156,o),
(295,-30,o),
(588,-30,cs)
);
},
{
closed = 1;
nodes = (
(420,147,o),
(309,259,o),
(309,410,cs),
(309,598,o),
(464,736,o),
(645,736,cs),
(812,736,o),
(928,620,o),
(928,470,cs),
(928,294,o),
(781,147,o),
(599,147,cs)
);
}
);
width = 1200;
},
{
layerId = "49A5562C-FB3D-4EE7-BE2B-5FF0A3F25A62";
shapes = (
{
closed = 1;
nodes = (
(871,-30,o),
(1126,208,o),
(1126,499,cs),
(1126,728,o),
(937,887,o),
(697,887,cs),
(531,887,o),
(377,813,o),
(261,683,c),
(392,1086,o),
(753,1363,o),
(1228,1359,c),
(1237,1440,l),
(658,1440,o),
(143,1016,o),
(143,415,cs),
(143,140,o),
(308,-30,o),
(590,-30,cs)
);
},
{
closed = 1;
nodes = (
(364,56,o),
(223,195,o),
(223,389,cs),
(223,628,o),
(427,808,o),
(662,808,cs),
(880,808,o),
(1032,660,o),
(1032,468,cs),
(1032,247,o),
(841,56,o),
(601,56,cs)
);
}
);
width = 1200;
}
);
leftKerningGroup = _plus2;
rightKerningGroup = _plus;
unicode = 54;
},
{
glyphname = seven;
layers = (
{
layerId = "EBD03586-66CA-4B27-94EE-9B66F2D0C841";
shapes = (
{
closed = 1;
nodes = (
(488,0,l),
(1273,1139,l),
(1341,1410,l),
(352,1410,l),
(261,1049,l),
(795,1049,l),
(58,0,l)
);
}
);
width = 1200;
},
{
layerId = "DDFB1734-E0D7-49FC-BA30-BBC7C7BD5F60";
shapes = (
{
closed = 1;
nodes = (
(353,0,l),
(1248,1263,l),
(1285,1410,l),
(410,1410,l),
(363,1225,l),
(1007,1225,l),
(129,0,l)
);
}
);
width = 1200;
},
{
layerId = "49A5562C-FB3D-4EE7-BE2B-5FF0A3F25A62";
shapes = (
{
closed = 1;
nodes = (
(268,0,l),
(1231,1340,l),
(1250,1410,l),
(447,1410,l),
(429,1337,l),
(1139,1337,l),
(172,0,l)
);
}
);
width = 1200;
}
);
leftKerningGroup = _plus2;
rightKerningGroup = _plus;
unicode = 55;
},
{
glyphname = eight;
layers = (
{
layerId = "EBD03586-66CA-4B27-94EE-9B66F2D0C841";
shapes = (
{
closed = 1;
nodes = (
(792,-30,o),
(1111,128,o),
(1111,441,cs),
(1111,557,o),
(1049,654,o),
(953,715,c),
(1109,771,o),
(1232,908,o),
(1232,1080,cs),
(1232,1325,o),
(1005,1440,o),
(787,1440,cs),
(530,1440,o),
(264,1296,o),
(264,1009,cs),
(264,922,o),
(313,824,o),
(385,773,c),
(193,722,o),
(40,548,o),
(40,346,cs),
(40,81,o),
(282,-30,o),
(516,-30,cs)
);
},
{
closed = 1;
nodes = (
(481,278,o),
(409,331,o),
(409,419,cs),
(409,523,o),
(497,602,o),
(599,602,cs),
(684,602,o),
(757,559,o),
(757,466,cs),
(757,357,o),
(672,278,o),
(564,278,cs)
);
},
{
closed = 1;
nodes = (
(667,914,o),
(602,954,o),
(602,1029,cs),
(602,1116,o),
(677,1176,o),
(760,1176,cs),
(826,1176,o),
(886,1138,o),
(886,1066,cs),
(886,983,o),
(821,914,o),
(736,914,cs)
);
}
);
width = 1200;
},
{
layerId = "DDFB1734-E0D7-49FC-BA30-BBC7C7BD5F60";
shapes = (
{
closed = 1;
nodes = (
(801,-30,o),
(1052,148,o),
(1052,428,cs),
(1052,560,o),
(987,651,o),
(877,719,c),
(1045,771,o),
(1176,912,o),
(1176,1095,cs),
(1176,1317,o),
(983,1440,o),
(777,1440,cs),
(539,1440,o),
(317,1284,o),
(317,1030,cs),
(317,930,o),
(374,826,o),
(458,772,c),
(255,720,o),
(106,554,o),
(106,339,cs),
(106,90,o),
(311,-30,o),
(539,-30,cs)
);
},
{
closed = 1;
nodes = (
(423,141,o),
(298,218,o),
(298,367,cs),
(298,543,o),
(427,661,o),
(600,661,cs),
(742,661,o),
(863,586,o),
(863,432,cs),
(863,256,o),
(730,141,o),
(559,141,cs)
);
},
{
closed = 1;
nodes = (
(603,833,o),
(499,900,o),
(499,1039,cs),
(499,1187,o),
(620,1282,o),
(762,1282,cs),
(889,1282,o),
(993,1207,o),
(993,1073,cs),
(993,924,o),
(875,833,o),
(732,833,cs)
);
}
);
width = 1200;
},
{
layerId = "49A5562C-FB3D-4EE7-BE2B-5FF0A3F25A62";
shapes = (
{
closed = 1;
nodes = (
(793,-30,o),
(1029,153,o),
(1029,415,cs),
(1029,555,o),
(955,645,o),
(838,713,c),
(1015,761,o),
(1161,898,o),
(1161,1090,cs),
(1161,1303,o),
(971,1423,o),
(775,1423,cs),
(552,1423,o),
(333,1270,o),
(333,1031,cs),
(333,922,o),
(399,816,o),
(492,762,c),
(280,715,o),
(117,558,o),
(117,331,cs),
(117,89,o),
(322,-30,o),
(544,-30,cs)
);
},
{
closed = 1;
nodes = (
(377,53,o),
(203,140,o),
(203,330,cs),
(203,558,o),
(379,688,o),
(594,688,cs),
(769,688,o),
(939,602,o),
(939,406,cs),
(939,180,o),
(757,53,o),
(546,53,cs)
);
},
{
closed = 1;
nodes = (
(565,771,o),
(420,851,o),
(420,1034,cs),
(420,1225,o),
(590,1333,o),
(766,1333,cs),
(930,1333,o),
(1076,1246,o),
(1076,1066,cs),
(1076,871,o),
(909,771,o),
(731,771,cs)
);
}
);
width = 1200;
}
);
leftKerningGroup = _plus2;
rightKerningGroup = _plus;
unicode = 56;
},
{
glyphname = nine;
layers = (
{
layerId = "EBD03586-66CA-4B27-94EE-9B66F2D0C841";
shapes = (
{
closed = 1;
nodes = (
(117,-30,l),
(683,-30,o),
(1199,344,o),
(1199,915,cs),
(1199,1230,o),
(992,1440,o),
(681,1440,cs),
(377,1440,o),
(141,1223,o),
(141,928,cs),
(141,682,o),
(312,505,o),
(569,505,cs),
(623,505,o),
(673,522,o),
(718,551,c),
(606,383,o),
(375,305,o),
(103,279,c)
);
},
{
closed = 1;
nodes = (
(577,810,o),
(523,871,o),
(523,950,cs),
(523,1049,o),
(594,1120,o),
(682,1120,cs),
(762,1120,o),
(821,1058,o),
(821,979,cs),
(821,880,o),
(747,810,o),
(660,810,cs)
);
}
);
width = 1200;
},
{
layerId = "DDFB1734-E0D7-49FC-BA30-BBC7C7BD5F60";
shapes = (
{
closed = 1;
nodes = (
(103,-30,l),
(673,-30,o),
(1186,378,o),
(1186,972,cs),
(1186,1259,o),
(1003,1440,o),
(710,1440,cs),
(424,1440,o),
(189,1219,o),
(189,932,cs),
(189,696,o),
(372,531,o),
(611,531,cs),
(739,531,o),
(843,582,o),
(927,674,c),
(809,351,o),
(495,146,o),
(104,138,c)
);
},
{
closed = 1;
nodes = (
(504,699,o),
(396,804,o),
(396,952,cs),
(396,1122,o),
(537,1263,o),
(713,1263,cs),
(884,1263,o),
(991,1157,o),
(991,1013,cs),
(991,833,o),
(841,699,o),
(668,699,cs)
);
}
);
width = 1200;
},
{
layerId = "49A5562C-FB3D-4EE7-BE2B-5FF0A3F25A62";
shapes = (
{
closed = 1;
nodes = (
(94,-30,l),
(667,-30,o),
(1178,399,o),
(1178,1006,cs),
(1178,1275,o),
(1010,1440,o),
(729,1440,cs),
(452,1440,o),
(220,1216,o),
(220,934,cs),
(220,706,o),
(409,547,o),
(636,547,cs),
(812,547,o),
(950,620,o),
(1059,751,c),
(936,332,o),
(571,46,o),
(104,50,c)
);
},
{
closed = 1;
nodes = (
(458,627,o),
(314,760,o),
(314,953,cs),
(314,1168,o),
(499,1353,o),
(732,1353,cs),
(961,1353,o),
(1098,1220,o),
(1098,1034,cs),
(1098,801,o),
(900,627,o),
(672,627,cs)
);
}
);
width = 1200;
}
);
leftKerningGroup = _plus2;
rightKerningGroup = _plus;
unicode = 57;
},
{
glyphname = less;
layers = (
{
layerId = "EBD03586-66CA-4B27-94EE-9B66F2D0C841";
shapes = (
{
closed = 1;
nodes = (
(1153,324,l),
(513,608,l),
(1376,927,l),
(1283,1182,l),
(134,765,l),
(63,495,l),
(1045,69,l)
);
}
);
width = 1296;
},
{
layerId = "DDFB1734-E0D7-49FC-BA30-BBC7C7BD5F60";
shapes = (
{
closed = 1;
nodes = (
(1104,343,l),
(422,644,l),
(1306,963,l),
(1251,1114,l),
(210,728,l),
(172,583,l),
(1039,196,l)
);
}
);
width = 1296;
},
{
layerId = "49A5562C-FB3D-4EE7-BE2B-5FF0A3F25A62";
shapes = (
{
closed = 1;
nodes = (
(1072,355,l),
(364,666,l),
(1260,986,l),
(1230,1071,l),
(257,704,l),
(241,638,l),
(1036,277,l)
);
}
);
width = 1296;
}
);
leftKerningGroup = _plus2;
rightKerningGroup = _plus;
unicode = 60;
},
{
glyphname = equal;
layers = (
{
layerId = "EBD03586-66CA-4B27-94EE-9B66F2D0C841";
shapes = (
{
closed = 1;
nodes = (
(1300,782,l),
(1371,1050,l),
(211,1050,l),
(140,782,l)
);
},
{
closed = 1;
nodes = (
(1170,291,l),
(1240,559,l),
(80,559,l),
(10,291,l)
);
}
);
width = 1296;
},
{
layerId = "DDFB1734-E0D7-49FC-BA30-BBC7C7BD5F60";
shapes = (
{
closed = 1;
nodes = (
(1230,782,l),
(1269,930,l),
(266,930,l),
(227,782,l)
);
},
{
closed = 1;
nodes = (
(1128,405,l),
(1167,553,l),
(164,553,l),
(124,405,l)
);
}
);
width = 1296;
},
{
layerId = "49A5562C-FB3D-4EE7-BE2B-5FF0A3F25A62";
shapes = (
{
closed = 1;
nodes = (
(1186,782,l),
(1204,854,l),
(300,854,l),
(282,782,l)
);
},
{
closed = 1;
nodes = (
(1100,477,l),
(1120,549,l),
(216,549,l),
(196,477,l)
);
}
);
width = 1296;
}
);
leftKerningGroup = _plus2;
rightKerningGroup = _plus;
unicode = 61;
},
{
glyphname = greater;
layers = (
{
layerId = "EBD03586-66CA-4B27-94EE-9B66F2D0C841";
shapes = (
{
closed = 1;
nodes = (
(1222,495,l),
(1293,765,l),
(311,1189,l),
(203,936,l),
(843,652,l),
(-20,331,l),
(73,78,l)
);
}
);
width = 1296;
},
{
layerId = "DDFB1734-E0D7-49FC-BA30-BBC7C7BD5F60";
shapes = (
{
closed = 1;
nodes = (
(1174,584,l),
(1212,730,l),
(345,1113,l),
(281,969,l),
(963,668,l),
(79,346,l),
(134,198,l)
);
}
);
width = 1296;
},
{
layerId = "49A5562C-FB3D-4EE7-BE2B-5FF0A3F25A62";
shapes = (
{
closed = 1;
nodes = (
(1144,640,l),
(1160,707,l),
(366,1066,l),
(331,990,l),
(1038,678,l),
(142,356,l),
(172,273,l)
);
}
);
width = 1296;
}
);
leftKerningGroup = _plus2;
rightKerningGroup = _plus;
unicode = 62;
},
{
glyphname = question;
layers = (
{
guides = (
{
position = "{0, 1400}";
}
);
layerId = "EBD03586-66CA-4B27-94EE-9B66F2D0C841";
shapes = (
{
closed = 1;
nodes = (
(633,526,l),
(607,553,o),
(566,596,o),
(566,637,cs),
(566,686,o),
(609,720,o),
(673,745,cs),
(821,803,ls),
(975,863,o),
(1099,944,o),
(1099,1122,cs),
(1099,1384,o),
(774,1470,o),
(563,1470,cs),
(470,1470,o),
(298,1461,o),
(221,1407,c),
(209,1073,l),
(280,1096,o),
(352,1118,o),
(425,1118,cs),
(470,1118,o),
(577,1114,o),
(577,1050,cs),
(577,994,o),
(528,962,o),
(466,934,cs),
(363,888,ls),
(281,851,o),
(209,796,o),
(209,688,cs),
(209,609,o),
(292,545,o),
(349,503,c)
);
},
{
closed = 1;
nodes = (
(442,-30,o),
(569,81,o),
(569,227,cs),
(569,354,o),
(458,420,o),
(342,420,cs),
(199,420,o),
(76,312,o),
(76,164,cs),
(76,40,o),
(183,-30,o),
(299,-30,cs)
);
}
);
width = 1052;
},
{
layerId = "DDFB1734-E0D7-49FC-BA30-BBC7C7BD5F60";
shapes = (
{
closed = 1;
nodes = (
(491,454,l),
(455,492,o),
(399,536,o),
(399,594,cs),
(399,650,o),
(456,691,o),
(530,722,cs),
(702,794,ls),
(864,862,o),
(1020,952,o),
(1020,1148,cs),
(1020,1384,o),
(728,1470,o),
(535,1470,cs),
(437,1470,o),
(319,1450,o),
(234,1400,c),
(249,1231,l),
(320,1271,o),
(401,1290,o),
(482,1290,cs),
(590,1290,o),
(788,1251,o),
(788,1110,cs),
(788,1012,o),
(675,964,o),
(583,925,cs),
(433,862,ls),
(315,812,o),
(208,749,o),
(208,624,cs),
(208,544,o),
(272,480,o),
(328,432,c)
);
},
{
closed = 1;
nodes = (
(335,-23,o),
(413,43,o),
(413,131,cs),
(413,208,o),
(345,249,o),
(274,249,cs),
(190,249,o),
(113,185,o),
(113,97,cs),
(113,21,o),
(179,-23,o),
(250,-23,cs)
);
}
);
width = 977;
},
{
layerId = "49A5562C-FB3D-4EE7-BE2B-5FF0A3F25A62";
shapes = (
{
closed = 1;
nodes = (
(391,408,l),
(348,455,o),
(276,512,o),
(276,582,cs),
(276,640,o),
(317,677,o),
(430,726,cs),
(616,806,ls),
(786,878,o),
(970,953,o),
(970,1161,cs),
(970,1384,o),
(703,1470,o),
(520,1470,cs),
(421,1470,o),
(331,1444,o),
(241,1397,c),
(270,1324,l),
(341,1373,o),
(426,1390,o),
(512,1390,cs),
(653,1390,o),
(885,1339,o),
(885,1157,cs),
(885,1032,o),
(765,951,o),
(652,904,cs),
(472,829,ls),
(330,771,o),
(201,721,o),
(201,584,cs),
(201,503,o),
(251,440,o),
(307,388,c)
);
},
{
closed = 1;
nodes = (
(279,-20,o),
(331,24,o),
(331,81,cs),
(331,131,o),
(286,159,o),
(239,159,cs),
(184,159,o),
(132,119,o),
(132,62,cs),
(132,11,o),
(177,-20,o),
(225,-20,cs)
);
}
);
width = 937;
}
);
unicode = 63;
},
{
glyphname = at;
layers = (
{
layerId = "EBD03586-66CA-4B27-94EE-9B66F2D0C841";
shapes = (
{
closed = 1;
nodes = (
(968,-234,o),
(1065,-219,o),
(1161,-191,cs),
(1257,-162,o),
(1345,-120,o),
(1426,-64,c),
(1346,116,l),
(1277,67,o),
(1201,27,o),
(1118,0,cs),
(1035,-27,o),
(949,-40,o),
(860,-40,cs),
(687,-40,o),
(545,13,o),
(445,105,cs),
(344,197,o),
(286,324,o),
(286,480,cs),
(286,647,o),
(347,789,o),
(454,892,cs),
(561,995,o),
(705,1054,o),
(876,1054,cs),
(1037,1054,o),
(1171,1007,o),
(1267,923,cs),
(1363,839,o),
(1418,720,o),
(1418,576,cs),
(1418,503,o),
(1405,445,o),
(1380,406,cs),
(1355,366,o),
(1317,346,o),
(1272,346,cs),
(1241,346,o),
(1220,356,o),
(1205,373,cs),
(1190,390,o),
(1183,418,o),
(1186,450,c),
(1208,840,l),
(1022,840,l),
(1020,788,l),
(952,844,o),
(887,866,o),
(810,866,cs),
(705,866,o),
(613,829,o),
(549,761,cs),
(485,693,o),
(448,600,o),
(448,492,cs),
(448,392,o),
(481,309,o),
(541,249,cs),
(601,189,o),
(682,154,o),
(782,154,cs),
(881,154,o),
(950,187,o),
(1026,262,c),
(1070,190,o),
(1147,154,o),
(1252,154,cs),
(1356,154,o),
(1448,203,o),
(1516,279,cs),
(1584,355,o),
(1626,460,o),
(1626,576,cs),
(1626,775,o),
(1551,939,o),
(1419,1058,cs),
(1286,1177,o),
(1103,1242,o),
(882,1242,cs),
(649,1242,o),
(451,1164,o),
(307,1028,cs),
(162,891,o),
(78,705,o),
(78,486,cs),
(78,273,o),
(156,95,o),
(296,-34,cs),
(436,-162,o),
(631,-234,o),
(864,-234,cs)
);
},
{
closed = 1;
nodes = (
(736,366,o),
(696,410,o),
(696,490,cs),
(696,539,o),
(709,581,o),
(734,609,cs),
(759,637,o),
(793,652,o),
(836,652,cs),
(908,652,o),
(950,608,o),
(950,528,cs),
(950,428,o),
(896,366,o),
(808,366,cs)
);
}
);
width = 1688;
},
{
layerId = "DDFB1734-E0D7-49FC-BA30-BBC7C7BD5F60";
shapes = (
{
closed = 1;
nodes = (
(979,-234,o),
(1083,-219,o),
(1180,-192,c),
(1276,-163,o),
(1361,-124,o),
(1428,-74,c),
(1376,36,l),
(1320,-9,o),
(1244,-47,o),
(1157,-74,cs),
(1071,-101,o),
(977,-116,o),
(885,-116,cs),
(690,-116,o),
(533,-54,o),
(420,53,cs),
(306,159,o),
(242,307,o),
(242,487,cs),
(242,671,o),
(310,828,o),
(429,944,cs),
(548,1059,o),
(707,1125,o),
(895,1125,cs),
(1074,1125,o),
(1224,1071,o),
(1332,973,cs),
(1440,875,o),
(1502,738,o),
(1502,573,cs),
(1502,478,o),
(1479,398,o),
(1442,342,cs),
(1404,285,o),
(1352,254,o),
(1294,254,cs),
(1245,254,o),
(1216,266,o),
(1198,292,c),
(1179,317,o),
(1172,356,o),
(1176,411,c),
(1199,857,l),
(1073,857,l),
(1070,777,l),
(1005,850,o),
(929,883,o),
(838,883,cs),
(738,883,o),
(648,841,o),
(584,769,cs),
(520,698,o),
(483,600,o),
(483,489,cs),
(483,389,o),
(515,302,o),
(572,239,cs),
(629,176,o),
(705,139,o),
(797,139,cs),
(914,139,o),
(1007,188,o),
(1069,277,c),
(1092,189,o),
(1160,139,o),
(1278,139,cs),
(1377,139,o),
(1463,186,o),
(1526,265,cs),
(1589,343,o),
(1630,450,o),
(1630,575,cs),
(1630,774,o),
(1555,937,o),
(1425,1057,cs),
(1294,1177,o),
(1114,1242,o),
(897,1242,cs),
(670,1242,o),
(478,1164,o),
(337,1027,cs),
(197,890,o),
(114,704,o),
(114,485,cs),
(114,270,o),
(188,93,o),
(324,-35,cs),
(458,-163,o),
(647,-234,o),
(875,-234,cs)
);
},
{
closed = 1;
nodes = (
(695,269,o),
(630,344,o),
(630,486,cs),
(630,568,o),
(650,637,o),
(689,682,cs),
(727,728,o),
(781,751,o),
(851,751,cs),
(971,751,o),
(1039,678,o),
(1039,538,cs),
(1039,368,o),
(958,269,o),
(819,269,cs)
);
}
);
width = 1715;
},
{
layerId = "49A5562C-FB3D-4EE7-BE2B-5FF0A3F25A62";
shapes = (
{
closed = 1;
nodes = (
(986,-234,o),
(1095,-219,o),
(1192,-192,cs),
(1288,-164,o),
(1371,-126,o),
(1429,-80,c),
(1395,-14,l),
(1347,-56,o),
(1271,-93,o),
(1182,-121,c),
(1093,-148,o),
(993,-163,o),
(900,-163,cs),
(692,-163,o),
(525,-97,o),
(404,19,cs),
(282,135,o),
(214,295,o),
(214,491,cs),
(214,686,o),
(286,853,o),
(413,977,cs),
(539,1099,o),
(708,1171,o),
(907,1171,cs),
(1097,1171,o),
(1258,1111,o),
(1373,1004,cs),
(1489,897,o),
(1554,748,o),
(1554,571,cs),
(1554,462,o),
(1526,368,o),
(1481,301,cs),
(1434,233,o),
(1374,195,o),
(1307,195,cs),
(1248,195,o),
(1213,210,o),
(1192,240,cs),
(1172,270,o),
(1165,317,o),
(1169,386,cs),
(1193,867,l),
(1105,867,l),
(1101,770,l),
(1038,853,o),
(954,893,o),
(854,893,cs),
(759,893,o),
(670,848,o),
(606,775,cs),
(542,701,o),
(504,600,o),
(504,487,cs),
(504,387,o),
(536,298,o),
(591,233,cs),
(647,168,o),
(720,129,o),
(806,129,cs),
(935,129,o),
(1042,189,o),
(1096,287,c),
(1107,188,o),
(1168,129,o),
(1294,129,cs),
(1389,129,o),
(1472,174,o),
(1532,255,cs),
(1592,335,o),
(1632,444,o),
(1632,574,cs),
(1632,773,o),
(1557,935,o),
(1428,1056,cs),
(1300,1176,o),
(1121,1242,o),
(906,1242,cs),
(683,1242,o),
(494,1163,o),
(356,1026,cs),
(218,889,o),
(136,703,o),
(136,484,cs),
(136,268,o),
(209,91,o),
(340,-36,cs),
(473,-164,o),
(657,-234,o),
(881,-234,cs)
);
},
{
closed = 1;
nodes = (
(670,208,o),
(587,303,o),
(587,483,cs),
(587,587,o),
(612,671,o),
(660,728,cs),
(706,784,o),
(773,814,o),
(860,814,cs),
(1011,814,o),
(1095,721,o),
(1095,544,cs),
(1095,330,o),
(997,208,o),
(825,208,cs)
);
}
);
width = 1731;
}
);
rightKerningGroup = _at;
unicode = 64;
},
{
glyphname = A;
layers = (
{
layerId = "EBD03586-66CA-4B27-94EE-9B66F2D0C841";
shapes = (
{
closed = 1;
nodes = (
(329,0,l),
(477,252,l),
(909,252,l),
(922,0,l),
(1368,0,l),
(1242,1410,l),
(760,1410,l),
(-142,0,l)
);
},
{
closed = 1;
nodes = (
(891,978,l),
(915,588,l),
(652,588,l)
);
}
);
width = 1498;
},
{
layerId = "DDFB1734-E0D7-49FC-BA30-BBC7C7BD5F60";
shapes = (
{
closed = 1;
nodes = (
(128,0,l),
(351,346,l),
(960,346,l),
(1007,0,l),
(1228,0,l),
(1037,1410,l),
(823,1410,l),
(-108,0,l)
);
},
{
closed = 1;
nodes = (
(866,1157,l),
(952,524,l),
(452,524,l)
);
}
);
width = 1376;
},
{
layerId = "49A5562C-FB3D-4EE7-BE2B-5FF0A3F25A62";
shapes = (
{
closed = 1;
nodes = (
(0,0,l),
(271,406,l),
(992,406,l),
(1059,0,l),
(1140,0,l),
(908,1410,l),
(862,1410,l),
(-86,0,l)
);
},
{
closed = 1;
nodes = (
(850,1270,l),
(974,482,l),
(326,482,l)
);
}
);
width = 1299;
}
);
leftKerningGroup = _A2;
rightKerningGroup = _A;
unicode = 65;
},
{
glyphname = B;
layers = (
{
layerId = "EBD03586-66CA-4B27-94EE-9B66F2D0C841";
shapes = (
{
closed = 1;
nodes = (
(688,0,ls),
(842,0,o),
(988,43,o),
(1093,123,cs),
(1199,202,o),
(1269,315,o),
(1269,464,cs),
(1269,529,o),
(1255,584,o),
(1227,635,cs),
(1200,687,o),
(1159,725,o),
(1107,757,c),
(1187,786,o),
(1256,828,o),
(1305,884,cs),
(1353,940,o),
(1382,1009,o),
(1382,1089,cs),
(1382,1190,o),
(1341,1271,o),
(1261,1326,cs),
(1180,1381,o),
(1062,1410,o),
(912,1410,cs),
(393,1410,l),
(15,0,l)
);
},
{
closed = 1;
nodes = (
(577,578,l),
(683,578,ls),
(735,578,o),
(774,568,o),
(801,549,cs),
(829,529,o),
(840,499,o),
(840,459,cs),
(840,410,o),
(824,370,o),
(794,340,cs),
(765,311,o),
(722,292,o),
(673,292,cs),
(498,292,l)
);
},
{
closed = 1;
nodes = (
(723,1118,l),
(813,1118,ls),
(921,1118,o),
(973,1082,o),
(973,1006,cs),
(973,969,o),
(959,929,o),
(934,898,cs),
(910,867,o),
(875,848,o),
(834,848,cs),
(649,848,l)
);
}
);
width = 1354;
},
{
layerId = "DDFB1734-E0D7-49FC-BA30-BBC7C7BD5F60";
shapes = (
{
closed = 1;
nodes = (
(624,0,ls),
(764,0,o),
(892,46,o),
(984,124,cs),
(1074,202,o),
(1133,314,o),
(1133,450,cs),
(1133,512,o),
(1117,569,o),
(1085,621,cs),
(1053,673,o),
(1004,712,o),
(937,740,c),
(1032,762,o),
(1114,807,o),
(1172,868,cs),
(1231,930,o),
(1266,1009,o),
(1266,1092,cs),
(1266,1191,o),
(1227,1271,o),
(1152,1326,cs),
(1077,1381,o),
(971,1410,o),
(835,1410,cs),
(432,1410,l),
(54,0,l)
);
},
{
closed = 1;
nodes = (
(430,645,l),
(669,645,ls),
(746,645,o),
(810,630,o),
(855,597,cs),
(900,564,o),
(923,516,o),
(923,450,cs),
(923,358,o),
(894,288,o),
(840,240,cs),
(786,191,o),
(708,164,o),
(611,164,cs),
(301,164,l)
);
},
{
closed = 1;
nodes = (
(593,1246,l),
(775,1246,ls),
(966,1246,o),
(1058,1182,o),
(1058,1063,cs),
(1058,987,o),
(1022,922,o),
(960,877,c),
(898,830,o),
(813,802,o),
(715,802,cs),
(473,802,l)
);
}
);
width = 1260;
},
{
layerId = "49A5562C-FB3D-4EE7-BE2B-5FF0A3F25A62";
shapes = (
{
closed = 1;
nodes = (
(584,0,ls),
(715,0,o),
(832,48,o),
(914,125,cs),
(996,202,o),
(1046,313,o),
(1046,440,cs),
(1046,499,o),
(1029,559,o),
(995,611,cs),
(961,664,o),
(906,704,o),
(830,728,c),
(932,746,o),
(1023,791,o),
(1088,858,cs),
(1154,923,o),
(1191,1009,o),
(1191,1095,cs),
(1191,1191,o),
(1155,1271,o),
(1083,1326,cs),
(1012,1381,o),
(911,1410,o),
(784,1410,cs),
(456,1410,l),
(79,0,l)
);
},
{
closed = 1;
nodes = (
(337,689,l),
(659,689,ls),
(752,689,o),
(832,670,o),
(889,627,cs),
(944,585,o),
(976,526,o),
(976,444,cs),
(976,325,o),
(937,236,o),
(868,176,cs),
(798,116,o),
(699,83,o),
(572,83,cs),
(175,83,l)
);
},
{
closed = 1;
nodes = (
(510,1327,l),
(751,1327,ls),
(994,1327,o),
(1113,1246,o),
(1113,1099,cs),
(1113,999,o),
(1061,918,o),
(976,862,cs),
(890,806,o),
(772,774,o),
(639,774,cs),
(360,774,l)
);
}
);
width = 1201;
}
);
leftKerningGroup = _B2;
rightKerningGroup = _B;
unicode = 66;
},
{
glyphname = C;
layers = (
{
layerId = "EBD03586-66CA-4B27-94EE-9B66F2D0C841";
shapes = (
{
closed = 1;
nodes = (
(986,-30,o),
(1146,16,o),
(1275,94,c),
(1178,452,l),
(1072,391,o),
(957,367,o),
(863,367,cs),
(761,367,o),
(683,394,o),
(630,439,cs),
(577,484,o),
(550,551,o),
(550,631,cs),
(550,749,o),
(584,852,o),
(648,925,cs),
(713,998,o),
(807,1043,o),
(920,1043,cs),
(1054,1043,o),
(1165,995,o),
(1222,905,c),
(1496,1212,l),
(1423,1297,o),
(1346,1353,o),
(1258,1390,cs),
(1169,1425,o),
(1069,1440,o),
(948,1440,cs),
(871,1440,o),
(798,1430,o),
(726,1409,cs),
(584,1367,o),
(459,1291,o),
(358,1185,cs),
(307,1132,o),
(264,1073,o),
(229,1008,cs),
(156,876,o),
(114,726,o),
(114,561,cs),
(114,372,o),
(188,226,o),
(310,125,cs),
(432,23,o),
(599,-30,o),
(793,-30,cs)
);
}
);
width = 1406;
},
{
layerId = "DDFB1734-E0D7-49FC-BA30-BBC7C7BD5F60";
shapes = (
{
closed = 1;
nodes = (
(963,-30,o),
(1108,8,o),
(1242,91,c),
(1192,274,l),
(1080,201,o),
(965,168,o),
(842,168,cs),
(692,168,o),
(576,207,o),
(495,281,cs),
(414,353,o),
(371,456,o),
(371,588,cs),
(371,767,o),
(425,931,o),
(527,1050,cs),
(628,1168,o),
(773,1244,o),
(953,1244,cs),
(1122,1244,o),
(1244,1188,o),
(1320,1093,c),
(1465,1248,l),
(1409,1312,o),
(1340,1361,o),
(1258,1393,cs),
(1175,1424,o),
(1079,1440,o),
(967,1440,cs),
(890,1440,o),
(819,1430,o),
(748,1408,c),
(607,1364,o),
(486,1285,o),
(388,1177,cs),
(338,1122,o),
(297,1063,o),
(262,996,cs),
(191,863,o),
(150,713,o),
(150,553,cs),
(150,374,o),
(215,230,o),
(328,128,cs),
(441,26,o),
(601,-30,o),
(800,-30,cs)
);
}
);
width = 1396;
},
{
layerId = "49A5562C-FB3D-4EE7-BE2B-5FF0A3F25A62";
shapes = (
{
closed = 1;
nodes = (
(947,-30,o),
(1082,2,o),
(1220,88,c),
(1200,161,l),
(1086,83,o),
(971,42,o),
(827,42,cs),
(648,42,o),
(507,90,o),
(410,180,cs),
(310,271,o),
(257,397,o),
(257,560,cs),
(257,779,o),
(324,982,o),
(449,1129,cs),
(575,1276,o),
(752,1369,o),
(972,1369,cs),
(1163,1369,o),
(1293,1310,o),
(1381,1212,c),
(1444,1270,l),
(1399,1322,o),
(1337,1365,o),
(1258,1395,cs),
(1178,1423,o),
(1085,1440,o),
(979,1440,cs),
(902,1440,o),
(831,1430,o),
(761,1407,c),
(622,1361,o),
(502,1282,o),
(407,1171,cs),
(357,1115,o),
(318,1056,o),
(283,988,cs),
(213,854,o),
(173,704,o),
(173,547,cs),
(173,375,o),
(232,232,o),
(340,130,cs),
(447,28,o),
(602,-30,o),
(804,-30,cs)
);
}
);
width = 1390;
}
);
leftKerningGroup = _C2;
rightKerningGroup = _C;
unicode = 67;
},
{
glyphname = D;
layers = (
{
layerId = "EBD03586-66CA-4B27-94EE-9B66F2D0C841";
shapes = (
{
closed = 1;
nodes = (
(644,0,ls),
(886,0,o),
(1090,90,o),
(1241,236,cs),
(1390,382,o),
(1475,585,o),
(1475,818,cs),
(1475,1015,o),
(1401,1160,o),
(1272,1261,cs),
(1142,1361,o),
(967,1410,o),
(757,1410,cs),
(391,1410,l),
(13,0,l)
);
},
{
closed = 1;
nodes = (
(695,1031,l),
(734,1031,ls),
(827,1031,o),
(905,1011,o),
(961,968,cs),
(1016,924,o),
(1044,863,o),
(1044,774,cs),
(1044,662,o),
(1013,565,o),
(948,493,cs),
(884,422,o),
(792,379,o),
(675,379,cs),
(523,379,l)
);
}
);
width = 1480;
},
{
layerId = "DDFB1734-E0D7-49FC-BA30-BBC7C7BD5F60";
shapes = (
{
closed = 1;
nodes = (
(541,0,ls),
(795,0,o),
(1006,83,o),
(1157,229,cs),
(1309,374,o),
(1395,577,o),
(1395,825,cs),
(1395,1022,o),
(1320,1167,o),
(1191,1265,cs),
(1061,1362,o),
(888,1410,o),
(682,1410,cs),
(428,1410,l),
(50,0,l)
);
},
{
closed = 1;
nodes = (
(581,1220,l),
(699,1220,ls),
(848,1220,o),
(969,1181,o),
(1052,1106,cs),
(1137,1031,o),
(1179,927,o),
(1179,796,cs),
(1179,627,o),
(1123,477,o),
(1018,368,cs),
(913,259,o),
(767,189,o),
(590,189,cs),
(305,189,l)
);
}
);
width = 1421;
},
{
layerId = "49A5562C-FB3D-4EE7-BE2B-5FF0A3F25A62";
shapes = (
{
closed = 1;
nodes = (
(475,0,ls),
(739,0,o),
(952,79,o),
(1105,223,cs),
(1259,368,o),
(1342,571,o),
(1342,828,cs),
(1342,1025,o),
(1268,1170,o),
(1139,1267,cs),
(1011,1362,o),
(838,1410,o),
(634,1410,cs),
(451,1410,l),
(74,0,l)
);
},
{
closed = 1;
nodes = (
(508,1339,l),
(676,1339,ls),
(860,1339,o),
(1008,1288,o),
(1111,1193,cs),
(1212,1098,o),
(1265,969,o),
(1265,810,cs),
(1265,605,o),
(1191,422,o),
(1061,289,cs),
(931,155,o),
(751,70,o),
(537,70,cs),
(167,70,l)
);
}
);
width = 1384;
}
);
leftKerningGroup = _B2;
rightKerningGroup = _D;
unicode = 68;
},
{
glyphname = E;
layers = (
{
layerId = "EBD03586-66CA-4B27-94EE-9B66F2D0C841";
shapes = (
{
closed = 1;
nodes = (
(1070,0,l),
(1165,354,l),
(519,354,l),
(572,556,l),
(1096,556,l),
(1182,876,l),
(659,876,l),
(707,1059,l),
(1345,1059,l),
(1440,1410,l),
(395,1410,l),
(17,0,l)
);
}
);
width = 1306;
},
{
layerId = "DDFB1734-E0D7-49FC-BA30-BBC7C7BD5F60";
shapes = (
{
closed = 1;
nodes = (
(957,0,l),
(1004,182,l),
(307,182,l),
(434,651,l),
(1033,651,l),
(1079,824,l),
(479,824,l),
(588,1228,l),
(1279,1228,l),
(1327,1410,l),
(433,1410,l),
(55,0,l)
);
}
);
width = 1218;
},
{
layerId = "49A5562C-FB3D-4EE7-BE2B-5FF0A3F25A62";
shapes = (
{
closed = 1;
nodes = (
(884,0,l),
(903,74,l),
(173,74,l),
(346,712,l),
(994,712,l),
(1014,790,l),
(367,790,l),
(514,1335,l),
(1237,1335,l),
(1256,1410,l),
(457,1410,l),
(80,0,l)
);
}
);
width = 1162;
}
);
leftKerningGroup = _B2;
rightKerningGroup = _E;
unicode = 69;
},
{
glyphname = F;
layers = (
{
layerId = "EBD03586-66CA-4B27-94EE-9B66F2D0C841";
shapes = (
{
closed = 1;
nodes = (
(424,0,l),
(549,469,l),
(1046,469,l),
(1145,824,l),
(647,824,l),
(703,1039,l),
(1263,1039,l),
(1361,1410,l),
(395,1410,l),
(17,0,l)
);
}
);
width = 1216;
},
{
layerId = "DDFB1734-E0D7-49FC-BA30-BBC7C7BD5F60";
shapes = (
{
closed = 1;
nodes = (
(259,0,l),
(423,611,l),
(1018,611,l),
(1068,794,l),
(473,794,l),
(588,1222,l),
(1244,1222,l),
(1292,1410,l),
(433,1410,l),
(55,0,l)
);
}
);
width = 1157;
},
{
layerId = "49A5562C-FB3D-4EE7-BE2B-5FF0A3F25A62";
shapes = (
{
closed = 1;
nodes = (
(155,0,l),
(344,702,l),
(1000,702,l),
(1019,775,l),
(363,775,l),
(516,1338,l),
(1231,1338,l),
(1249,1410,l),
(457,1410,l),
(80,0,l)
);
}
);
width = 1120;
}
);
leftKerningGroup = _B2;
rightKerningGroup = _F;
unicode = 70;
},
{
glyphname = G;
layers = (
{
layerId = "EBD03586-66CA-4B27-94EE-9B66F2D0C841";
shapes = (
{
closed = 1;
nodes = (
(909,-30,o),
(981,-25,o),
(1053,-14,cs),
(1126,-3,o),
(1200,13,o),
(1262,34,c),
(1479,844,l),
(859,844,l),
(772,526,l),
(1040,526,l),
(986,328,l),
(958,324,o),
(931,324,o),
(904,324,cs),
(804,324,o),
(712,349,o),
(644,402,cs),
(577,454,o),
(537,532,o),
(537,632,cs),
(537,762,o),
(578,870,o),
(654,951,cs),
(731,1031,o),
(842,1075,o),
(976,1075,cs),
(1048,1075,o),
(1109,1066,o),
(1164,1049,c),
(1219,1030,o),
(1268,1003,o),
(1313,964,c),
(1552,1257,l),
(1458,1334,o),
(1358,1379,o),
(1262,1407,cs),
(1165,1434,o),
(1070,1440,o),
(989,1440,cs),
(907,1440,o),
(830,1430,o),
(754,1411,cs),
(604,1371,o),
(472,1299,o),
(368,1198,cs),
(314,1147,o),
(270,1090,o),
(233,1029,cs),
(159,903,o),
(116,758,o),
(116,600,cs),
(116,406,o),
(195,249,o),
(325,140,cs),
(455,30,o),
(635,-30,o),
(841,-30,cs)
);
}
);
width = 1512;
},
{
layerId = "DDFB1734-E0D7-49FC-BA30-BBC7C7BD5F60";
shapes = (
{
closed = 1;
nodes = (
(902,-30,o),
(971,-25,o),
(1038,-14,cs),
(1105,-3,o),
(1174,14,o),
(1229,35,c),
(1418,737,l),
(873,737,l),
(826,565,l),
(1186,565,l),
(1083,172,l),
(1032,162,o),
(969,153,o),
(896,153,cs),
(733,153,o),
(600,194,o),
(507,272,cs),
(414,349,o),
(361,461,o),
(361,601,cs),
(361,783,o),
(423,942,o),
(531,1062,cs),
(639,1181,o),
(793,1252,o),
(982,1252,cs),
(1056,1252,o),
(1127,1242,o),
(1196,1219,cs),
(1266,1198,o),
(1325,1166,o),
(1379,1123,c),
(1505,1276,l),
(1440,1335,o),
(1360,1375,o),
(1276,1403,cs),
(1190,1430,o),
(1099,1440,o),
(1009,1440,cs),
(928,1440,o),
(851,1430,o),
(776,1411,cs),
(629,1370,o),
(501,1299,o),
(397,1195,cs),
(345,1143,o),
(301,1086,o),
(265,1023,cs),
(192,896,o),
(151,749,o),
(151,589,cs),
(151,399,o),
(226,246,o),
(350,137,cs),
(474,28,o),
(646,-30,o),
(845,-30,cs)
);
}
);
width = 1504;
},
{
layerId = "49A5562C-FB3D-4EE7-BE2B-5FF0A3F25A62";
shapes = (
{
closed = 1;
nodes = (
(898,-30,o),
(964,-25,o),
(1028,-14,cs),
(1091,-3,o),
(1158,14,o),
(1208,35,c),
(1378,669,l),
(881,669,l),
(859,590,l),
(1278,590,l),
(1145,72,l),
(1079,58,o),
(992,44,o),
(890,44,cs),
(689,44,o),
(531,95,o),
(420,190,cs),
(310,284,o),
(250,417,o),
(250,582,cs),
(250,796,o),
(323,989,o),
(452,1132,cs),
(580,1276,o),
(763,1363,o),
(985,1363,cs),
(1062,1363,o),
(1139,1351,o),
(1217,1327,cs),
(1295,1304,o),
(1362,1270,o),
(1421,1223,c),
(1476,1288,l),
(1428,1335,o),
(1361,1372,o),
(1284,1400,cs),
(1205,1427,o),
(1115,1440,o),
(1021,1440,cs),
(940,1440,o),
(864,1430,o),
(791,1410,cs),
(645,1369,o),
(520,1298,o),
(416,1192,cs),
(364,1140,o),
(320,1083,o),
(286,1019,c),
(213,890,o),
(172,743,o),
(172,582,cs),
(172,395,o),
(245,244,o),
(366,135,cs),
(486,26,o),
(653,-30,o),
(847,-30,cs)
);
}
);
width = 1498;
}
);
leftKerningGroup = _C2;
rightKerningGroup = _G;
unicode = 71;
},
{
glyphname = H;
layers = (
{
layerId = "EBD03586-66CA-4B27-94EE-9B66F2D0C841";
shapes = (
{
closed = 1;
nodes = (
(424,0,l),
(569,542,l),
(1040,542,l),
(895,0,l),
(1302,0,l),
(1680,1410,l),
(1273,1410,l),
(1139,912,l),
(668,912,l),
(801,1410,l),
(395,1410,l),
(17,0,l)
);
}
);
width = 1588;
},
{
layerId = "DDFB1734-E0D7-49FC-BA30-BBC7C7BD5F60";
shapes = (
{
closed = 1;
nodes = (
(260,0,l),
(435,654,l),
(1143,654,l),
(968,0,l),
(1172,0,l),
(1550,1410,l),
(1345,1410,l),
(1192,842,l),
(484,842,l),
(637,1410,l),
(434,1410,l),
(56,0,l)
);
}
);
width = 1482;
},
{
layerId = "49A5562C-FB3D-4EE7-BE2B-5FF0A3F25A62";
shapes = (
{
closed = 1;
nodes = (
(156,0,l),
(350,726,l),
(1208,726,l),
(1014,0,l),
(1089,0,l),
(1467,1410,l),
(1392,1410,l),
(1226,797,l),
(369,797,l),
(534,1410,l),
(458,1410,l),
(81,0,l)
);
}
);
width = 1414;
}
);
leftKerningGroup = _B2;
rightKerningGroup = _H;
unicode = 72;
},
{
glyphname = I;
layers = (
{
layerId = "EBD03586-66CA-4B27-94EE-9B66F2D0C841";
shapes = (
{
closed = 1;
nodes = (
(424,0,l),
(801,1410,l),
(395,1410,l),
(17,0,l)
);
}
);
width = 716;
},
{
layerId = "DDFB1734-E0D7-49FC-BA30-BBC7C7BD5F60";
shapes = (
{
closed = 1;
nodes = (
(260,0,l),
(637,1410,l),
(434,1410,l),
(56,0,l)
);
}
);
width = 576;
},
{
layerId = "49A5562C-FB3D-4EE7-BE2B-5FF0A3F25A62";
shapes = (
{
closed = 1;
nodes = (
(159,0,l),
(537,1410,l),
(455,1410,l),
(78,0,l)
);
}
);
width = 488;
}
);
leftKerningGroup = _B2;
rightKerningGroup = _H;
unicode = 73;
},
{
glyphname = J;
layers = (
{
layerId = "EBD03586-66CA-4B27-94EE-9B66F2D0C841";
shapes = (
{
closed = 1;
nodes = (
(500,-30,o),
(623,16,o),
(721,100,cs),
(818,183,o),
(888,302,o),
(929,451,cs),
(1187,1410,l),
(780,1410,l),
(545,542,ls),
(526,472,o),
(495,421,o),
(459,389,cs),
(422,356,o),
(377,340,o),
(324,340,cs),
(248,340,o),
(173,373,o),
(89,430,c),
(-106,120,l),
(-4,27,o),
(151,-30,o),
(347,-30,cs)
);
}
);
width = 1100;
},
{
layerId = "DDFB1734-E0D7-49FC-BA30-BBC7C7BD5F60";
shapes = (
{
closed = 1;
nodes = (
(409,-30,o),
(517,9,o),
(602,81,cs),
(688,153,o),
(748,256,o),
(785,391,c),
(1058,1410,l),
(855,1410,l),
(587,421,ls),
(561,325,o),
(522,259,o),
(470,217,cs),
(419,176,o),
(353,157,o),
(272,157,cs),
(184,157,o),
(107,184,o),
(35,235,c),
(-75,78,l),
(21,5,o),
(140,-30,o),
(278,-30,cs)
);
}
);
width = 995;
},
{
layerId = "49A5562C-FB3D-4EE7-BE2B-5FF0A3F25A62";
shapes = (
{
closed = 1;
nodes = (
(350,-30,o),
(448,3,o),
(527,68,cs),
(605,134,o),
(664,227,o),
(697,352,cs),
(980,1410,l),
(898,1410,l),
(611,344,l),
(580,233,o),
(538,156,o),
(477,109,cs),
(417,62,o),
(340,46,o),
(241,46,cs),
(146,46,o),
(65,70,o),
(3,116,c),
(-55,50,l),
(37,-10,o),
(133,-30,o),
(234,-30,cs)
);
}
);
width = 929;
}
);
leftKerningGroup = _J2;
rightKerningGroup = _J;
unicode = 74;
},
{
glyphname = K;
layers = (
{
layerId = "EBD03586-66CA-4B27-94EE-9B66F2D0C841";
shapes = (
{
closed = 1;
nodes = (
(424,0,l),
(510,318,l),
(671,455,l),
(904,0,l),
(1405,0,l),
(1003,738,l),
(1716,1410,l),
(1174,1410,l),
(669,930,l),
(801,1410,l),
(395,1410,l),
(17,0,l)
);
}
);
width = 1522;
},
{
layerId = "DDFB1734-E0D7-49FC-BA30-BBC7C7BD5F60";
shapes = (
{
closed = 1;
nodes = (
(260,0,l),
(359,375,l),
(631,619,l),
(944,0,l),
(1193,0,l),
(798,766,l),
(1487,1410,l),
(1222,1410,l),
(443,685,l),
(637,1410,l),
(434,1410,l),
(56,0,l)
);
}
);
width = 1376;
},
{
layerId = "49A5562C-FB3D-4EE7-BE2B-5FF0A3F25A62";
shapes = (
{
closed = 1;
nodes = (
(156,0,l),
(263,409,l),
(606,723,l),
(970,0,l),
(1059,0,l),
(668,782,l),
(1343,1410,l),
(1253,1410,l),
(299,529,l),
(534,1410,l),
(458,1410,l),
(81,0,l)
);
}
);
width = 1284;
}
);
leftKerningGroup = _B2;
rightKerningGroup = _K;
unicode = 75;
},
{
glyphname = L;
layers = (
{
layerId = "EBD03586-66CA-4B27-94EE-9B66F2D0C841";
shapes = (
{
closed = 1;
nodes = (
(958,0,l),
(1058,371,l),
(525,371,l),
(801,1410,l),
(395,1410,l),
(17,0,l)
);
}
);
width = 1150;
},
{
layerId = "DDFB1734-E0D7-49FC-BA30-BBC7C7BD5F60";
shapes = (
{
closed = 1;
nodes = (
(883,0,l),
(933,187,l),
(310,187,l),
(636,1410,l),
(433,1410,l),
(55,0,l)
);
}
);
width = 1083;
},
{
layerId = "49A5562C-FB3D-4EE7-BE2B-5FF0A3F25A62";
shapes = (
{
closed = 1;
nodes = (
(836,0,l),
(855,71,l),
(173,71,l),
(533,1410,l),
(457,1410,l),
(80,0,l)
);
}
);
width = 1040;
}
);
leftKerningGroup = _B2;
rightKerningGroup = _L;
unicode = 76;
},
{
glyphname = M;
layers = (
{
layerId = "EBD03586-66CA-4B27-94EE-9B66F2D0C841";
shapes = (
{
closed = 1;
nodes = (
(390,0,l),
(625,913,l),
(545,910,l),
(753,240,l),
(1018,240,l),
(1525,827,l),
(1471,868,l),
(1231,0,l),
(1624,0,l),
(2002,1410,l),
(1610,1410,l),
(900,573,l),
(1054,534,l),
(790,1410,l),
(395,1410,l),
(17,0,l)
);
}
);
width = 1908;
},
{
layerId = "DDFB1734-E0D7-49FC-BA30-BBC7C7BD5F60";
shapes = (
{
closed = 1;
nodes = (
(243,0,l),
(547,1149,l),
(509,1146,l),
(788,311,l),
(947,311,l),
(1646,1092,l),
(1613,1114,l),
(1314,0,l),
(1513,0,l),
(1891,1410,l),
(1699,1410,l),
(877,473,l),
(950,453,l),
(635,1410,l),
(434,1410,l),
(56,0,l)
);
}
);
width = 1821;
},
{
layerId = "49A5562C-FB3D-4EE7-BE2B-5FF0A3F25A62";
shapes = (
{
closed = 1;
nodes = (
(149,0,l),
(496,1298,l),
(487,1295,l),
(811,357,l),
(901,357,l),
(1723,1261,l),
(1704,1269,l),
(1366,0,l),
(1444,0,l),
(1821,1410,l),
(1755,1410,l),
(862,410,l),
(884,403,l),
(536,1410,l),
(458,1410,l),
(81,0,l)
);
}
);
width = 1766;
}
);
leftKerningGroup = _B2;
rightKerningGroup = _H;
unicode = 77;
},
{
glyphname = N;
layers = (
{
layerId = "EBD03586-66CA-4B27-94EE-9B66F2D0C841";
shapes = (
{
closed = 1;
nodes = (
(410,0,l),
(621,788,l),
(913,0,l),
(1310,0,l),
(1688,1410,l),
(1295,1410,l),
(1084,635,l),
(792,1410,l),
(395,1410,l),
(17,0,l)
);
}
);
width = 1596;
},
{
layerId = "DDFB1734-E0D7-49FC-BA30-BBC7C7BD5F60";
shapes = (
{
closed = 1;
nodes = (
(256,0,l),
(546,1084,l),
(995,0,l),
(1185,0,l),
(1563,1410,l),
(1363,1410,l),
(1074,339,l),
(626,1410,l),
(434,1410,l),
(56,0,l)
);
}
);
width = 1495;
},
{
layerId = "49A5562C-FB3D-4EE7-BE2B-5FF0A3F25A62";
shapes = (
{
closed = 1;
nodes = (
(158,0,l),
(498,1271,l),
(1045,0,l),
(1107,0,l),
(1484,1410,l),
(1407,1410,l),
(1068,151,l),
(521,1410,l),
(458,1410,l),
(81,0,l)
);
}
);
width = 1432;
}
);
leftKerningGroup = _B2;
rightKerningGroup = _H;
unicode = 78;
},
{
glyphname = O;
layers = (
{
layerId = "EBD03586-66CA-4B27-94EE-9B66F2D0C841";
shapes = (
{
closed = 1;
nodes = (
(870,-30,o),
(944,-20,o),
(1016,-1,cs),
(1160,39,o),
(1288,114,o),
(1393,215,cs),
(1445,267,o),
(1490,323,o),
(1528,386,cs),
(1604,509,o),
(1647,655,o),
(1647,810,cs),
(1647,988,o),
(1582,1146,o),
(1463,1259,cs),
(1344,1371,o),
(1172,1440,o),
(963,1440,cs),
(885,1440,o),
(811,1430,o),
(739,1411,cs),
(594,1370,o),
(466,1296,o),
(362,1194,cs),
(310,1143,o),
(265,1086,o),
(228,1024,cs),
(152,898,o),
(109,752,o),
(109,595,cs),
(109,417,o),
(176,260,o),
(295,148,cs),
(414,36,o),
(584,-30,o),
(792,-30,cs)
);
},
{
closed = 1;
nodes = (
(743,350,o),
(670,378,o),
(618,427,cs),
(567,475,o),
(539,546,o),
(539,633,cs),
(539,750,o),
(577,857,o),
(644,934,cs),
(712,1011,o),
(809,1059,o),
(922,1059,cs),
(1014,1059,o),
(1087,1032,o),
(1139,984,cs),
(1190,935,o),
(1219,865,o),
(1219,776,cs),
(1219,719,o),
(1210,664,o),
(1191,612,cs),
(1172,561,o),
(1146,516,o),
(1113,477,cs),
(1045,400,o),
(948,350,o),
(835,350,cs)
);
}
);
width = 1648;
},
{
layerId = "DDFB1734-E0D7-49FC-BA30-BBC7C7BD5F60";
shapes = (
{
closed = 1;
nodes = (
(881,-30,o),
(954,-20,o),
(1024,0,cs),
(1167,40,o),
(1292,116,o),
(1397,220,cs),
(1448,271,o),
(1492,327,o),
(1529,390,cs),
(1604,514,o),
(1647,659,o),
(1647,810,cs),
(1647,988,o),
(1583,1146,o),
(1467,1259,cs),
(1351,1371,o),
(1186,1440,o),
(985,1440,cs),
(909,1440,o),
(836,1430,o),
(765,1411,cs),
(622,1369,o),
(497,1294,o),
(395,1191,cs),
(342,1140,o),
(298,1082,o),
(262,1020,cs),
(187,895,o),
(144,749,o),
(144,595,cs),
(144,418,o),
(210,261,o),
(325,149,cs),
(441,37,o),
(606,-30,o),
(805,-30,cs)
);
},
{
closed = 1;
nodes = (
(691,163,o),
(573,207,o),
(491,286,cs),
(408,364,o),
(359,476,o),
(359,612,cs),
(359,785,o),
(424,942,o),
(533,1059,cs),
(640,1174,o),
(792,1247,o),
(966,1247,cs),
(1106,1247,o),
(1221,1203,o),
(1303,1126,cs),
(1385,1048,o),
(1433,935,o),
(1433,797,c),
(1434,712,o),
(1419,630,o),
(1389,554,cs),
(1357,477,o),
(1315,410,o),
(1261,351,cs),
(1152,237,o),
(1001,163,o),
(828,163,cs)
);
}
);
width = 1668;
},
{
layerId = "49A5562C-FB3D-4EE7-BE2B-5FF0A3F25A62";
shapes = (
{
closed = 1;
nodes = (
(887,-30,o),
(960,-20,o),
(1030,1,c),
(1170,41,o),
(1295,117,o),
(1399,222,cs),
(1450,273,o),
(1493,330,o),
(1530,393,cs),
(1604,517,o),
(1647,661,o),
(1647,810,cs),
(1647,988,o),
(1583,1146,o),
(1469,1259,cs),
(1354,1371,o),
(1194,1440,o),
(1000,1440,cs),
(924,1440,o),
(852,1430,o),
(781,1410,cs),
(640,1368,o),
(517,1292,o),
(414,1188,cs),
(363,1137,o),
(319,1079,o),
(283,1017,cs),
(209,892,o),
(166,747,o),
(166,595,cs),
(166,418,o),
(232,261,o),
(344,149,cs),
(457,37,o),
(619,-30,o),
(812,-30,cs)
);
},
{
closed = 1;
nodes = (
(656,44,o),
(512,100,o),
(410,197,cs),
(307,295,o),
(247,433,o),
(247,599,cs),
(247,807,o),
(327,997,o),
(461,1138,cs),
(594,1278,o),
(782,1365,o),
(993,1365,cs),
(1162,1365,o),
(1305,1311,o),
(1407,1214,cs),
(1508,1118,o),
(1568,979,o),
(1568,811,c),
(1569,708,o),
(1550,609,o),
(1512,517,cs),
(1474,424,o),
(1422,341,o),
(1354,273,cs),
(1220,133,o),
(1034,44,o),
(824,44,cs)
);
}
);
width = 1680;
}
);
leftKerningGroup = _C2;
rightKerningGroup = _D;
unicode = 79;
},
{
glyphname = P;
layers = (
{
layerId = "EBD03586-66CA-4B27-94EE-9B66F2D0C841";
shapes = (
{
closed = 1;
nodes = (
(419,0,l),
(536,435,l),
(811,435,ls),
(988,435,o),
(1143,490,o),
(1256,587,cs),
(1368,684,o),
(1434,822,o),
(1434,995,cs),
(1434,1121,o),
(1384,1225,o),
(1292,1298,cs),
(1199,1370,o),
(1069,1410,o),
(901,1410,cs),
(390,1410,l),
(12,0,l)
);
},
{
closed = 1;
nodes = (
(704,1063,l),
(830,1063,ls),
(886,1063,o),
(933,1058,o),
(967,1041,cs),
(1000,1024,o),
(1019,993,o),
(1019,941,cs),
(1019,892,o),
(1002,851,o),
(973,820,cs),
(943,788,o),
(900,771,o),
(840,771,cs),
(624,771,l)
);
}
);
width = 1352;
},
{
layerId = "DDFB1734-E0D7-49FC-BA30-BBC7C7BD5F60";
shapes = (
{
closed = 1;
nodes = (
(255,0,l),
(403,556,l),
(777,556,ls),
(935,556,o),
(1072,603,o),
(1171,687,cs),
(1270,769,o),
(1328,892,o),
(1328,1044,cs),
(1328,1156,o),
(1285,1248,o),
(1201,1312,cs),
(1118,1375,o),
(999,1410,o),
(846,1410,cs),
(429,1410,l),
(51,0,l)
);
},
{
closed = 1;
nodes = (
(584,1229,l),
(825,1229,ls),
(921,1229,o),
(994,1212,o),
(1044,1176,cs),
(1093,1140,o),
(1120,1084,o),
(1120,1015,cs),
(1120,931,o),
(1087,863,o),
(1033,813,cs),
(979,761,o),
(901,733,o),
(805,733,cs),
(449,733,l)
);
}
);
width = 1260;
},
{
layerId = "49A5562C-FB3D-4EE7-BE2B-5FF0A3F25A62";
shapes = (
{
closed = 1;
nodes = (
(154,0,l),
(322,632,l),
(756,632,ls),
(901,632,o),
(1026,675,o),
(1117,749,cs),
(1206,824,o),
(1260,936,o),
(1260,1074,cs),
(1260,1177,o),
(1221,1261,o),
(1143,1320,cs),
(1065,1378,o),
(955,1410,o),
(812,1410,cs),
(450,1410,l),
(72,0,l)
);
},
{
closed = 1;
nodes = (
(512,1335,l),
(822,1335,ls),
(942,1335,o),
(1032,1309,o),
(1093,1261,cs),
(1153,1212,o),
(1183,1143,o),
(1183,1061,cs),
(1183,957,o),
(1141,870,o),
(1071,807,cs),
(1001,743,o),
(902,709,o),
(782,709,cs),
(342,709,l)
);
}
);
width = 1201;
}
);
leftKerningGroup = _B2;
rightKerningGroup = _P;
unicode = 80;
},
{
glyphname = Q;
layers = (
{
layerId = "EBD03586-66CA-4B27-94EE-9B66F2D0C841";
shapes = (
{
closed = 1;
nodes = (
(884,91,l),
(953,-29,o),
(1109,-158,o),
(1272,-233,c),
(1541,108,l),
(1383,174,o),
(1235,294,o),
(1169,409,c)
);
},
{
closed = 1;
nodes = (
(870,-30,o),
(944,-20,o),
(1016,-1,cs),
(1160,39,o),
(1288,114,o),
(1393,215,cs),
(1445,267,o),
(1490,323,o),
(1528,386,cs),
(1604,509,o),
(1647,655,o),
(1647,810,cs),
(1647,988,o),
(1582,1146,o),
(1463,1259,cs),
(1344,1371,o),
(1172,1440,o),
(963,1440,cs),
(885,1440,o),
(811,1430,o),
(739,1411,cs),
(594,1370,o),
(466,1296,o),
(362,1194,cs),
(310,1143,o),
(265,1086,o),
(228,1024,cs),
(152,898,o),
(109,752,o),
(109,595,cs),
(109,417,o),
(176,260,o),
(295,148,cs),
(414,36,o),
(584,-30,o),
(792,-30,cs)
);
},
{
closed = 1;
nodes = (
(743,350,o),
(670,378,o),
(618,427,cs),
(567,475,o),
(539,546,o),
(539,633,cs),
(539,750,o),
(577,857,o),
(644,934,cs),
(712,1011,o),
(809,1059,o),
(922,1059,cs),
(1014,1059,o),
(1087,1032,o),
(1139,984,cs),
(1190,935,o),
(1219,865,o),
(1219,776,cs),
(1219,719,o),
(1210,664,o),
(1191,612,cs),
(1172,561,o),
(1146,516,o),
(1113,477,cs),
(1045,400,o),
(948,350,o),
(835,350,cs)
);
}
);
width = 1648;
},
{
layerId = "DDFB1734-E0D7-49FC-BA30-BBC7C7BD5F60";
shapes = (
{
closed = 1;
nodes = (
(962,51,l),
(1055,-68,o),
(1171,-158,o),
(1349,-247,c),
(1486,-75,l),
(1314,5,o),
(1204,87,o),
(1116,201,c)
);
},
{
closed = 1;
nodes = (
(881,-30,o),
(954,-20,o),
(1024,0,cs),
(1167,40,o),
(1292,116,o),
(1397,220,cs),
(1448,271,o),
(1492,327,o),
(1529,390,cs),
(1604,514,o),
(1647,659,o),
(1647,810,cs),
(1647,988,o),
(1583,1146,o),
(1467,1259,cs),
(1351,1371,o),
(1186,1440,o),
(985,1440,cs),
(909,1440,o),
(836,1430,o),
(765,1411,cs),
(622,1369,o),
(497,1294,o),
(395,1191,cs),
(342,1140,o),
(298,1082,o),
(262,1020,cs),
(187,895,o),
(144,749,o),
(144,595,cs),
(144,418,o),
(210,261,o),
(325,149,cs),
(441,37,o),
(606,-30,o),
(805,-30,cs)
);
},
{
closed = 1;
nodes = (
(691,163,o),
(573,207,o),
(491,286,cs),
(408,364,o),
(359,476,o),
(359,612,cs),
(359,785,o),
(424,942,o),
(533,1059,cs),
(640,1174,o),
(792,1247,o),
(966,1247,cs),
(1106,1247,o),
(1221,1203,o),
(1303,1126,cs),
(1385,1048,o),
(1433,935,o),
(1433,797,c),
(1434,712,o),
(1419,630,o),
(1389,554,cs),
(1357,477,o),
(1315,410,o),
(1261,351,cs),
(1152,237,o),
(1001,163,o),
(828,163,cs)
);
}
);
width = 1668;
},
{
layerId = "49A5562C-FB3D-4EE7-BE2B-5FF0A3F25A62";
shapes = (
{
closed = 1;
nodes = (
(1011,26,l),
(1120,-94,o),
(1210,-158,o),
(1399,-256,c),
(1452,-189,l),
(1271,-103,o),
(1185,-44,o),
(1081,70,c)
);
},
{
closed = 1;
nodes = (
(887,-30,o),
(960,-20,o),
(1030,1,c),
(1170,41,o),
(1295,117,o),
(1399,222,cs),
(1450,273,o),
(1493,330,o),
(1530,393,cs),
(1604,517,o),
(1647,661,o),
(1647,810,cs),
(1647,988,o),
(1583,1146,o),
(1469,1259,cs),
(1354,1371,o),
(1194,1440,o),
(1000,1440,cs),
(924,1440,o),
(852,1430,o),
(781,1410,cs),
(640,1368,o),
(517,1292,o),
(414,1188,cs),
(363,1137,o),
(319,1079,o),
(283,1017,cs),
(209,892,o),
(166,747,o),
(166,595,cs),
(166,418,o),
(232,261,o),
(344,149,cs),
(457,37,o),
(619,-30,o),
(812,-30,cs)
);
},
{
closed = 1;
nodes = (
(656,44,o),
(512,100,o),
(410,197,cs),
(307,295,o),
(247,433,o),
(247,599,cs),
(247,807,o),
(327,997,o),
(461,1138,cs),
(594,1278,o),
(782,1365,o),
(993,1365,cs),
(1162,1365,o),
(1305,1311,o),
(1407,1214,cs),
(1508,1118,o),
(1568,979,o),
(1568,811,c),
(1569,708,o),
(1550,609,o),
(1512,517,cs),
(1474,424,o),
(1422,341,o),
(1354,273,cs),
(1220,133,o),
(1034,44,o),
(824,44,cs)
);
}
);
width = 1680;
}
);
leftKerningGroup = _C2;
unicode = 81;
},
{
glyphname = R;
layers = (
{
layerId = "EBD03586-66CA-4B27-94EE-9B66F2D0C841";
shapes = (
{
closed = 1;
nodes = (
(424,0,l),
(554,485,l),
(632,485,l),
(786,0,l),
(1248,0,l),
(1040,553,l),
(1158,585,o),
(1255,648,o),
(1324,732,cs),
(1394,816,o),
(1433,916,o),
(1433,1029,cs),
(1433,1147,o),
(1385,1241,o),
(1297,1308,cs),
(1208,1375,o),
(1079,1410,o),
(910,1410,cs),
(395,1410,l),
(17,0,l)
);
},
{
closed = 1;
nodes = (
(715,1079,l),
(825,1079,ls),
(885,1079,o),
(930,1073,o),
(963,1056,cs),
(995,1039,o),
(1012,1010,o),
(1012,967,cs),
(1012,917,o),
(996,876,o),
(965,849,cs),
(933,822,o),
(888,806,o),
(839,806,cs),
(640,806,l)
);
}
);
width = 1410;
},
{
layerId = "DDFB1734-E0D7-49FC-BA30-BBC7C7BD5F60";
shapes = (
{
closed = 1;
nodes = (
(260,0,l),
(415,578,l),
(620,578,l),
(881,0,l),
(1118,0,l),
(840,596,l),
(977,612,o),
(1098,664,o),
(1186,742,cs),
(1275,821,o),
(1326,928,o),
(1326,1058,cs),
(1326,1165,o),
(1287,1252,o),
(1212,1315,cs),
(1137,1376,o),
(1027,1410,o),
(879,1410,cs),
(434,1410,l),
(56,0,l)
);
},
{
closed = 1;
nodes = (
(592,1234,l),
(837,1234,ls),
(934,1234,o),
(1003,1215,o),
(1049,1182,cs),
(1096,1148,o),
(1118,1098,o),
(1118,1034,cs),
(1118,948,o),
(1085,876,o),
(1030,828,cs),
(976,779,o),
(895,750,o),
(805,750,cs),
(461,750,l)
);
}
);
width = 1322;
},
{
layerId = "49A5562C-FB3D-4EE7-BE2B-5FF0A3F25A62";
shapes = (
{
closed = 1;
nodes = (
(159,0,l),
(330,637,l),
(612,637,l),
(940,0,l),
(1036,0,l),
(712,624,l),
(862,628,o),
(998,673,o),
(1099,748,cs),
(1199,824,o),
(1258,935,o),
(1258,1077,cs),
(1258,1175,o),
(1223,1259,o),
(1158,1318,cs),
(1090,1377,o),
(993,1410,o),
(860,1410,cs),
(455,1410,l),
(78,0,l)
);
},
{
closed = 1;
nodes = (
(517,1332,l),
(844,1332,ls),
(965,1332,o),
(1049,1306,o),
(1104,1261,cs),
(1159,1216,o),
(1184,1153,o),
(1184,1075,cs),
(1184,968,o),
(1142,876,o),
(1071,815,cs),
(1001,752,o),
(899,716,o),
(782,716,cs),
(350,716,l)
);
}
);
width = 1266;
}
);
leftKerningGroup = _B2;
rightKerningGroup = _R;
unicode = 82;
},
{
glyphname = S;
layers = (
{
layerId = "EBD03586-66CA-4B27-94EE-9B66F2D0C841";
shapes = (
{
closed = 1;
nodes = (
(772,-30,o),
(927,18,o),
(1041,112,c),
(1157,202,o),
(1232,330,o),
(1232,489,cs),
(1232,651,o),
(1122,761,o),
(894,856,cs),
(794,897,ls),
(739,920,o),
(702,937,o),
(680,952,c),
(658,970,o),
(649,984,o),
(649,1005,cs),
(649,1029,o),
(667,1052,o),
(696,1070,c),
(726,1084,o),
(762,1089,o),
(814,1089,cs),
(880,1089,o),
(945,1077,o),
(1007,1050,c),
(1065,1022,o),
(1114,986,o),
(1145,940,c),
(1408,1221,l),
(1356,1287,o),
(1277,1341,o),
(1178,1380,cs),
(1081,1421,o),
(962,1440,o),
(838,1440,cs),
(685,1440,o),
(535,1390,o),
(420,1299,cs),
(307,1211,o),
(237,1080,o),
(237,925,cs),
(237,847,o),
(262,780,o),
(314,717,c),
(366,650,o),
(447,597,o),
(561,555,c),
(653,520,l),
(711,498,o),
(747,479,o),
(773,460,c),
(794,441,o),
(810,420,o),
(810,399,cs),
(810,371,o),
(790,350,o),
(764,336,c),
(736,323,o),
(694,315,o),
(650,315,cs),
(576,315,o),
(495,336,o),
(423,366,c),
(349,400,o),
(285,439,o),
(247,490,c),
(-10,203,l),
(54,131,o),
(149,71,o),
(255,33,c),
(359,-7,o),
(483,-30,o),
(605,-30,cs)
);
}
);
width = 1300;
},
{
layerId = "DDFB1734-E0D7-49FC-BA30-BBC7C7BD5F60";
shapes = (
{
closed = 1;
nodes = (
(730,-30,o),
(865,13,o),
(964,95,cs),
(1063,175,o),
(1127,290,o),
(1127,437,cs),
(1127,584,o),
(1033,683,o),
(844,762,c),
(702,819,l),
(620,853,o),
(566,884,o),
(532,916,cs),
(496,950,o),
(483,984,o),
(483,1025,cs),
(483,1098,o),
(516,1158,o),
(572,1201,cs),
(628,1243,o),
(704,1265,o),
(793,1265,cs),
(867,1265,o),
(935,1254,o),
(1002,1228,cs),
(1067,1203,o),
(1121,1169,o),
(1162,1124,c),
(1299,1267,l),
(1251,1319,o),
(1184,1361,o),
(1105,1393,cs),
(1024,1424,o),
(929,1440,o),
(825,1440,cs),
(680,1440,o),
(545,1397,o),
(445,1316,cs),
(345,1236,o),
(284,1123,o),
(284,981,cs),
(284,909,o),
(307,849,o),
(354,795,cs),
(401,741,o),
(472,696,o),
(571,655,cs),
(701,603,l),
(783,571,o),
(838,537,o),
(874,502,c),
(908,468,o),
(925,430,o),
(925,389,cs),
(925,312,o),
(889,252,o),
(833,210,cs),
(776,169,o),
(696,147,o),
(603,147,cs),
(519,147,o),
(438,163,o),
(366,189,cs),
(292,216,o),
(230,256,o),
(181,302,c),
(45,156,l),
(102,99,o),
(184,51,o),
(277,20,c),
(370,-12,o),
(473,-30,o),
(578,-30,cs)
);
}
);
width = 1253;
},
{
layerId = "49A5562C-FB3D-4EE7-BE2B-5FF0A3F25A62";
shapes = (
{
closed = 1;
nodes = (
(705,-30,o),
(828,10,o),
(917,85,cs),
(1007,159,o),
(1063,266,o),
(1063,406,cs),
(1063,544,o),
(980,635,o),
(814,706,c),
(646,771,l),
(549,813,o),
(484,852,o),
(443,895,c),
(400,937,o),
(384,984,o),
(384,1037,cs),
(384,1139,o),
(425,1221,o),
(497,1280,cs),
(570,1337,o),
(669,1369,o),
(781,1369,cs),
(859,1369,o),
(929,1359,o),
(999,1335,cs),
(1068,1312,o),
(1125,1279,o),
(1172,1233,c),
(1233,1294,l),
(1187,1338,o),
(1129,1373,o),
(1060,1400,c),
(990,1426,o),
(910,1440,o),
(817,1440,cs),
(677,1440,o),
(551,1401,o),
(460,1326,cs),
(369,1252,o),
(312,1148,o),
(312,1014,cs),
(312,946,o),
(334,890,o),
(379,843,cs),
(422,795,o),
(487,755,o),
(577,716,c),
(729,653,ls),
(827,614,o),
(892,571,o),
(934,528,cs),
(977,484,o),
(995,436,o),
(995,383,cs),
(995,277,o),
(948,192,o),
(874,135,cs),
(800,77,o),
(697,46,o),
(575,46,cs),
(484,46,o),
(404,59,o),
(331,84,c),
(258,107,o),
(196,146,o),
(142,189,c),
(79,128,l),
(130,80,o),
(205,39,o),
(290,12,cs),
(376,-15,o),
(467,-30,o),
(562,-30,cs)
);
}
);
width = 1225;
}
);
leftKerningGroup = _S2;
rightKerningGroup = _S;
unicode = 83;
},
{
glyphname = T;
layers = (
{
layerId = "EBD03586-66CA-4B27-94EE-9B66F2D0C841";
shapes = (
{
closed = 1;
nodes = (
(662,0,l),
(940,1039,l),
(1303,1039,l),
(1402,1410,l),
(268,1410,l),
(169,1039,l),
(532,1039,l),
(253,0,l)
);
}
);
width = 1186;
},
{
layerId = "DDFB1734-E0D7-49FC-BA30-BBC7C7BD5F60";
shapes = (
{
closed = 1;
nodes = (
(531,0,l),
(860,1222,l),
(1261,1222,l),
(1309,1410,l),
(303,1410,l),
(255,1222,l),
(655,1222,l),
(326,0,l)
);
}
);
width = 1115;
},
{
layerId = "49A5562C-FB3D-4EE7-BE2B-5FF0A3F25A62";
shapes = (
{
closed = 1;
nodes = (
(448,0,l),
(808,1338,l),
(1232,1338,l),
(1250,1410,l),
(325,1410,l),
(308,1338,l),
(733,1338,l),
(373,0,l)
);
}
);
width = 1069;
}
);
leftKerningGroup = _T2;
rightKerningGroup = _T;
unicode = 84;
},
{
glyphname = U;
layers = (
{
layerId = "EBD03586-66CA-4B27-94EE-9B66F2D0C841";
shapes = (
{
closed = 1;
nodes = (
(888,-30,o),
(1042,28,o),
(1164,137,cs),
(1286,246,o),
(1371,402,o),
(1424,600,cs),
(1641,1410,l),
(1232,1410,l),
(1008,578,ls),
(985,497,o),
(951,440,o),
(905,404,cs),
(860,368,o),
(806,350,o),
(741,350,cs),
(661,350,o),
(609,370,o),
(581,409,cs),
(553,448,o),
(550,501,o),
(571,578,cs),
(795,1410,l),
(389,1410,l),
(171,600,ls),
(118,399,o),
(149,244,o),
(245,135,cs),
(340,26,o),
(496,-30,o),
(702,-30,cs)
);
}
);
width = 1542;
},
{
layerId = "DDFB1734-E0D7-49FC-BA30-BBC7C7BD5F60";
shapes = (
{
closed = 1;
nodes = (
(833,-30,o),
(975,28,o),
(1085,129,cs),
(1195,229,o),
(1274,372,o),
(1318,544,c),
(1552,1410,l),
(1347,1410,l),
(1116,549,l),
(1078,414,o),
(1021,317,o),
(947,256,cs),
(874,192,o),
(785,163,o),
(684,163,cs),
(555,163,o),
(468,199,o),
(420,267,cs),
(372,334,o),
(364,427,o),
(399,549,c),
(630,1410,l),
(426,1410,l),
(192,544,ls),
(146,371,o),
(172,228,o),
(257,128,cs),
(341,27,o),
(477,-30,o),
(664,-30,cs)
);
}
);
width = 1473;
},
{
layerId = "49A5562C-FB3D-4EE7-BE2B-5FF0A3F25A62";
shapes = (
{
closed = 1;
nodes = (
(797,-30,o),
(931,27,o),
(1035,123,cs),
(1139,218,o),
(1211,352,o),
(1252,508,c),
(1495,1410,l),
(1420,1410,l),
(1184,530,l),
(1138,360,o),
(1065,240,o),
(975,161,cs),
(883,83,o),
(772,44,o),
(646,44,cs),
(486,44,o),
(378,92,o),
(317,176,cs),
(257,262,o),
(247,380,o),
(289,530,c),
(525,1410,l),
(449,1410,l),
(205,508,ls),
(164,351,o),
(187,217,o),
(264,122,cs),
(341,27,o),
(465,-30,o),
(638,-30,cs)
);
}
);
width = 1430;
}
);
leftKerningGroup = _U;
rightKerningGroup = _J;
unicode = 85;
},
{
glyphname = V;
layers = (
{
layerId = "EBD03586-66CA-4B27-94EE-9B66F2D0C841";
shapes = (
{
closed = 1;
nodes = (
(812,0,l),
(1709,1410,l),
(1229,1410,l),
(708,526,l),
(667,1410,l),
(218,1410,l),
(340,0,l)
);
}
);
width = 1440;
},
{
layerId = "DDFB1734-E0D7-49FC-BA30-BBC7C7BD5F60";
shapes = (
{
closed = 1;
nodes = (
(634,0,l),
(1551,1410,l),
(1314,1410,l),
(600,282,l),
(484,1410,l),
(263,1410,l),
(422,0,l)
);
}
);
width = 1311;
},
{
layerId = "49A5562C-FB3D-4EE7-BE2B-5FF0A3F25A62";
shapes = (
{
closed = 1;
nodes = (
(522,0,l),
(1451,1410,l),
(1367,1410,l),
(532,128,l),
(370,1410,l),
(291,1410,l),
(474,0,l)
);
}
);
width = 1230;
}
);
leftKerningGroup = _V2;
rightKerningGroup = _V;
unicode = 86;
},
{
glyphname = W;
layers = (
{
layerId = "EBD03586-66CA-4B27-94EE-9B66F2D0C841";
shapes = (
{
closed = 1;
nodes = (
(696,0,l),
(1138,798,l),
(1141,0,l),
(1529,0,l),
(2336,1410,l),
(1907,1410,l),
(1509,645,l),
(1502,1410,l),
(1101,1410,l),
(662,635,l),
(673,1410,l),
(262,1410,l),
(311,0,l)
);
}
);
width = 2104;
},
{
layerId = "DDFB1734-E0D7-49FC-BA30-BBC7C7BD5F60";
shapes = (
{
closed = 1;
nodes = (
(563,0,l),
(1190,1095,l),
(1218,0,l),
(1441,0,l),
(2241,1410,l),
(2021,1410,l),
(1404,286,l),
(1379,1410,l),
(1161,1410,l),
(523,277,l),
(509,1410,l),
(298,1410,l),
(343,0,l)
);
}
);
width = 2031;
},
{
layerId = "49A5562C-FB3D-4EE7-BE2B-5FF0A3F25A62";
shapes = (
{
closed = 1;
nodes = (
(478,0,l),
(1223,1282,l),
(1268,0,l),
(1384,0,l),
(2181,1410,l),
(2092,1410,l),
(1335,58,l),
(1301,1410,l),
(1199,1410,l),
(435,51,l),
(406,1410,l),
(321,1410,l),
(362,0,l)
);
}
);
width = 1985;
}
);
leftKerningGroup = _V2;
rightKerningGroup = _V;
unicode = 87;
},
{
glyphname = X;
layers = (
{
layerId = "EBD03586-66CA-4B27-94EE-9B66F2D0C841";
shapes = (
{
closed = 1;
nodes = (
(384,0,l),
(695,405,l),
(810,0,l),
(1282,0,l),
(1054,684,l),
(1663,1410,l),
(1152,1410,l),
(853,1030,l),
(743,1410,l),
(272,1410,l),
(495,741,l),
(-130,0,l)
);
}
);
width = 1424;
},
{
layerId = "DDFB1734-E0D7-49FC-BA30-BBC7C7BD5F60";
shapes = (
{
closed = 1;
nodes = (
(178,0,l),
(689,573,l),
(916,0,l),
(1150,0,l),
(865,706,l),
(1516,1410,l),
(1266,1410,l),
(762,875,l),
(564,1410,l),
(331,1410,l),
(585,739,l),
(-75,0,l)
);
}
);
width = 1332;
},
{
layerId = "49A5562C-FB3D-4EE7-BE2B-5FF0A3F25A62";
shapes = (
{
closed = 1;
nodes = (
(47,0,l),
(685,679,l),
(983,0,l),
(1066,0,l),
(746,721,l),
(1423,1410,l),
(1338,1410,l),
(706,777,l),
(450,1410,l),
(369,1410,l),
(641,737,l),
(-40,0,l)
);
}
);
width = 1273;
}
);
leftKerningGroup = _X2;
rightKerningGroup = _X;
unicode = 88;
},
{
glyphname = Y;
layers = (
{
layerId = "EBD03586-66CA-4B27-94EE-9B66F2D0C841";
shapes = (
{
closed = 1;
nodes = (
(730,0,l),
(882,568,l),
(1605,1410,l),
(1134,1410,l),
(772,974,l),
(652,1410,l),
(222,1410,l),
(473,576,l),
(321,0,l)
);
}
);
width = 1342;
},
{
layerId = "DDFB1734-E0D7-49FC-BA30-BBC7C7BD5F60";
shapes = (
{
closed = 1;
nodes = (
(586,0,l),
(748,611,l),
(1464,1410,l),
(1221,1410,l),
(695,816,l),
(488,1410,l),
(265,1410,l),
(544,612,l),
(382,0,l)
);
}
);
width = 1229;
},
{
layerId = "49A5562C-FB3D-4EE7-BE2B-5FF0A3F25A62";
shapes = (
{
closed = 1;
nodes = (
(494,0,l),
(664,638,l),
(1375,1410,l),
(1277,1410,l),
(644,715,l),
(385,1410,l),
(293,1410,l),
(588,635,l),
(419,0,l)
);
}
);
width = 1157;
}
);
leftKerningGroup = _Y2;
rightKerningGroup = _Y;
unicode = 89;
},
{
glyphname = Z;
layers = (
{
layerId = "EBD03586-66CA-4B27-94EE-9B66F2D0C841";
shapes = (
{
closed = 1;
nodes = (
(992,0,l),
(1092,371,l),
(548,371,l),
(1276,1068,l),
(1365,1410,l),
(332,1410,l),
(234,1039,l),
(750,1039,l),
(21,341,l),
(-69,0,l)
);
}
);
width = 1190;
},
{
layerId = "DDFB1734-E0D7-49FC-BA30-BBC7C7BD5F60";
shapes = (
{
closed = 1;
nodes = (
(956,0,l),
(1006,187,l),
(270,187,l),
(1282,1234,l),
(1326,1410,l),
(363,1410,l),
(315,1222,l),
(1022,1222,l),
(9,175,l),
(-37,0,l)
);
}
);
width = 1166;
},
{
layerId = "49A5562C-FB3D-4EE7-BE2B-5FF0A3F25A62";
shapes = (
{
closed = 1;
nodes = (
(932,0,l),
(951,71,l),
(95,71,l),
(1285,1340,l),
(1301,1410,l),
(383,1410,l),
(366,1338,l),
(1193,1338,l),
(1,69,l),
(-16,0,l)
);
}
);
width = 1151;
}
);
leftKerningGroup = _Z2;
rightKerningGroup = _Z;
unicode = 90;
},
{
glyphname = bracketleft;
layers = (
{
layerId = "EBD03586-66CA-4B27-94EE-9B66F2D0C841";
shapes = (
{
closed = 1;
nodes = (
(454,-220,l),
(527,46,l),
(327,46,l),
(671,1334,l),
(871,1334,l),
(945,1600,l),
(429,1600,l),
(-62,-220,l)
);
}
);
width = 732;
},
{
layerId = "DDFB1734-E0D7-49FC-BA30-BBC7C7BD5F60";
shapes = (
{
closed = 1;
nodes = (
(369,-220,l),
(408,-73,l),
(202,-73,l),
(614,1453,l),
(819,1453,l),
(860,1600,l),
(489,1600,l),
(-2,-220,l)
);
}
);
width = 686;
},
{
layerId = "49A5562C-FB3D-4EE7-BE2B-5FF0A3F25A62";
shapes = (
{
closed = 1;
nodes = (
(315,-220,l),
(333,-148,l),
(124,-148,l),
(577,1528,l),
(786,1528,l),
(806,1600,l),
(527,1600,l),
(36,-220,l)
);
}
);
width = 657;
}
);
leftKerningGroup = _bar2;
rightKerningGroup = _parenleft;
unicode = 91;
},
{
glyphname = backslash;
layers = (
{
layerId = "EBD03586-66CA-4B27-94EE-9B66F2D0C841";
shapes = (
{
closed = 1;
nodes = (
(826,-177,l),
(578,1610,l),
(218,1563,l),
(466,-230,l)
);
}
);
width = 948;
},
{
layerId = "DDFB1734-E0D7-49FC-BA30-BBC7C7BD5F60";
shapes = (
{
closed = 1;
nodes = (
(736,-202,l),
(470,1610,l),
(285,1585,l),
(551,-230,l)
);
}
);
width = 909;
},
{
layerId = "49A5562C-FB3D-4EE7-BE2B-5FF0A3F25A62";
shapes = (
{
closed = 1;
nodes = (
(680,-218,l),
(401,1610,l),
(326,1598,l),
(605,-230,l)
);
}
);
width = 884;
}
);
unicode = 92;
},
{
glyphname = bracketright;
layers = (
{
layerId = "EBD03586-66CA-4B27-94EE-9B66F2D0C841";
shapes = (
{
closed = 1;
nodes = (
(887,1600,l),
(371,1600,l),
(299,1334,l),
(499,1334,l),
(151,46,l),
(-49,46,l),
(-118,-220,l),
(398,-220,l)
);
}
);
width = 732;
},
{
layerId = "DDFB1734-E0D7-49FC-BA30-BBC7C7BD5F60";
shapes = (
{
closed = 1;
nodes = (
(796,1600,l),
(425,1600,l),
(383,1453,l),
(589,1453,l),
(180,-73,l),
(-26,-73,l),
(-64,-220,l),
(307,-220,l)
);
}
);
width = 686;
},
{
layerId = "49A5562C-FB3D-4EE7-BE2B-5FF0A3F25A62";
shapes = (
{
closed = 1;
nodes = (
(737,1600,l),
(459,1600,l),
(436,1528,l),
(645,1528,l),
(198,-148,l),
(-11,-148,l),
(-30,-220,l),
(248,-220,l)
);
}
);
width = 657;
}
);
leftKerningGroup = _parenright;
rightKerningGroup = _bar;
unicode = 93;
},
{
glyphname = asciicircum;
layers = (
{
layerId = "EBD03586-66CA-4B27-94EE-9B66F2D0C841";
shapes = (
{
closed = 1;
nodes = (
(562,787,l),
(841,1135,l),
(924,787,l),
(1246,787,l),
(1080,1410,l),
(717,1410,l),
(202,787,l)
);
}
);
width = 1296;
},
{
layerId = "DDFB1734-E0D7-49FC-BA30-BBC7C7BD5F60";
shapes = (
{
closed = 1;
nodes = (
(485,836,l),
(868,1263,l),
(1022,836,l),
(1203,836,l),
(997,1410,l),
(800,1410,l),
(286,836,l)
);
}
);
width = 1296;
},
{
layerId = "49A5562C-FB3D-4EE7-BE2B-5FF0A3F25A62";
shapes = (
{
closed = 1;
nodes = (
(438,866,l),
(884,1343,l),
(1083,866,l),
(1176,866,l),
(944,1410,l),
(853,1410,l),
(338,866,l)
);
}
);
width = 1296;
}
);
leftKerningGroup = _plus2;
rightKerningGroup = _plus;
unicode = 94;
},
{
glyphname = underscore;
layers = (
{
layerId = "EBD03586-66CA-4B27-94EE-9B66F2D0C841";
shapes = (
{
closed = 1;
nodes = (
(869,-408,l),
(956,-92,l),
(-144,-92,l),
(-231,-408,l)
);
}
);
width = 1140;
},
{
layerId = "DDFB1734-E0D7-49FC-BA30-BBC7C7BD5F60";
shapes = (
{
closed = 1;
nodes = (
(838,-320,l),
(883,-161,l),
(-148,-161,l),
(-192,-320,l)
);
}
);
width = 1084;
},
{
layerId = "49A5562C-FB3D-4EE7-BE2B-5FF0A3F25A62";
shapes = (
{
closed = 1;
nodes = (
(819,-264,l),
(836,-204,l),
(-150,-204,l),
(-167,-264,l)
);
}
);
width = 1049;
}
);
unicode = 95;
},
{
glyphname = a;
layers = (
{
layerId = "EBD03586-66CA-4B27-94EE-9B66F2D0C841";
shapes = (
{
closed = 1;
nodes = (
(530,-30,o),
(652,32,o),
(729,178,c),
(652,214,l),
(652,194,ls),
(652,42,o),
(854,-31,o),
(976,-31,cs),
(990,-31,o),
(1021,-30,o),
(1035,-29,c),
(1115,217,l),
(1112,217,o),
(1110,217,o),
(1110,217,cs),
(1047,217,o),
(1022,257,o),
(1041,324,cs),
(1103,538,ls),
(1210,908,o),
(968,1070,o),
(627,1070,cs),
(468,1070,o),
(329,1039,o),
(212,967,c),
(258,696,l),
(328,748,o),
(455,774,o),
(540,774,cs),
(651,774,o),
(780,748,o),
(740,605,cs),
(681,402,ls),
(654,312,o),
(577,246,o),
(481,246,cs),
(437,246,o),
(365,265,o),
(365,321,cs),
(365,395,o),
(483,423,o),
(542,429,cs),
(603,435,o),
(665,435,o),
(733,426,c),
(797,648,l),
(713,656,o),
(636,659,o),
(542,656,cs),
(308,647,o),
(-7,562,o),
(-7,277,cs),
(-7,84,o),
(133,-30,o),
(320,-30,cs)
);
}
);
width = 1204;
},
{
layerId = "DDFB1734-E0D7-49FC-BA30-BBC7C7BD5F60";
shapes = (
{
closed = 1;
nodes = (
(530,-30,o),
(664,28,o),
(751,167,c),
(737,237,l),
(734,219,ls),
(705,67,o),
(799,-33,o),
(956,-33,cs),
(966,-33,o),
(979,-33,o),
(990,-32,c),
(1042,124,l),
(1038,123,o),
(1023,122,o),
(1013,122,cs),
(920,122,o),
(926,219,o),
(947,292,cs),
(1036,605,l),
(1124,910,o),
(940,1070,o),
(646,1070,cs),
(505,1070,o),
(378,1037,o),
(263,961,c),
(287,801,l),
(372,860,o),
(498,900,o),
(602,900,cs),
(777,900,o),
(893,808,o),
(839,623,cs),
(770,386,ls),
(726,236,o),
(574,134,o),
(420,134,cs),
(324,134,o),
(222,178,o),
(222,288,cs),
(222,456,o),
(442,486,o),
(570,491,cs),
(659,494,o),
(756,488,o),
(846,476,c),
(882,612,l),
(808,622,o),
(738,628,o),
(672,629,c),
(422,637,o),
(25,590,o),
(25,261,cs),
(25,63,o),
(170,-30,o),
(355,-30,cs)
);
}
);
width = 1156;
},
{
layerId = "49A5562C-FB3D-4EE7-BE2B-5FF0A3F25A62";
shapes = (
{
closed = 1;
nodes = (
(530,-30,o),
(671,25,o),
(766,160,c),
(791,252,l),
(786,234,l),
(738,82,o),
(764,-34,o),
(943,-34,cs),
(950,-34,o),
(951,-35,o),
(961,-34,c),
(996,65,l),
(991,64,o),
(968,62,o),
(952,62,cs),
(839,62,o),
(865,194,o),
(887,271,cs),
(993,648,l),
(1069,911,o),
(921,1070,o),
(658,1070,cs),
(528,1070,o),
(408,1035,o),
(295,957,c),
(306,866,l),
(400,931,o),
(526,980,o),
(641,980,cs),
(857,980,o),
(964,846,o),
(901,633,cs),
(826,376,ls),
(772,189,o),
(571,62,o),
(381,62,cs),
(252,62,o),
(132,122,o),
(132,267,cs),
(132,494,o),
(417,525,o),
(588,530,c),
(693,531,o),
(814,521,o),
(918,507,c),
(936,589,l),
(868,601,o),
(802,607,o),
(754,611,cs),
(494,631,o),
(44,606,o),
(44,251,cs),
(44,48,o),
(193,-30,o),
(377,-30,cs)
);
}
);
width = 1126;
}
);
leftKerningGroup = _a2;
rightKerningGroup = _a;
unicode = 97;
},
{
glyphname = b;
layers = (
{
layerId = "EBD03586-66CA-4B27-94EE-9B66F2D0C841";
shapes = (
{
closed = 1;
nodes = (
(901,-30,o),
(1048,46,o),
(1153,165,cs),
(1258,284,o),
(1319,443,o),
(1319,616,cs),
(1319,749,o),
(1277,863,o),
(1197,943,cs),
(1117,1023,o),
(1003,1070,o),
(862,1070,cs),
(797,1070,o),
(742,1059,o),
(689,1035,cs),
(636,1011,o),
(587,976,o),
(531,924,c),
(601,808,l),
(776,1460,l),
(365,1420,l),
(-16,0,l),
(324,0,l),
(401,280,l),
(322,223,l),
(335,147,o),
(386,84,o),
(458,40,cs),
(530,-4,o),
(623,-30,o),
(724,-30,cs)
);
},
{
closed = 1;
nodes = (
(644,311,o),
(601,326,o),
(569,357,cs),
(537,388,o),
(519,430,o),
(519,483,cs),
(519,543,o),
(540,606,o),
(581,653,cs),
(621,700,o),
(678,730,o),
(750,730,cs),
(801,730,o),
(846,714,o),
(878,686,cs),
(909,658,o),
(927,617,o),
(927,566,cs),
(927,502,o),
(904,439,o),
(864,391,cs),
(824,342,o),
(766,311,o),
(697,311,cs)
);
}
);
width = 1364;
},
{
layerId = "DDFB1734-E0D7-49FC-BA30-BBC7C7BD5F60";
shapes = (
{
closed = 1;
nodes = (
(860,-30,o),
(1009,45,o),
(1118,165,cs),
(1225,285,o),
(1290,443,o),
(1290,614,cs),
(1290,745,o),
(1249,859,o),
(1167,940,cs),
(1085,1023,o),
(969,1070,o),
(824,1070,cs),
(734,1070,o),
(661,1052,o),
(593,1018,cs),
(526,983,o),
(469,934,o),
(413,876,c),
(443,799,l),
(616,1450,l),
(405,1430,l),
(23,0,l),
(209,0,l),
(279,256,l),
(239,248,l),
(265,166,o),
(318,98,o),
(395,48,cs),
(471,-2,o),
(569,-30,o),
(688,-30,cs)
);
},
{
closed = 1;
nodes = (
(578,157,o),
(501,183,o),
(446,235,cs),
(390,287,o),
(359,361,o),
(359,456,cs),
(359,569,o),
(398,677,o),
(471,759,cs),
(544,840,o),
(643,886,o),
(769,886,cs),
(863,886,o),
(941,860,o),
(996,809,cs),
(1050,758,o),
(1081,686,o),
(1081,598,cs),
(1081,481,o),
(1039,371,o),
(969,290,cs),
(899,207,o),
(798,157,o),
(676,157,cs)
);
}
);
width = 1360;
},
{
layerId = "49A5562C-FB3D-4EE7-BE2B-5FF0A3F25A62";
shapes = (
{
closed = 1;
nodes = (
(833,-30,o),
(984,44,o),
(1095,165,cs),
(1204,285,o),
(1271,443,o),
(1271,612,cs),
(1271,742,o),
(1230,856,o),
(1148,938,cs),
(1064,1022,o),
(948,1070,o),
(799,1070,cs),
(693,1070,o),
(609,1048,o),
(532,1006,cs),
(457,965,o),
(395,907,o),
(339,845,c),
(343,793,l),
(514,1444,l),
(431,1436,l),
(47,0,l),
(137,0,l),
(202,241,l),
(186,263,l),
(219,178,o),
(275,106,o),
(354,52,cs),
(433,0,o),
(535,-30,o),
(665,-30,cs)
);
},
{
closed = 1;
nodes = (
(537,60,o),
(438,92,o),
(368,158,c),
(297,224,o),
(259,317,o),
(259,438,cs),
(259,585,o),
(308,723,o),
(402,825,cs),
(494,927,o),
(621,985,o),
(781,985,cs),
(902,985,o),
(1000,952,o),
(1070,886,cs),
(1140,821,o),
(1177,729,o),
(1177,617,cs),
(1177,466,o),
(1124,328,o),
(1035,225,cs),
(946,121,o),
(817,60,o),
(663,60,cs)
);
}
);
width = 1357;
}
);
leftKerningGroup = _b2;
rightKerningGroup = _b;
unicode = 98;
},
{
glyphname = c;
layers = (
{
layerId = "EBD03586-66CA-4B27-94EE-9B66F2D0C841";
shapes = (
{
closed = 1;
nodes = (
(702,-30,o),
(851,9,o),
(975,77,c),
(898,398,l),
(814,338,o),
(731,310,o),
(647,310,cs),
(578,310,o),
(525,326,o),
(490,357,cs),
(454,388,o),
(435,433,o),
(435,493,cs),
(435,558,o),
(458,617,o),
(501,660,cs),
(544,703,o),
(603,730,o),
(683,730,cs),
(775,730,o),
(858,702,o),
(919,626,c),
(1152,899,l),
(1040,1012,o),
(886,1070,o),
(703,1070,cs),
(524,1070,o),
(359,1003,o),
(235,890,cs),
(111,777,o),
(35,620,o),
(35,445,cs),
(35,308,o),
(89,190,o),
(182,106,cs),
(274,21,o),
(404,-30,o),
(565,-30,cs)
);
}
);
width = 1106;
},
{
layerId = "DDFB1734-E0D7-49FC-BA30-BBC7C7BD5F60";
shapes = (
{
closed = 1;
nodes = (
(688,-30,o),
(810,6,o),
(923,71,c),
(855,237,l),
(787,185,o),
(694,153,o),
(602,153,cs),
(495,153,o),
(413,182,o),
(357,234,cs),
(301,286,o),
(270,360,o),
(270,452,cs),
(270,572,o),
(309,682,o),
(382,761,cs),
(454,840,o),
(555,886,o),
(686,886,cs),
(803,886,o),
(895,857,o),
(957,787,c),
(1094,934,l),
(996,1029,o),
(875,1070,o),
(719,1070,cs),
(536,1070,o),
(372,1005,o),
(252,890,cs),
(132,776,o),
(58,617,o),
(58,437,cs),
(58,301,o),
(108,185,o),
(197,103,c),
(285,18,o),
(408,-30,o),
(565,-30,cs)
);
}
);
width = 1084;
},
{
layerId = "49A5562C-FB3D-4EE7-BE2B-5FF0A3F25A62";
shapes = (
{
closed = 1;
nodes = (
(679,-30,o),
(783,3,o),
(890,68,c),
(827,134,l),
(771,88,o),
(670,54,o),
(574,54,cs),
(443,54,o),
(342,91,o),
(273,156,cs),
(204,221,o),
(165,314,o),
(165,425,cs),
(165,581,o),
(215,723,o),
(306,825,cs),
(398,926,o),
(524,985,o),
(688,985,cs),
(819,985,o),
(918,956,o),
(981,887,c),
(1057,955,l),
(968,1039,o),
(868,1070,o),
(729,1070,cs),
(543,1070,o),
(380,1006,o),
(262,890,cs),
(145,775,o),
(73,614,o),
(73,431,cs),
(73,297,o),
(120,182,o),
(206,100,c),
(291,16,o),
(410,-30,o),
(565,-30,cs)
);
}
);
width = 1069;
}
);
leftKerningGroup = _c2;
rightKerningGroup = _c;
unicode = 99;
},
{
glyphname = d;
layers = (
{
layerId = "EBD03586-66CA-4B27-94EE-9B66F2D0C841";
shapes = (
{
closed = 1;
nodes = (
(581,-30,o),
(654,-11,o),
(717,24,cs),
(780,59,o),
(828,109,o),
(865,173,c),
(835,282,l),
(759,0,l),
(1099,0,l),
(1495,1460,l),
(1084,1420,l),
(921,808,l),
(1032,876,l),
(995,944,o),
(940,992,o),
(872,1024,cs),
(804,1056,o),
(731,1070,o),
(651,1070,cs),
(476,1070,o),
(324,996,o),
(216,875,cs),
(108,754,o),
(42,591,o),
(42,414,cs),
(42,277,o),
(89,166,o),
(170,90,cs),
(250,13,o),
(361,-30,o),
(497,-30,cs)
);
},
{
closed = 1;
nodes = (
(564,310,o),
(518,326,o),
(487,357,cs),
(455,388,o),
(436,428,o),
(436,480,cs),
(436,545,o),
(459,607,o),
(500,654,cs),
(540,701,o),
(599,730,o),
(668,730,cs),
(720,730,o),
(765,713,o),
(797,684,cs),
(829,655,o),
(847,610,o),
(847,558,cs),
(847,497,o),
(824,435,o),
(783,388,cs),
(742,341,o),
(685,310,o),
(613,310,cs)
);
}
);
width = 1364;
},
{
layerId = "DDFB1734-E0D7-49FC-BA30-BBC7C7BD5F60";
shapes = (
{
closed = 1;
nodes = (
(637,-30,o),
(716,-9,o),
(783,27,cs),
(851,63,o),
(902,116,o),
(953,174,c),
(937,246,l),
(871,0,l),
(1057,0,l),
(1448,1450,l),
(1238,1430,l),
(1071,805,l),
(1123,821,l),
(1088,897,o),
(1034,961,o),
(956,1004,cs),
(879,1048,o),
(788,1070,o),
(676,1070,cs),
(508,1070,o),
(355,997,o),
(247,879,cs),
(138,760,o),
(69,597,o),
(69,425,cs),
(69,289,o),
(117,175,o),
(199,94,cs),
(282,14,o),
(397,-30,o),
(542,-30,cs)
);
},
{
closed = 1;
nodes = (
(498,153,o),
(420,181,o),
(365,234,cs),
(309,287,o),
(279,359,o),
(279,449,cs),
(279,570,o),
(320,677,o),
(393,759,cs),
(465,839,o),
(565,886,o),
(684,886,cs),
(780,886,o),
(860,860,o),
(915,808,cs),
(970,757,o),
(1001,681,o),
(1001,589,cs),
(1001,470,o),
(960,360,o),
(888,282,cs),
(814,203,o),
(714,153,o),
(592,153,cs)
);
}
);
width = 1360;
},
{
layerId = "49A5562C-FB3D-4EE7-BE2B-5FF0A3F25A62";
shapes = (
{
closed = 1;
nodes = (
(672,-30,o),
(755,-7,o),
(824,29,cs),
(895,65,o),
(949,119,o),
(1008,175,c),
(1001,223,l),
(940,0,l),
(1030,0,l),
(1418,1444,l),
(1334,1436,l),
(1165,803,l),
(1181,787,l),
(1147,867,o),
(1093,940,o),
(1009,992,cs),
(926,1042,o),
(823,1070,o),
(691,1070,cs),
(527,1070,o),
(374,998,o),
(266,881,cs),
(157,763,o),
(85,600,o),
(85,431,cs),
(85,296,o),
(133,181,o),
(217,97,c),
(301,14,o),
(420,-30,o),
(570,-30,cs)
);
},
{
closed = 1;
nodes = (
(455,54,o),
(357,89,o),
(287,156,cs),
(217,222,o),
(180,316,o),
(180,428,cs),
(180,585,o),
(232,721,o),
(325,824,cs),
(418,926,o),
(544,985,o),
(694,985,cs),
(817,985,o),
(919,952,o),
(989,886,cs),
(1058,822,o),
(1097,725,o),
(1097,608,cs),
(1097,452,o),
(1046,313,o),
(953,214,cs),
(860,116,o),
(732,54,o),
(577,54,cs)
);
}
);
width = 1357;
}
);
leftKerningGroup = _c2;
rightKerningGroup = _d;
unicode = 100;
},
{
glyphname = e;
layers = (
{
layerId = "EBD03586-66CA-4B27-94EE-9B66F2D0C841";
shapes = (
{
closed = 1;
nodes = (
(646,-30,o),
(725,-21,o),
(801,-6,cs),
(877,9,o),
(945,31,o),
(997,56,c),
(946,337,l),
(842,292,o),
(750,270,o),
(642,270,cs),
(578,270,o),
(517,279,o),
(470,302,cs),
(423,325,o),
(393,360,o),
(392,408,c),
(1150,408,l),
(1215,591,o),
(1201,754,o),
(1117,875,cs),
(1032,996,o),
(884,1070,o),
(680,1070,cs),
(497,1070,o),
(340,1007,o),
(227,895,cs),
(114,782,o),
(45,629,o),
(45,445,cs),
(45,304,o),
(94,188,o),
(186,104,cs),
(278,19,o),
(407,-30,o),
(574,-30,cs)
);
},
{
closed = 1;
nodes = (
(471,668,l),
(479,707,o),
(500,737,o),
(532,758,cs),
(564,778,o),
(608,790,o),
(655,790,cs),
(703,790,o),
(745,782,o),
(774,762,cs),
(803,741,o),
(820,711,o),
(820,668,c)
);
}
);
width = 1223;
},
{
layerId = "DDFB1734-E0D7-49FC-BA30-BBC7C7BD5F60";
shapes = (
{
closed = 1;
nodes = (
(641,-30,o),
(709,-24,o),
(774,-8,c),
(839,9,o),
(902,31,o),
(957,63,c),
(909,223,l),
(817,167,o),
(715,141,o),
(612,141,cs),
(502,141,o),
(408,168,o),
(345,226,cs),
(283,284,o),
(253,368,o),
(267,478,c),
(1121,478,l),
(1168,639,o),
(1153,785,o),
(1076,894,cs),
(999,1003,o),
(870,1070,o),
(693,1070,cs),
(515,1070,o),
(361,1001,o),
(249,882,cs),
(136,762,o),
(68,604,o),
(68,426,cs),
(68,290,o),
(117,176,o),
(206,96,cs),
(294,15,o),
(421,-30,o),
(580,-30,cs)
);
},
{
closed = 1;
nodes = (
(312,634,l),
(333,722,o),
(378,790,o),
(439,836,cs),
(500,881,o),
(580,904,o),
(666,904,cs),
(757,904,o),
(832,888,o),
(880,843,cs),
(930,798,o),
(954,730,o),
(946,634,c)
);
}
);
width = 1202;
},
{
layerId = "49A5562C-FB3D-4EE7-BE2B-5FF0A3F25A62";
shapes = (
{
closed = 1;
nodes = (
(638,-30,o),
(699,-26,o),
(758,-9,cs),
(815,8,o),
(874,31,o),
(932,66,c),
(885,151,l),
(801,89,o),
(692,60,o),
(593,60,cs),
(453,60,o),
(339,99,o),
(265,179,cs),
(193,257,o),
(163,374,o),
(189,521,c),
(1102,521,l),
(1138,669,o),
(1122,804,o),
(1049,906,cs),
(978,1007,o),
(860,1070,o),
(701,1070,cs),
(527,1070,o),
(374,998,o),
(262,873,c),
(149,750,o),
(83,588,o),
(83,414,cs),
(83,280,o),
(132,168,o),
(218,90,cs),
(304,12,o),
(429,-30,o),
(583,-30,cs)
);
},
{
closed = 1;
nodes = (
(212,613,l),
(241,732,o),
(300,823,o),
(380,885,cs),
(459,946,o),
(561,976,o),
(673,976,cs),
(791,976,o),
(887,954,o),
(948,893,c),
(1010,833,o),
(1039,742,o),
(1026,613,c)
);
}
);
width = 1189;
}
);
leftKerningGroup = _c2;
rightKerningGroup = _b;
unicode = 101;
},
{
glyphname = f;
layers = (
{
layerId = "EBD03586-66CA-4B27-94EE-9B66F2D0C841";
shapes = (
{
closed = 1;
nodes = (
(465,0,l),
(661,728,l),
(903,728,l),
(985,1040,l),
(743,1040,l),
(752,1064,l),
(759,1091,o),
(772,1112,o),
(791,1125,cs),
(810,1138,o),
(835,1144,o),
(864,1144,cs),
(896,1144,o),
(933,1139,o),
(968,1111,c),
(1097,1398,l),
(1008,1455,o),
(909,1470,o),
(812,1470,cs),
(572,1470,o),
(423,1331,o),
(356,1086,cs),
(65,0,l)
);
},
{
closed = 1;
nodes = (
(293,728,l),
(373,1040,l),
(177,1040,l),
(97,728,l)
);
}
);
width = 884;
},
{
layerId = "DDFB1734-E0D7-49FC-BA30-BBC7C7BD5F60";
shapes = (
{
closed = 1;
nodes = (
(322,0,l),
(560,874,l),
(821,874,l),
(865,1040,l),
(603,1040,l),
(633,1152,l),
(646,1205,o),
(667,1243,o),
(695,1265,cs),
(723,1286,o),
(756,1297,o),
(792,1297,cs),
(832,1297,o),
(873,1290,o),
(914,1265,c),
(991,1415,l),
(942,1451,o),
(881,1470,o),
(795,1470,cs),
(616,1470,o),
(491,1363,o),
(437,1160,cs),
(125,0,l)
);
},
{
closed = 1;
nodes = (
(391,874,l),
(432,1040,l),
(201,1040,l),
(160,874,l)
);
}
);
width = 765;
},
{
layerId = "49A5562C-FB3D-4EE7-BE2B-5FF0A3F25A62";
shapes = (
{
closed = 1;
nodes = (
(232,0,l),
(495,966,l),
(769,966,l),
(789,1040,l),
(515,1040,l),
(557,1208,ls),
(574,1277,o),
(601,1325,o),
(634,1352,cs),
(668,1379,o),
(706,1393,o),
(746,1393,cs),
(791,1393,o),
(835,1386,o),
(880,1362,c),
(923,1425,l),
(901,1448,o),
(862,1470,o),
(783,1470,cs),
(644,1470,o),
(524,1382,o),
(479,1207,c),
(153,0,l)
);
},
{
closed = 1;
nodes = (
(452,966,l),
(469,1040,l),
(216,1040,l),
(199,966,l)
);
}
);
width = 690;
}
);
leftKerningGroup = _f2;
rightKerningGroup = _f;
unicode = 102;
},
{
glyphname = g;
layers = (
{
layerId = "EBD03586-66CA-4B27-94EE-9B66F2D0C841";
shapes = (
{
closed = 1;
nodes = (
(458,-450,o),
(498,-448,o),
(541,-444,cs),
(628,-435,o),
(718,-415,o),
(801,-380,cs),
(842,-363,o),
(879,-341,o),
(912,-315,cs),
(976,-263,o),
(1018,-192,o),
(1018,-99,cs),
(1018,-20,o),
(978,37,o),
(919,80,cs),
(859,123,o),
(779,151,o),
(699,170,cs),
(516,213,ls),
(443,230,o),
(391,247,o),
(391,275,cs),
(391,303,o),
(421,318,o),
(455,324,cs),
(489,330,o),
(527,328,o),
(546,328,c),
(516,470,l),
(491,471,o),
(463,470,o),
(430,468,cs),
(365,463,o),
(296,450,o),
(231,426,cs),
(198,414,o),
(169,399,o),
(144,380,c),
(92,343,o),
(58,292,o),
(58,223,cs),
(58,163,o),
(82,113,o),
(129,77,c),
(65,72,o),
(-7,51,o),
(-64,13,cs),
(-120,-26,o),
(-160,-81,o),
(-160,-157,cs),
(-160,-198,o),
(-150,-233,o),
(-130,-263,cs),
(-89,-323,o),
(-20,-367,o),
(64,-395,cs),
(106,-409,o),
(149,-420,o),
(192,-428,cs),
(278,-444,o),
(362,-450,o),
(422,-450,cs)
);
},
{
closed = 1;
nodes = (
(431,-218,o),
(418,-217,o),
(401,-216,cs),
(368,-213,o),
(329,-207,o),
(293,-196,cs),
(274,-190,o),
(258,-183,o),
(243,-175,cs),
(214,-159,o),
(193,-137,o),
(193,-106,cs),
(193,-77,o),
(217,-59,o),
(248,-49,cs),
(279,-39,o),
(314,-37,o),
(337,-40,c),
(533,-81,ls),
(550,-85,o),
(578,-91,o),
(601,-101,cs),
(624,-111,o),
(643,-126,o),
(643,-149,cs),
(643,-184,o),
(604,-200,o),
(560,-209,cs),
(515,-218,o),
(465,-218,o),
(442,-218,cs)
);
},
{
closed = 1;
nodes = (
(707,320,o),
(833,356,o),
(930,424,cs),
(1026,492,o),
(1094,593,o),
(1094,725,cs),
(1094,849,o),
(1031,936,o),
(942,991,cs),
(853,1046,o),
(737,1070,o),
(632,1070,cs),
(513,1070,o),
(388,1036,o),
(293,968,cs),
(197,900,o),
(131,799,o),
(131,666,cs),
(131,545,o),
(194,458,o),
(283,402,cs),
(372,346,o),
(486,320,o),
(590,320,cs)
);
},
{
closed = 1;
nodes = (
(574,580,o),
(536,589,o),
(508,607,cs),
(479,625,o),
(459,653,o),
(459,692,cs),
(459,732,o),
(482,762,o),
(514,782,cs),
(545,802,o),
(585,812,o),
(620,812,cs),
(652,812,o),
(687,804,o),
(715,788,c),
(742,771,o),
(761,744,o),
(761,707,cs),
(761,666,o),
(740,634,o),
(711,613,cs),
(682,592,o),
(643,580,o),
(607,580,cs)
);
},
{
closed = 1;
nodes = (
(1375,1040,l),
(721,1040,l),
(767,828,l),
(882,793,o),
(976,768,o),
(1055,752,cs),
(1134,736,o),
(1198,728,o),
(1251,728,c)
);
}
);
width = 1250;
},
{
layerId = "DDFB1734-E0D7-49FC-BA30-BBC7C7BD5F60";
shapes = (
{
closed = 1;
nodes = (
(451,-450,o),
(489,-449,o),
(529,-444,cs),
(610,-435,o),
(691,-413,o),
(767,-379,c),
(804,-361,o),
(837,-340,o),
(866,-315,c),
(923,-263,o),
(960,-195,o),
(960,-106,cs),
(960,-42,o),
(929,12,o),
(872,54,cs),
(817,96,o),
(733,128,o),
(629,150,cs),
(454,187,l),
(353,210,o),
(308,232,o),
(308,270,cs),
(308,308,o),
(344,332,o),
(390,346,cs),
(436,359,o),
(496,363,o),
(543,360,c),
(522,453,l),
(487,452,o),
(453,451,o),
(420,447,cs),
(352,439,o),
(292,423,o),
(240,400,cs),
(215,389,o),
(193,375,o),
(174,359,cs),
(137,326,o),
(115,285,o),
(115,234,cs),
(115,188,o),
(142,142,o),
(200,102,c),
(121,97,o),
(42,74,o),
(-19,34,cs),
(-81,-6,o),
(-121,-65,o),
(-121,-144,cs),
(-121,-182,o),
(-113,-215,o),
(-97,-245,cs),
(-65,-304,o),
(-9,-349,o),
(64,-381,cs),
(99,-397,o),
(137,-410,o),
(178,-421,cs),
(257,-441,o),
(341,-450,o),
(415,-450,cs)
);
},
{
closed = 1;
nodes = (
(423,-309,o),
(400,-308,o),
(375,-305,cs),
(324,-300,o),
(269,-289,o),
(217,-270,cs),
(191,-261,o),
(168,-249,o),
(148,-235,cs),
(107,-206,o),
(79,-167,o),
(79,-116,cs),
(79,-63,o),
(114,-24,o),
(167,0,cs),
(219,25,o),
(286,36,o),
(351,31,c),
(534,-7,ls),
(600,-21,o),
(656,-39,o),
(693,-61,cs),
(732,-84,o),
(753,-112,o),
(753,-146,cs),
(753,-198,o),
(717,-239,o),
(661,-266,cs),
(603,-295,o),
(525,-309,o),
(442,-309,c)
);
},
{
closed = 1;
nodes = (
(708,342,o),
(829,385,o),
(919,455,cs),
(1008,525,o),
(1067,623,o),
(1067,735,cs),
(1067,838,o),
(1018,922,o),
(940,980,cs),
(862,1038,o),
(755,1070,o),
(640,1070,cs),
(518,1070,o),
(399,1029,o),
(310,959,cs),
(221,889,o),
(162,790,o),
(162,675,cs),
(162,574,o),
(212,491,o),
(290,433,cs),
(366,375,o),
(472,342,o),
(585,342,cs)
);
},
{
closed = 1;
nodes = (
(529,500,o),
(468,518,o),
(424,549,cs),
(380,580,o),
(354,627,o),
(354,685,cs),
(354,746,o),
(384,803,o),
(433,845,cs),
(481,886,o),
(550,913,o),
(628,913,cs),
(699,913,o),
(759,896,o),
(803,866,c),
(846,835,o),
(872,790,o),
(872,735,cs),
(872,672,o),
(843,613,o),
(795,571,cs),
(747,528,o),
(680,500,o),
(601,500,cs)
);
},
{
closed = 1;
nodes = (
(1247,869,l),
(1321,1039,l),
(788,1039,l),
(806,935,l),
(893,912,o),
(965,895,o),
(1028,885,cs),
(1092,874,o),
(1148,869,o),
(1203,869,cs)
);
}
);
width = 1230;
},
{
layerId = "49A5562C-FB3D-4EE7-BE2B-5FF0A3F25A62";
shapes = (
{
closed = 1;
nodes = (
(445,-450,o),
(483,-449,o),
(521,-444,cs),
(598,-435,o),
(675,-411,o),
(745,-378,c),
(779,-359,o),
(810,-339,o),
(837,-314,c),
(889,-263,o),
(923,-197,o),
(923,-109,cs),
(923,-57,o),
(897,-4,o),
(842,38,cs),
(789,80,o),
(704,113,o),
(585,137,cs),
(414,171,l),
(295,197,o),
(256,222,o),
(256,267,cs),
(256,311,o),
(294,341,o),
(349,359,cs),
(402,377,o),
(475,385,o),
(541,379,c),
(525,441,l),
(484,440,o),
(447,439,o),
(413,434,cs),
(344,424,o),
(289,407,o),
(246,384,cs),
(225,373,o),
(208,360,o),
(193,344,cs),
(165,314,o),
(152,281,o),
(152,241,cs),
(152,203,o),
(179,160,o),
(246,118,c),
(156,112,o),
(72,89,o),
(9,47,c),
(-56,6,o),
(-96,-55,o),
(-96,-136,cs),
(-96,-172,o),
(-89,-203,o),
(-76,-233,cs),
(-49,-292,o),
(-2,-337,o),
(63,-372,cs),
(95,-389,o),
(129,-404,o),
(168,-415,c),
(242,-438,o),
(326,-450,o),
(411,-450,cs)
);
},
{
closed = 1;
nodes = (
(417,-367,o),
(388,-364,o),
(359,-361,cs),
(296,-355,o),
(231,-341,o),
(170,-317,cs),
(139,-305,o),
(110,-290,o),
(88,-272,c),
(39,-235,o),
(7,-186,o),
(7,-122,cs),
(7,-54,o),
(49,-2,o),
(115,32,cs),
(181,65,o),
(267,82,o),
(359,77,c),
(535,40,ls),
(632,20,o),
(705,-5,o),
(752,-36,cs),
(800,-68,o),
(822,-103,o),
(822,-144,cs),
(822,-207,o),
(789,-263,o),
(725,-303,c),
(658,-342,o),
(563,-365,o),
(441,-365,c)
);
},
{
closed = 1;
nodes = (
(709,357,o),
(826,403,o),
(912,474,cs),
(996,546,o),
(1051,642,o),
(1051,741,cs),
(1051,831,o),
(1009,913,o),
(938,973,cs),
(868,1032,o),
(765,1070,o),
(644,1070,cs),
(521,1070,o),
(406,1025,o),
(320,953,cs),
(236,882,o),
(181,784,o),
(181,681,cs),
(181,593,o),
(222,512,o),
(293,452,cs),
(363,393,o),
(463,357,o),
(582,357,cs)
);
},
{
closed = 1;
nodes = (
(501,450,o),
(425,472,o),
(371,512,cs),
(317,552,o),
(288,611,o),
(288,679,cs),
(288,754,o),
(322,828,o),
(381,885,c),
(440,939,o),
(528,977,o),
(634,977,cs),
(728,977,o),
(805,955,o),
(859,915,cs),
(911,875,o),
(941,819,o),
(941,753,cs),
(941,675,o),
(908,598,o),
(848,543,cs),
(788,487,o),
(703,450,o),
(598,450,cs)
);
},
{
closed = 1;
nodes = (
(1244,957,l),
(1287,1038,l),
(831,1038,l),
(830,1003,l),
(900,987,o),
(958,976,o),
(1012,968,c),
(1065,961,o),
(1116,957,o),
(1172,957,cs)
);
}
);
width = 1217;
}
);
leftKerningGroup = _g2;
rightKerningGroup = _g;
unicode = 103;
},
{
glyphname = h;
layers = (
{
layerId = "EBD03586-66CA-4B27-94EE-9B66F2D0C841";
shapes = (
{
closed = 1;
nodes = (
(388,0,l),
(532,534,ls),
(548,594,o),
(574,638,o),
(607,667,cs),
(640,695,o),
(679,710,o),
(728,710,cs),
(788,710,o),
(825,696,o),
(845,665,cs),
(865,634,o),
(866,590,o),
(851,534,cs),
(708,0,l),
(1108,0,l),
(1281,646,l),
(1312,774,o),
(1290,878,o),
(1230,954,cs),
(1170,1030,o),
(1076,1070,o),
(960,1070,cs),
(820,1070,o),
(698,1008,o),
(597,919,c),
(603,794,l),
(782,1460,l),
(374,1420,l),
(-12,0,l)
);
}
);
width = 1366;
},
{
layerId = "DDFB1734-E0D7-49FC-BA30-BBC7C7BD5F60";
shapes = (
{
closed = 1;
nodes = (
(233,0,l),
(393,592,l),
(418,689,o),
(464,761,o),
(526,809,cs),
(587,857,o),
(657,880,o),
(735,880,cs),
(817,880,o),
(883,858,o),
(922,813,cs),
(962,768,o),
(974,705,o),
(953,625,c),
(784,0,l),
(989,0,l),
(1173,684,l),
(1201,801,o),
(1172,898,o),
(1108,966,cs),
(1044,1034,o),
(946,1070,o),
(835,1070,cs),
(701,1070,o),
(568,1019,o),
(457,902,c),
(458,833,l),
(627,1450,l),
(416,1430,l),
(27,0,l)
);
}
);
width = 1285;
},
{
layerId = "49A5562C-FB3D-4EE7-BE2B-5FF0A3F25A62";
shapes = (
{
closed = 1;
nodes = (
(134,0,l),
(305,629,l),
(336,749,o),
(395,839,o),
(474,899,cs),
(553,959,o),
(642,987,o),
(739,987,cs),
(836,987,o),
(920,961,o),
(971,907,cs),
(1023,852,o),
(1042,777,o),
(1017,681,cs),
(831,0,l),
(913,0,l),
(1104,708,l),
(1130,817,o),
(1097,910,o),
(1031,973,cs),
(964,1037,o),
(864,1070,o),
(755,1070,cs),
(626,1070,o),
(486,1026,o),
(367,890,c),
(366,857,l),
(525,1444,l),
(444,1436,l),
(52,0,l)
);
}
);
width = 1233;
}
);
leftKerningGroup = _b2;
rightKerningGroup = _a;
unicode = 104;
},
{
glyphname = k;
layers = (
{
layerId = "EBD03586-66CA-4B27-94EE-9B66F2D0C841";
shapes = (
{
closed = 1;
nodes = (
(387,0,l),
(461,268,l),
(547,344,l),
(667,0,l),
(1119,0,l),
(889,591,l),
(1375,1040,l),
(890,1040,l),
(594,772,l),
(781,1460,l),
(373,1420,l),
(-13,0,l)
);
}
);
width = 1272;
},
{
layerId = "DDFB1734-E0D7-49FC-BA30-BBC7C7BD5F60";
shapes = (
{
closed = 1;
nodes = (
(231,0,l),
(327,351,l),
(531,514,l),
(735,0,l),
(971,0,l),
(709,640,l),
(1187,1040,l),
(931,1040,l),
(397,612,l),
(622,1450,l),
(411,1430,l),
(26,0,l)
);
}
);
width = 1160;
},
{
layerId = "49A5562C-FB3D-4EE7-BE2B-5FF0A3F25A62";
shapes = (
{
closed = 1;
nodes = (
(132,0,l),
(242,403,l),
(521,621,l),
(778,0,l),
(877,0,l),
(595,670,l),
(1068,1040,l),
(956,1040,l),
(272,512,l),
(519,1444,l),
(437,1437,l),
(50,0,l)
);
}
);
width = 1088;
}
);
leftKerningGroup = _b2;
rightKerningGroup = _k;
unicode = 107;
},
{
glyphname = l;
layers = (
{
layerId = "EBD03586-66CA-4B27-94EE-9B66F2D0C841";
shapes = (
{
closed = 1;
nodes = (
(483,-30,o),
(555,-14,o),
(623,10,c),
(636,319,l),
(614,312,o),
(592,308,o),
(569,308,cs),
(528,308,o),
(496,329,o),
(496,374,cs),
(496,387,o),
(498,402,o),
(502,415,cs),
(787,1460,l),
(379,1420,l),
(88,351,ls),
(80,320,o),
(74,291,o),
(74,259,cs),
(74,65,o),
(231,-30,o),
(410,-30,cs)
);
}
);
width = 770;
},
{
layerId = "DDFB1734-E0D7-49FC-BA30-BBC7C7BD5F60";
shapes = (
{
closed = 1;
nodes = (
(371,-30,o),
(430,-20,o),
(486,-2,c),
(483,165,l),
(450,156,o),
(416,148,o),
(381,148,cs),
(327,148,o),
(302,176,o),
(302,229,cs),
(302,255,o),
(307,281,o),
(313,305,cs),
(623,1450,l),
(419,1430,l),
(100,254,ls),
(92,225,o),
(86,196,o),
(86,166,cs),
(86,30,o),
(188,-30,o),
(312,-30,cs)
);
}
);
width = 642;
},
{
layerId = "49A5562C-FB3D-4EE7-BE2B-5FF0A3F25A62";
shapes = (
{
closed = 1;
nodes = (
(300,-30,o),
(351,-24,o),
(399,-10,c),
(387,66,l),
(346,57,o),
(305,46,o),
(263,46,cs),
(212,46,o),
(178,71,o),
(178,125,cs),
(178,161,o),
(190,201,o),
(199,236,cs),
(522,1444,l),
(441,1436,l),
(102,192,ls),
(95,167,o),
(90,141,o),
(90,115,cs),
(90,14,o),
(154,-30,o),
(250,-30,cs)
);
}
);
width = 561;
}
);
leftKerningGroup = _b2;
rightKerningGroup = _d;
unicode = 108;
},
{
glyphname = m;
layers = (
{
layerId = "EBD03586-66CA-4B27-94EE-9B66F2D0C841";
shapes = (
{
closed = 1;
nodes = (
(388,0,l),
(544,586,ls),
(555,627,o),
(578,657,o),
(609,678,cs),
(640,698,o),
(681,710,o),
(722,710,cs),
(769,710,o),
(801,698,o),
(818,671,cs),
(835,644,o),
(837,605,o),
(824,548,c),
(678,0,l),
(1078,0,l),
(1234,586,ls),
(1245,627,o),
(1268,657,o),
(1299,678,cs),
(1330,698,o),
(1371,710,o),
(1412,710,cs),
(1459,710,o),
(1491,698,o),
(1508,671,cs),
(1525,644,o),
(1527,605,o),
(1514,548,c),
(1368,0,l),
(1768,0,l),
(1945,662,ls),
(1980,802,o),
(1962,903,o),
(1909,971,cs),
(1856,1039,o),
(1768,1070,o),
(1655,1070,cs),
(1575,1070,o),
(1493,1055,o),
(1424,1020,cs),
(1355,985,o),
(1294,935,o),
(1251,867,c),
(1244,927,o),
(1217,978,o),
(1173,1014,cs),
(1128,1050,o),
(1066,1070,o),
(990,1070,cs),
(918,1070,o),
(845,1050,o),
(777,1013,cs),
(709,976,o),
(653,920,o),
(620,847,c),
(668,1040,l),
(268,1040,l),
(-12,0,l)
);
}
);
width = 2026;
},
{
layerId = "DDFB1734-E0D7-49FC-BA30-BBC7C7BD5F60";
shapes = (
{
closed = 1;
nodes = (
(233,0,l),
(395,608,ls),
(419,697,o),
(466,765,o),
(526,812,cs),
(586,857,o),
(660,880,o),
(733,880,cs),
(814,880,o),
(872,859,o),
(906,815,cs),
(940,772,o),
(946,710,o),
(923,629,c),
(756,0,l),
(961,0,l),
(1124,608,ls),
(1148,697,o),
(1195,765,o),
(1255,812,c),
(1316,857,o),
(1388,880,o),
(1461,880,cs),
(1543,880,o),
(1602,859,o),
(1635,815,cs),
(1668,772,o),
(1675,710,o),
(1653,629,c),
(1485,0,l),
(1690,0,l),
(1876,689,l),
(1904,809,o),
(1882,906,o),
(1827,972,cs),
(1772,1038,o),
(1681,1070,o),
(1568,1070,cs),
(1492,1070,o),
(1416,1056,o),
(1344,1017,cs),
(1271,977,o),
(1203,920,o),
(1139,841,c),
(1136,905,o),
(1112,962,o),
(1065,1004,cs),
(1017,1046,o),
(947,1070,o),
(851,1070,cs),
(778,1070,o),
(706,1051,o),
(640,1016,cs),
(573,980,o),
(515,928,o),
(467,861,c),
(511,1040,l),
(307,1040,l),
(27,0,l)
);
}
);
width = 1986;
},
{
layerId = "49A5562C-FB3D-4EE7-BE2B-5FF0A3F25A62";
shapes = (
{
closed = 1;
nodes = (
(134,0,l),
(301,621,l),
(333,741,o),
(395,833,o),
(474,896,cs),
(552,957,o),
(645,987,o),
(739,987,cs),
(842,987,o),
(918,961,o),
(962,906,cs),
(1005,853,o),
(1014,776,o),
(986,679,c),
(806,0,l),
(887,0,l),
(1055,621,l),
(1086,741,o),
(1148,833,o),
(1227,896,c),
(1306,957,o),
(1398,987,o),
(1492,987,cs),
(1595,987,o),
(1671,961,o),
(1715,906,cs),
(1758,853,o),
(1768,776,o),
(1740,679,c),
(1559,0,l),
(1640,0,l),
(1832,705,l),
(1855,813,o),
(1832,908,o),
(1775,972,cs),
(1718,1037,o),
(1626,1070,o),
(1513,1070,cs),
(1440,1070,o),
(1366,1057,o),
(1292,1014,cs),
(1218,971,o),
(1144,910,o),
(1067,825,c),
(1068,890,o),
(1046,952,o),
(996,998,cs),
(948,1043,o),
(871,1070,o),
(763,1070,cs),
(688,1070,o),
(619,1052,o),
(553,1018,cs),
(487,982,o),
(428,932,o),
(370,869,c),
(412,1040,l),
(331,1040,l),
(52,0,l)
);
}
);
width = 1961;
}
);
leftKerningGroup = _m;
rightKerningGroup = _a;
unicode = 109;
},
{
glyphname = n;
layers = (
{
layerId = "EBD03586-66CA-4B27-94EE-9B66F2D0C841";
shapes = (
{
closed = 1;
nodes = (
(388,0,l),
(532,536,l),
(545,596,o),
(572,639,o),
(608,668,cs),
(644,696,o),
(691,710,o),
(744,710,cs),
(793,710,o),
(829,700,o),
(848,672,cs),
(867,644,o),
(869,601,o),
(852,536,cs),
(708,0,l),
(1108,0,l),
(1285,662,l),
(1314,791,o),
(1290,891,o),
(1230,962,cs),
(1170,1033,o),
(1077,1070,o),
(972,1070,cs),
(844,1070,o),
(726,1018,o),
(631,905,c),
(668,1040,l),
(268,1040,l),
(-12,0,l)
);
}
);
width = 1366;
},
{
layerId = "DDFB1734-E0D7-49FC-BA30-BBC7C7BD5F60";
shapes = (
{
closed = 1;
nodes = (
(233,0,l),
(393,593,l),
(416,688,o),
(462,760,o),
(525,809,cs),
(587,857,o),
(662,880,o),
(739,880,cs),
(821,880,o),
(884,859,o),
(922,815,cs),
(960,771,o),
(972,708,o),
(951,625,c),
(784,0,l),
(989,0,l),
(1174,689,l),
(1203,806,o),
(1174,901,o),
(1111,968,cs),
(1047,1034,o),
(948,1070,o),
(840,1070,cs),
(714,1070,o),
(581,1019,o),
(474,895,c),
(511,1040,l),
(307,1040,l),
(27,0,l)
);
}
);
width = 1285;
},
{
layerId = "49A5562C-FB3D-4EE7-BE2B-5FF0A3F25A62";
shapes = (
{
closed = 1;
nodes = (
(134,0,l),
(305,628,l),
(334,746,o),
(393,836,o),
(472,897,cs),
(550,957,o),
(643,987,o),
(736,987,cs),
(837,987,o),
(918,959,o),
(968,905,cs),
(1019,851,o),
(1037,776,o),
(1013,681,c),
(831,0,l),
(913,0,l),
(1105,705,l),
(1134,815,o),
(1100,907,o),
(1035,971,cs),
(969,1035,o),
(867,1070,o),
(756,1070,cs),
(632,1070,o),
(489,1019,o),
(375,888,c),
(412,1040,l),
(331,1040,l),
(52,0,l)
);
}
);
width = 1233;
}
);
leftKerningGroup = _m;
rightKerningGroup = _a;
unicode = 110;
},
{
glyphname = o;
layers = (
{
layerId = "EBD03586-66CA-4B27-94EE-9B66F2D0C841";
shapes = (
{
closed = 1;
nodes = (
(748,-30,o),
(912,39,o),
(1035,152,cs),
(1096,208,o),
(1145,274,o),
(1182,350,cs),
(1219,426,o),
(1237,506,o),
(1237,593,cs),
(1237,725,o),
(1187,844,o),
(1095,931,cs),
(1003,1018,o),
(870,1070,o),
(705,1070,cs),
(530,1070,o),
(367,1002,o),
(243,889,cs),
(119,776,o),
(40,622,o),
(40,449,cs),
(40,317,o),
(90,200,o),
(182,112,cs),
(274,24,o),
(407,-30,o),
(572,-30,cs)
);
},
{
closed = 1;
nodes = (
(559,310,o),
(514,327,o),
(483,358,cs),
(452,389,o),
(434,430,o),
(434,482,cs),
(434,546,o),
(457,606,o),
(497,653,cs),
(537,700,o),
(594,730,o),
(666,730,cs),
(719,730,o),
(763,713,o),
(795,685,cs),
(827,657,o),
(843,614,o),
(843,562,cs),
(843,498,o),
(822,436,o),
(782,389,cs),
(741,342,o),
(682,310,o),
(610,310,cs)
);
}
);
width = 1276;
},
{
layerId = "DDFB1734-E0D7-49FC-BA30-BBC7C7BD5F60";
shapes = (
{
closed = 1;
nodes = (
(737,-30,o),
(895,40,o),
(1012,156,cs),
(1070,212,o),
(1117,279,o),
(1153,357,cs),
(1188,434,o),
(1206,513,o),
(1206,597,cs),
(1206,729,o),
(1157,846,o),
(1071,933,cs),
(985,1019,o),
(860,1070,o),
(706,1070,cs),
(538,1070,o),
(381,1002,o),
(261,886,cs),
(142,770,o),
(67,616,o),
(67,445,cs),
(67,314,o),
(115,196,o),
(202,109,cs),
(289,22,o),
(413,-30,o),
(566,-30,cs)
);
},
{
closed = 1;
nodes = (
(496,153,o),
(417,181,o),
(362,234,cs),
(307,286,o),
(277,360,o),
(277,451,cs),
(277,567,o),
(317,675,o),
(387,755,cs),
(457,837,o),
(559,886,o),
(681,886,cs),
(779,886,o),
(855,860,o),
(911,808,cs),
(967,758,o),
(996,683,o),
(996,591,cs),
(996,475,o),
(956,367,o),
(887,286,cs),
(815,205,o),
(714,153,o),
(591,153,cs)
);
}
);
width = 1272;
},
{
layerId = "49A5562C-FB3D-4EE7-BE2B-5FF0A3F25A62";
shapes = (
{
closed = 1;
nodes = (
(730,-30,o),
(885,41,o),
(997,158,cs),
(1054,215,o),
(1099,282,o),
(1134,360,cs),
(1167,438,o),
(1185,517,o),
(1185,600,cs),
(1185,731,o),
(1138,847,o),
(1056,934,c),
(973,1020,o),
(853,1070,o),
(706,1070,cs),
(542,1070,o),
(389,1002,o),
(273,884,cs),
(157,767,o),
(83,612,o),
(83,442,cs),
(83,311,o),
(130,193,o),
(214,106,c),
(299,20,o),
(416,-30,o),
(562,-30,cs)
);
},
{
closed = 1;
nodes = (
(456,54,o),
(355,89,o),
(285,156,cs),
(215,221,o),
(177,314,o),
(177,432,cs),
(177,580,o),
(229,718,o),
(318,820,cs),
(405,923,o),
(536,985,o),
(690,985,cs),
(816,985,o),
(914,952,o),
(985,886,cs),
(1054,822,o),
(1092,726,o),
(1092,609,cs),
(1092,460,o),
(1041,323,o),
(952,221,cs),
(862,118,o),
(733,54,o),
(579,54,cs)
);
}
);
width = 1269;
}
);
leftKerningGroup = _c2;
rightKerningGroup = _b;
unicode = 111;
},
{
glyphname = p;
layers = (
{
layerId = "EBD03586-66CA-4B27-94EE-9B66F2D0C841";
shapes = (
{
closed = 1;
nodes = (
(275,-400,l),
(405,83,l),
(446,46,o),
(493,16,o),
(545,-3,cs),
(596,-22,o),
(650,-30,o),
(710,-30,cs),
(887,-30,o),
(1041,46,o),
(1149,167,cs),
(1257,288,o),
(1323,452,o),
(1323,631,cs),
(1323,767,o),
(1280,876,o),
(1201,953,cs),
(1122,1029,o),
(1009,1070,o),
(876,1070,cs),
(816,1070,o),
(763,1061,o),
(715,1045,cs),
(666,1028,o),
(622,1001,o),
(586,968,c),
(606,1040,l),
(266,1040,l),
(-123,-400,l)
);
},
{
closed = 1;
nodes = (
(641,310,o),
(599,327,o),
(568,359,cs),
(536,391,o),
(519,435,o),
(519,491,cs),
(519,551,o),
(542,611,o),
(582,656,cs),
(622,701,o),
(679,730,o),
(751,730,cs),
(803,730,o),
(848,714,o),
(880,686,cs),
(912,658,o),
(929,616,o),
(929,567,cs),
(929,487,o),
(902,424,o),
(859,380,cs),
(816,336,o),
(761,310,o),
(697,310,cs)
);
}
);
width = 1364;
},
{
layerId = "DDFB1734-E0D7-49FC-BA30-BBC7C7BD5F60";
shapes = (
{
closed = 1;
nodes = (
(121,-400,l),
(274,172,l),
(313,113,o),
(367,60,o),
(434,25,cs),
(502,-11,o),
(586,-30,o),
(686,-30,cs),
(855,-30,o),
(1007,44,o),
(1116,165,cs),
(1224,285,o),
(1292,445,o),
(1292,615,cs),
(1292,747,o),
(1249,862,o),
(1167,943,cs),
(1086,1025,o),
(968,1070,o),
(822,1070,cs),
(740,1070,o),
(673,1055,o),
(614,1029,cs),
(554,1001,o),
(503,963,o),
(457,917,c),
(492,1040,l),
(305,1040,l),
(-83,-400,l)
);
},
{
closed = 1;
nodes = (
(579,153,o),
(502,181,o),
(446,234,cs),
(390,286,o),
(360,360,o),
(360,450,cs),
(360,564,o),
(401,674,o),
(471,755,cs),
(541,836,o),
(641,886,o),
(766,886,cs),
(861,886,o),
(940,860,o),
(996,809,cs),
(1052,758,o),
(1082,684,o),
(1082,596,cs),
(1082,477,o),
(1042,367,o),
(970,286,cs),
(899,205,o),
(800,153,o),
(677,153,cs)
);
}
);
width = 1360;
},
{
layerId = "49A5562C-FB3D-4EE7-BE2B-5FF0A3F25A62";
shapes = (
{
closed = 1;
nodes = (
(24,-400,l),
(191,228,l),
(229,154,o),
(286,88,o),
(365,43,c),
(442,-4,o),
(545,-30,o),
(670,-30,cs),
(834,-30,o),
(985,42,o),
(1095,163,cs),
(1203,283,o),
(1271,441,o),
(1271,605,cs),
(1271,735,o),
(1228,853,o),
(1146,937,cs),
(1063,1022,o),
(943,1070,o),
(788,1070,cs),
(693,1070,o),
(617,1052,o),
(549,1019,cs),
(482,985,o),
(427,938,o),
(376,884,c),
(420,1040,l),
(330,1040,l),
(-58,-400,l)
);
},
{
closed = 1;
nodes = (
(539,54,o),
(440,88,o),
(369,154,c),
(298,218,o),
(260,313,o),
(260,425,cs),
(260,572,o),
(311,714,o),
(402,817,c),
(489,921,o),
(617,985,o),
(775,985,cs),
(898,985,o),
(999,952,o),
(1070,886,cs),
(1139,821,o),
(1178,727,o),
(1178,615,cs),
(1178,471,o),
(1129,330,o),
(1039,227,c),
(951,122,o),
(825,54,o),
(665,54,cs)
);
}
);
width = 1357;
}
);
leftKerningGroup = _m;
rightKerningGroup = _b;
unicode = 112;
},
{
glyphname = q;
layers = (
{
layerId = "EBD03586-66CA-4B27-94EE-9B66F2D0C841";
shapes = (
{
closed = 1;
nodes = (
(993,-400,l),
(1380,1040,l),
(1040,1040,l),
(964,758,l),
(1045,815,l),
(1032,891,o),
(984,954,o),
(909,999,cs),
(834,1044,o),
(743,1070,o),
(639,1070,cs),
(464,1070,o),
(317,995,o),
(213,878,cs),
(108,761,o),
(47,602,o),
(47,429,cs),
(47,296,o),
(89,185,o),
(165,101,cs),
(241,17,o),
(346,-29,o),
(478,-29,cs),
(551,-29,o),
(615,-17,o),
(672,10,cs),
(728,37,o),
(777,75,o),
(833,128,c),
(764,232,l),
(595,-400,l)
);
},
{
closed = 1;
nodes = (
(562,311,o),
(518,327,o),
(487,356,cs),
(456,385,o),
(437,426,o),
(437,478,cs),
(437,542,o),
(460,605,o),
(500,653,cs),
(540,700,o),
(598,731,o),
(671,731,cs),
(720,731,o),
(766,715,o),
(797,684,cs),
(828,653,o),
(847,611,o),
(847,555,cs),
(847,495,o),
(826,434,o),
(786,387,cs),
(745,340,o),
(686,311,o),
(614,311,cs)
);
}
);
width = 1364;
},
{
layerId = "DDFB1734-E0D7-49FC-BA30-BBC7C7BD5F60";
shapes = (
{
closed = 1;
nodes = (
(952,-400,l),
(1339,1040,l),
(1152,1040,l),
(1084,794,l),
(1126,807,l),
(1089,897,o),
(1027,962,o),
(948,1007,cs),
(868,1051,o),
(778,1070,o),
(676,1070,cs),
(506,1070,o),
(354,998,o),
(247,881,cs),
(139,764,o),
(72,606,o),
(72,431,cs),
(72,300,o),
(114,189,o),
(194,105,cs),
(273,22,o),
(386,-26,o),
(529,-26,cs),
(621,-26,o),
(698,-9,o),
(766,27,cs),
(834,61,o),
(889,110,o),
(945,171,c),
(918,235,l),
(747,-400,l)
);
},
{
closed = 1;
nodes = (
(498,157,o),
(421,183,o),
(366,235,cs),
(311,287,o),
(279,357,o),
(279,450,cs),
(279,563,o),
(320,672,o),
(390,753,cs),
(461,834,o),
(561,885,o),
(686,885,cs),
(780,885,o),
(861,859,o),
(916,807,cs),
(970,755,o),
(1001,682,o),
(1001,592,cs),
(1001,479,o),
(964,369,o),
(892,289,cs),
(819,207,o),
(718,157,o),
(593,157,cs)
);
}
);
width = 1360;
},
{
layerId = "49A5562C-FB3D-4EE7-BE2B-5FF0A3F25A62";
shapes = (
{
closed = 1;
nodes = (
(925,-400,l),
(1312,1040,l),
(1221,1040,l),
(1160,817,l),
(1176,801,l),
(1126,900,o),
(1055,968,o),
(972,1011,cs),
(889,1054,o),
(799,1070,o),
(699,1070,cs),
(531,1070,o),
(377,1000,o),
(268,883,cs),
(158,766,o),
(87,608,o),
(87,432,cs),
(87,303,o),
(130,191,o),
(212,108,cs),
(294,25,o),
(411,-23,o),
(561,-23,cs),
(665,-23,o),
(750,-3,o),
(825,37,c),
(900,76,o),
(960,132,o),
(1016,199,c),
(1014,237,l),
(843,-400,l)
);
},
{
closed = 1;
nodes = (
(457,60,o),
(359,92,o),
(289,158,cs),
(219,224,o),
(179,314,o),
(179,431,cs),
(179,575,o),
(232,713,o),
(321,816,cs),
(411,919,o),
(537,982,o),
(696,982,cs),
(818,982,o),
(920,949,o),
(990,884,cs),
(1060,819,o),
(1098,728,o),
(1098,615,cs),
(1098,469,o),
(1051,328,o),
(958,226,c),
(866,122,o),
(737,60,o),
(578,60,cs)
);
}
);
width = 1357;
}
);
leftKerningGroup = _c2;
unicode = 113;
},
{
glyphname = r;
layers = (
{
layerId = "EBD03586-66CA-4B27-94EE-9B66F2D0C841";
shapes = (
{
closed = 1;
nodes = (
(389,0,l),
(525,506,l),
(541,571,o),
(573,614,o),
(612,642,cs),
(651,669,o),
(697,678,o),
(746,678,cs),
(802,678,o),
(861,666,o),
(908,645,c),
(1060,1058,l),
(1027,1066,o),
(990,1070,o),
(950,1070,cs),
(890,1070,o),
(826,1056,o),
(770,1024,cs),
(714,992,o),
(664,942,o),
(627,877,c),
(670,1040,l),
(271,1040,l),
(-11,0,l)
);
}
);
width = 936;
},
{
layerId = "DDFB1734-E0D7-49FC-BA30-BBC7C7BD5F60";
shapes = (
{
closed = 1;
nodes = (
(233,0,l),
(389,575,ls),
(415,671,o),
(462,745,o),
(525,793,cs),
(588,841,o),
(662,865,o),
(743,865,cs),
(789,865,o),
(836,859,o),
(880,843,c),
(963,1055,l),
(922,1067,o),
(877,1070,o),
(837,1070,cs),
(773,1070,o),
(709,1060,o),
(648,1029,cs),
(586,999,o),
(528,949,o),
(471,877,c),
(515,1040,l),
(309,1040,l),
(28,0,l)
);
}
);
width = 854;
},
{
layerId = "49A5562C-FB3D-4EE7-BE2B-5FF0A3F25A62";
shapes = (
{
closed = 1;
nodes = (
(134,0,l),
(302,618,ls),
(334,734,o),
(391,827,o),
(469,889,cs),
(548,950,o),
(639,983,o),
(740,983,cs),
(781,983,o),
(820,980,o),
(862,968,c),
(901,1052,l),
(856,1067,o),
(805,1070,o),
(765,1070,cs),
(699,1070,o),
(635,1062,o),
(570,1032,cs),
(505,1002,o),
(441,952,o),
(372,877,c),
(416,1040,l),
(333,1040,l),
(52,0,l)
);
}
);
width = 802;
}
);
leftKerningGroup = _m;
rightKerningGroup = _r;
unicode = 114;
},
{
glyphname = s;
layers = (
{
layerId = "EBD03586-66CA-4B27-94EE-9B66F2D0C841";
shapes = (
{
closed = 1;
nodes = (
(608,-30,o),
(732,8,o),
(821,80,cs),
(909,151,o),
(963,252,o),
(963,376,cs),
(963,444,o),
(937,497,o),
(878,545,cs),
(820,591,o),
(728,628,o),
(600,664,cs),
(544,680,o),
(510,689,o),
(489,700,cs),
(468,711,o),
(463,717,o),
(463,727,cs),
(463,744,o),
(474,757,o),
(491,766,cs),
(508,774,o),
(536,780,o),
(567,780,cs),
(623,780,o),
(685,767,o),
(741,745,cs),
(798,722,o),
(853,693,o),
(897,654,c),
(1070,905,l),
(1018,954,o),
(950,997,o),
(866,1025,cs),
(783,1053,o),
(689,1070,o),
(589,1070,cs),
(457,1070,o),
(339,1036,o),
(249,966,cs),
(158,895,o),
(103,798,o),
(103,671,cs),
(103,594,o),
(133,532,o),
(192,484,cs),
(252,435,o),
(341,400,o),
(461,373,c),
(522,358,o),
(559,350,o),
(579,343,cs),
(600,335,o),
(608,330,o),
(608,318,cs),
(608,302,o),
(599,287,o),
(580,276,cs),
(561,265,o),
(533,260,o),
(496,260,cs),
(440,260,o),
(373,275,o),
(308,298,cs),
(244,321,o),
(179,354,o),
(120,397,c),
(-56,147,l),
(12,83,o),
(97,40,o),
(188,12,cs),
(280,-16,o),
(374,-30,o),
(465,-30,cs)
);
}
);
width = 1088;
},
{
layerId = "DDFB1734-E0D7-49FC-BA30-BBC7C7BD5F60";
shapes = (
{
closed = 1;
nodes = (
(552,-30,o),
(659,4,o),
(737,70,cs),
(815,136,o),
(859,226,o),
(859,338,cs),
(859,401,o),
(835,449,o),
(785,492,cs),
(735,536,o),
(659,569,o),
(552,602,cs),
(478,625,o),
(427,644,o),
(391,668,cs),
(357,692,o),
(342,714,o),
(342,749,cs),
(342,799,o),
(365,838,o),
(400,865,cs),
(435,892,o),
(489,906,o),
(547,906,cs),
(612,906,o),
(674,895,o),
(728,870,cs),
(780,846,o),
(829,812,o),
(864,768,c),
(975,913,l),
(930,963,o),
(873,1004,o),
(804,1030,cs),
(735,1057,o),
(657,1070,o),
(571,1070,cs),
(452,1070,o),
(349,1036,o),
(271,973,cs),
(193,909,o),
(147,820,o),
(147,716,cs),
(147,651,o),
(171,597,o),
(221,554,cs),
(272,509,o),
(349,477,o),
(454,444,c),
(532,418,o),
(585,397,o),
(618,376,cs),
(651,355,o),
(667,333,o),
(667,299,cs),
(667,248,o),
(646,207,o),
(606,177,cs),
(567,148,o),
(512,134,o),
(440,134,cs),
(379,134,o),
(312,147,o),
(254,172,cs),
(196,196,o),
(144,232,o),
(100,278,c),
(-16,138,l),
(31,83,o),
(97,42,o),
(174,13,cs),
(253,-16,o),
(337,-30,o),
(424,-30,cs)
);
}
);
width = 1033;
},
{
layerId = "49A5562C-FB3D-4EE7-BE2B-5FF0A3F25A62";
shapes = (
{
closed = 1;
nodes = (
(515,-30,o),
(613,1,o),
(684,63,cs),
(755,126,o),
(793,210,o),
(793,314,cs),
(793,373,o),
(770,417,o),
(726,458,cs),
(680,499,o),
(616,532,o),
(521,562,cs),
(437,588,o),
(374,616,o),
(330,647,cs),
(285,680,o),
(264,712,o),
(264,761,cs),
(264,833,o),
(296,888,o),
(342,927,c),
(389,964,o),
(459,984,o),
(535,984,cs),
(604,984,o),
(667,973,o),
(718,948,cs),
(770,923,o),
(813,887,o),
(842,839,c),
(915,917,l),
(874,969,o),
(826,1008,o),
(765,1033,cs),
(705,1059,o),
(638,1070,o),
(559,1070,cs),
(449,1070,o),
(355,1037,o),
(284,977,cs),
(214,918,o),
(175,833,o),
(175,744,cs),
(175,685,o),
(195,638,o),
(240,597,cs),
(284,556,o),
(353,526,o),
(450,490,cs),
(539,456,o),
(601,426,o),
(642,397,cs),
(683,367,o),
(704,335,o),
(704,287,cs),
(704,214,o),
(674,155,o),
(622,115,cs),
(570,74,o),
(497,56,o),
(405,56,cs),
(339,56,o),
(273,69,o),
(220,92,c),
(165,118,o),
(121,154,o),
(88,203,c),
(9,132,l),
(43,83,o),
(96,43,o),
(165,14,cs),
(235,-15,o),
(313,-30,o),
(399,-30,cs)
);
}
);
width = 999;
}
);
leftKerningGroup = _s2;
rightKerningGroup = _s;
unicode = 115;
},
{
glyphname = t;
layers = (
{
layerId = "EBD03586-66CA-4B27-94EE-9B66F2D0C841";
shapes = (
{
closed = 1;
nodes = (
(597,-30,o),
(681,-11,o),
(746,18,c),
(786,345,l),
(746,328,o),
(708,320,o),
(669,320,cs),
(626,320,o),
(598,332,o),
(583,352,cs),
(568,372,o),
(570,404,o),
(579,440,cs),
(658,728,l),
(874,728,l),
(956,1040,l),
(740,1040,l),
(825,1354,l),
(414,1314,l),
(163,378,ls),
(129,250,o),
(146,150,o),
(207,79,cs),
(267,8,o),
(367,-30,o),
(504,-30,cs)
);
},
{
closed = 1;
nodes = (
(290,728,l),
(372,1040,l),
(156,1040,l),
(74,728,l)
);
}
);
width = 930;
},
{
layerId = "DDFB1734-E0D7-49FC-BA30-BBC7C7BD5F60";
shapes = (
{
closed = 1;
nodes = (
(556,-31,o),
(625,-20,o),
(679,6,c),
(684,182,l),
(647,167,o),
(608,157,o),
(561,157,cs),
(494,157,o),
(452,177,o),
(433,213,cs),
(414,248,o),
(418,302,o),
(436,367,cs),
(571,868,l),
(871,868,l),
(916,1040,l),
(616,1040,l),
(701,1344,l),
(497,1344,l),
(219,318,ls),
(189,207,o),
(199,122,o),
(247,62,cs),
(295,1,o),
(375,-31,o),
(490,-31,cs)
);
},
{
closed = 1;
nodes = (
(396,868,l),
(441,1040,l),
(176,1040,l),
(131,868,l)
);
}
);
width = 901;
},
{
layerId = "49A5562C-FB3D-4EE7-BE2B-5FF0A3F25A62";
shapes = (
{
closed = 1;
nodes = (
(531,-32,o),
(590,-26,o),
(636,-2,c),
(619,79,l),
(584,64,o),
(545,54,o),
(493,54,cs),
(410,54,o),
(360,78,o),
(339,125,c),
(317,170,o),
(322,237,o),
(346,321,c),
(516,955,l),
(869,955,l),
(891,1040,l),
(538,1040,l),
(620,1338,l),
(544,1350,l),
(253,280,ls),
(225,179,o),
(233,103,o),
(272,50,cs),
(313,-3,o),
(381,-32,o),
(480,-32,cs)
);
},
{
closed = 1;
nodes = (
(462,955,l),
(484,1040,l),
(188,1040,l),
(166,955,l)
);
}
);
width = 882;
}
);
leftKerningGroup = _t2;
rightKerningGroup = _t;
unicode = 116;
},
{
glyphname = u;
layers = (
{
layerId = "EBD03586-66CA-4B27-94EE-9B66F2D0C841";
shapes = (
{
closed = 1;
nodes = (
(484,-30,o),
(555,-8,o),
(615,24,cs),
(675,56,o),
(720,101,o),
(756,146,c),
(719,0,l),
(1059,0,l),
(1339,1040,l),
(939,1040,l),
(789,482,ls),
(776,434,o),
(753,394,o),
(721,369,cs),
(688,344,o),
(647,331,o),
(598,331,cs),
(549,331,o),
(522,344,o),
(510,369,c),
(497,393,o),
(500,433,o),
(509,482,c),
(659,1040,l),
(259,1040,l),
(95,428,ls),
(58,284,o),
(72,168,o),
(124,91,cs),
(175,14,o),
(270,-30,o),
(395,-30,cs)
);
}
);
width = 1326;
},
{
layerId = "DDFB1734-E0D7-49FC-BA30-BBC7C7BD5F60";
shapes = (
{
closed = 1;
nodes = (
(506,-31,o),
(570,-17,o),
(635,11,cs),
(698,39,o),
(755,80,o),
(805,134,c),
(771,0,l),
(958,0,l),
(1237,1040,l),
(1031,1040,l),
(870,440,ls),
(846,350,o),
(801,276,o),
(739,230,cs),
(678,183,o),
(609,157,o),
(534,157,cs),
(455,157,o),
(396,179,o),
(361,221,cs),
(326,262,o),
(315,328,o),
(333,409,c),
(502,1040,l),
(297,1040,l),
(117,366,l),
(87,248,o),
(107,148,o),
(166,79,cs),
(224,10,o),
(317,-31,o),
(434,-31,cs)
);
}
);
width = 1264;
},
{
layerId = "49A5562C-FB3D-4EE7-BE2B-5FF0A3F25A62";
shapes = (
{
closed = 1;
nodes = (
(519,-32,o),
(580,-23,o),
(647,2,cs),
(713,27,o),
(776,67,o),
(835,126,c),
(804,0,l),
(893,0,l),
(1172,1040,l),
(1090,1040,l),
(922,413,l),
(889,297,o),
(831,202,o),
(751,142,c),
(672,80,o),
(585,46,o),
(493,46,cs),
(395,46,o),
(315,74,o),
(267,127,c),
(217,179,o),
(198,260,o),
(221,362,c),
(402,1040,l),
(321,1040,l),
(130,327,l),
(105,225,o),
(129,135,o),
(191,71,cs),
(254,7,o),
(346,-32,o),
(458,-32,cs)
);
}
);
width = 1224;
}
);
leftKerningGroup = _u2;
rightKerningGroup = _u;
unicode = 117;
},
{
glyphname = v;
layers = (
{
layerId = "EBD03586-66CA-4B27-94EE-9B66F2D0C841";
shapes = (
{
closed = 1;
nodes = (
(692,0,l),
(1308,1040,l),
(872,1040,l),
(469,250,l),
(564,231,l),
(570,1040,l),
(151,1040,l),
(224,0,l)
);
}
);
width = 1178;
},
{
layerId = "DDFB1734-E0D7-49FC-BA30-BBC7C7BD5F60";
shapes = (
{
closed = 1;
nodes = (
(523,0,l),
(1189,1040,l),
(956,1040,l),
(411,140,l),
(465,130,l),
(398,1040,l),
(177,1040,l),
(288,0,l)
);
}
);
width = 1086;
},
{
layerId = "49A5562C-FB3D-4EE7-BE2B-5FF0A3F25A62";
shapes = (
{
closed = 1;
nodes = (
(416,0,l),
(1113,1040,l),
(1009,1040,l),
(374,71,l),
(402,67,l),
(289,1040,l),
(193,1040,l),
(328,0,l)
);
}
);
width = 1027;
}
);
leftKerningGroup = _v2;
rightKerningGroup = _v;
unicode = 118;
},
{
glyphname = w;
layers = (
{
layerId = "EBD03586-66CA-4B27-94EE-9B66F2D0C841";
shapes = (
{
closed = 1;
nodes = (
(563,0,l),
(870,544,l),
(868,0,l),
(1258,0,l),
(1850,1040,l),
(1456,1040,l),
(1177,476,l),
(1173,1040,l),
(815,1040,l),
(497,469,l),
(517,1040,l),
(147,1040,l),
(168,0,l)
);
}
);
width = 1716;
},
{
layerId = "DDFB1734-E0D7-49FC-BA30-BBC7C7BD5F60";
shapes = (
{
closed = 1;
nodes = (
(439,0,l),
(898,772,l),
(927,0,l),
(1141,0,l),
(1758,1040,l),
(1548,1040,l),
(1093,249,l),
(1072,1040,l),
(867,1040,l),
(393,244,l),
(374,1040,l),
(173,1040,l),
(221,0,l)
);
}
);
width = 1651;
},
{
layerId = "49A5562C-FB3D-4EE7-BE2B-5FF0A3F25A62";
shapes = (
{
closed = 1;
nodes = (
(361,0,l),
(914,916,l),
(964,0,l),
(1067,0,l),
(1699,1040,l),
(1607,1040,l),
(1040,106,l),
(1007,1040,l),
(900,1040,l),
(328,101,l),
(284,1040,l),
(189,1040,l),
(255,0,l)
);
}
);
width = 1610;
}
);
leftKerningGroup = _v2;
rightKerningGroup = _v;
unicode = 119;
},
{
glyphname = x;
layers = (
{
layerId = "EBD03586-66CA-4B27-94EE-9B66F2D0C841";
shapes = (
{
closed = 1;
nodes = (
(387,0,l),
(601,248,l),
(694,0,l),
(1183,0,l),
(944,493,l),
(1436,1040,l),
(913,1040,l),
(723,776,l),
(649,1040,l),
(169,1040,l),
(388,527,l),
(-123,2,l)
);
}
);
width = 1340;
},
{
layerId = "DDFB1734-E0D7-49FC-BA30-BBC7C7BD5F60";
shapes = (
{
closed = 1;
nodes = (
(153,1,l),
(514,384,l),
(674,0,l),
(925,0,l),
(687,522,l),
(1170,1040,l),
(906,1040,l),
(582,674,l),
(435,1040,l),
(190,1040,l),
(414,535,l),
(-109,2,l)
);
}
);
width = 1095;
},
{
layerId = "49A5562C-FB3D-4EE7-BE2B-5FF0A3F25A62";
shapes = (
{
closed = 1;
nodes = (
(5,1,l),
(459,470,l),
(662,0,l),
(763,0,l),
(525,541,l),
(1001,1040,l),
(902,1040,l),
(492,609,l),
(299,1040,l),
(203,1040,l),
(430,541,l),
(-100,1,l)
);
}
);
width = 940;
}
);
leftKerningGroup = _x2;
rightKerningGroup = _x;
unicode = 120;
},
{
glyphname = y;
layers = (
{
layerId = "EBD03586-66CA-4B27-94EE-9B66F2D0C841";
shapes = (
{
closed = 1;
nodes = (
(218,-450,o),
(309,-431,o),
(398,-379,cs),
(487,-327,o),
(571,-247,o),
(647,-127,cs),
(1376,1040,l),
(925,1040,l),
(586,402,l),
(567,1040,l),
(142,1040,l),
(266,28,l),
(240,-30,l),
(227,-53,o),
(207,-66,o),
(186,-75,cs),
(165,-84,o),
(140,-88,o),
(115,-88,cs),
(63,-88,o),
(8,-70,o),
(-40,-46,c),
(-203,-368,l),
(-162,-396,o),
(-111,-415,o),
(-55,-430,cs),
(1,-445,o),
(65,-450,o),
(126,-450,cs)
);
}
);
width = 1236;
},
{
layerId = "DDFB1734-E0D7-49FC-BA30-BBC7C7BD5F60";
shapes = (
{
closed = 1;
nodes = (
(141,-450,o),
(208,-435,o),
(275,-390,cs),
(341,-345,o),
(407,-277,o),
(472,-171,cs),
(1215,1040,l),
(985,1040,l),
(482,186,l),
(396,1040,l),
(176,1040,l),
(309,-41,l),
(265,-128,l),
(240,-172,o),
(211,-205,o),
(180,-226,cs),
(148,-248,o),
(111,-260,o),
(67,-260,cs),
(8,-260,o),
(-55,-239,o),
(-100,-193,c),
(-190,-365,l),
(-148,-402,o),
(-108,-422,o),
(-64,-436,cs),
(-21,-449,o),
(25,-450,o),
(68,-450,cs)
);
}
);
width = 1102;
},
{
layerId = "49A5562C-FB3D-4EE7-BE2B-5FF0A3F25A62";
shapes = (
{
closed = 1;
nodes = (
(92,-450,o),
(145,-438,o),
(197,-397,cs),
(249,-357,o),
(302,-296,o),
(361,-199,cs),
(1112,1040,l),
(1023,1040,l),
(416,50,l),
(288,1040,l),
(197,1040,l),
(337,-84,l),
(281,-190,l),
(248,-247,o),
(213,-292,o),
(176,-322,c),
(138,-351,o),
(92,-369,o),
(36,-369,cs),
(-26,-369,o),
(-94,-345,o),
(-137,-285,c),
(-182,-363,l),
(-139,-405,o),
(-105,-426,o),
(-70,-439,c),
(-34,-451,o),
(0,-450,o),
(31,-450,cs)
);
}
);
width = 1017;
}
);
leftKerningGroup = _y;
rightKerningGroup = _v;
unicode = 121;
},
{
glyphname = z;
layers = (
{
layerId = "EBD03586-66CA-4B27-94EE-9B66F2D0C841";
shapes = (
{
closed = 1;
nodes = (
(851,0,l),
(945,350,l),
(580,350,l),
(1054,781,l),
(1123,1040,l),
(239,1040,l),
(145,690,l),
(514,690,l),
(10,263,l),
(-59,0,l)
);
}
);
width = 1070;
},
{
layerId = "DDFB1734-E0D7-49FC-BA30-BBC7C7BD5F60";
shapes = (
{
closed = 1;
nodes = (
(781,0,l),
(830,184,l),
(283,184,l),
(1013,888,l),
(1053,1040,l),
(251,1040,l),
(201,856,l),
(739,856,l),
(0,154,l),
(-39,0,l)
);
}
);
width = 1021;
},
{
layerId = "49A5562C-FB3D-4EE7-BE2B-5FF0A3F25A62";
shapes = (
{
closed = 1;
nodes = (
(737,0,l),
(758,79,l),
(94,79,l),
(988,956,l),
(1009,1040,l),
(258,1040,l),
(236,961,l),
(882,961,l),
(-6,85,l),
(-27,0,l)
);
}
);
width = 989;
}
);
leftKerningGroup = _z2;
rightKerningGroup = _z;
unicode = 122;
},
{
glyphname = braceleft;
layers = (
{
layerId = "EBD03586-66CA-4B27-94EE-9B66F2D0C841";
shapes = (
{
closed = 1;
nodes = (
(524,40,l),
(463,39,o),
(422,46,o),
(402,67,cs),
(382,87,o),
(383,120,o),
(403,164,cs),
(533,442,l),
(561,506,o),
(567,562,o),
(550,605,cs),
(533,648,o),
(492,677,o),
(428,690,c),
(428,692,l),
(497,703,o),
(553,733,o),
(593,776,cs),
(632,819,o),
(657,874,o),
(661,938,c),
(687,1216,ls),
(692,1264,o),
(707,1297,o),
(739,1317,cs),
(770,1336,o),
(814,1344,o),
(874,1340,c),
(946,1606,l),
(763,1622,o),
(626,1595,o),
(529,1527,cs),
(432,1459,o),
(379,1349,o),
(363,1188,cs),
(342,948,ls),
(338,904,o),
(324,872,o),
(293,852,cs),
(261,832,o),
(211,824,o),
(135,824,c),
(64,558,l),
(140,558,o),
(186,550,o),
(207,531,cs),
(227,512,o),
(226,482,o),
(206,434,c),
(95,190,ls),
(26,33,o),
(20,-77,o),
(81,-145,cs),
(141,-213,o),
(263,-239,o),
(455,-226,c)
);
}
);
width = 732;
},
{
layerId = "DDFB1734-E0D7-49FC-BA30-BBC7C7BD5F60";
shapes = (
{
closed = 1;
nodes = (
(408,-78,l),
(338,-81,o),
(296,-77,o),
(273,-54,cs),
(251,-32,o),
(253,3,o),
(273,53,cs),
(436,456,ls),
(464,526,o),
(473,580,o),
(462,618,cs),
(450,656,o),
(416,678,o),
(362,690,c),
(362,692,l),
(421,703,o),
(468,727,o),
(500,766,cs),
(532,804,o),
(553,856,o),
(560,925,c),
(617,1327,ls),
(625,1380,o),
(641,1416,o),
(674,1436,cs),
(707,1456,o),
(755,1464,o),
(821,1458,c),
(862,1605,l),
(739,1622,o),
(641,1602,o),
(571,1555,cs),
(499,1507,o),
(457,1430,o),
(441,1322,c),
(389,917,l),
(380,856,o),
(367,819,o),
(336,796,cs),
(305,773,o),
(257,765,o),
(176,765,c),
(137,618,l),
(218,618,o),
(263,611,o),
(281,589,cs),
(299,567,o),
(293,530,o),
(267,465,c),
(99,54,ls),
(57,-49,o),
(58,-126,o),
(104,-174,cs),
(149,-221,o),
(236,-239,o),
(371,-225,c)
);
}
);
width = 686;
},
{
layerId = "49A5562C-FB3D-4EE7-BE2B-5FF0A3F25A62";
shapes = (
{
closed = 1;
nodes = (
(334,-152,l),
(260,-157,o),
(215,-154,o),
(192,-130,c),
(168,-107,o),
(171,-71,o),
(191,-16,c),
(375,465,ls),
(403,538,o),
(414,590,o),
(406,626,cs),
(398,660,o),
(369,679,o),
(319,690,c),
(319,692,l),
(374,703,o),
(414,723,o),
(441,759,c),
(469,794,o),
(487,844,o),
(497,917,c),
(573,1396,ls),
(582,1454,o),
(600,1490,o),
(633,1511,cs),
(666,1532,o),
(717,1539,o),
(787,1532,c),
(808,1604,l),
(724,1621,o),
(651,1606,o),
(596,1571,cs),
(540,1537,o),
(506,1480,o),
(491,1407,c),
(418,898,l),
(407,826,o),
(395,785,o),
(364,761,c),
(333,735,o),
(286,728,o),
(201,728,c),
(183,656,l),
(268,656,o),
(312,649,o),
(328,626,cs),
(345,601,o),
(334,560,o),
(305,484,cs),
(102,-32,l),
(76,-101,o),
(82,-157,o),
(119,-192,cs),
(155,-227,o),
(220,-239,o),
(317,-224,c)
);
}
);
width = 657;
}
);
rightKerningGroup = _parenleft;
unicode = 123;
},
{
glyphname = bar;
layers = (
{
layerId = "EBD03586-66CA-4B27-94EE-9B66F2D0C841";
shapes = (
{
closed = 1;
nodes = (
(321,-220,l),
(812,1600,l),
(492,1600,l),
(1,-220,l)
);
}
);
width = 720;
},
{
layerId = "DDFB1734-E0D7-49FC-BA30-BBC7C7BD5F60";
shapes = (
{
closed = 1;
nodes = (
(174,-220,l),
(665,1600,l),
(499,1600,l),
(8,-220,l)
);
}
);
width = 566;
},
{
layerId = "49A5562C-FB3D-4EE7-BE2B-5FF0A3F25A62";
shapes = (
{
closed = 1;
nodes = (
(81,-220,l),
(572,1600,l),
(503,1600,l),
(12,-220,l)
);
}
);
width = 469;
}
);
leftKerningGroup = _bar2;
rightKerningGroup = _bar;
unicode = 124;
},
{
glyphname = braceright;
layers = (
{
layerId = "EBD03586-66CA-4B27-94EE-9B66F2D0C841";
shapes = (
{
closed = 1;
nodes = (
(-135,-226,l),
(48,-239,o),
(186,-213,o),
(283,-145,cs),
(380,-77,o),
(434,33,o),
(449,190,cs),
(471,434,l),
(474,482,o),
(489,512,o),
(521,531,cs),
(553,550,o),
(602,558,o),
(678,558,c),
(751,824,l),
(675,824,o),
(631,832,o),
(608,852,cs),
(585,872,o),
(589,904,o),
(610,948,c),
(716,1188,ls),
(788,1349,o),
(793,1459,o),
(733,1527,cs),
(673,1595,o),
(551,1622,o),
(360,1606,c),
(288,1340,l),
(349,1344,o),
(391,1336,o),
(411,1317,cs),
(431,1297,o),
(429,1264,o),
(409,1216,c),
(284,938,l),
(223,810,o),
(260,715,o),
(387,692,c),
(384,690,l),
(315,677,o),
(257,648,o),
(217,605,cs),
(177,562,o),
(150,506,o),
(145,442,cs),
(124,164,ls),
(120,120,o),
(106,87,o),
(75,67,cs),
(44,46,o),
(-2,39,o),
(-62,40,c)
);
}
);
width = 732;
},
{
layerId = "DDFB1734-E0D7-49FC-BA30-BBC7C7BD5F60";
shapes = (
{
closed = 1;
nodes = (
(-79,-225,l),
(45,-239,o),
(144,-221,o),
(215,-174,cs),
(286,-126,o),
(329,-49,o),
(342,54,cs),
(396,465,l),
(402,530,o),
(416,567,o),
(447,589,cs),
(478,611,o),
(526,618,o),
(608,618,c),
(648,765,l),
(567,765,o),
(525,773,o),
(504,796,cs),
(484,819,o),
(492,856,o),
(517,917,cs),
(681,1322,l),
(726,1430,o),
(723,1507,o),
(677,1555,cs),
(632,1602,o),
(544,1622,o),
(413,1605,c),
(374,1458,l),
(444,1464,o),
(490,1456,o),
(510,1436,cs),
(531,1416,o),
(529,1380,o),
(509,1327,c),
(348,925,l),
(289,787,o),
(315,713,o),
(423,692,c),
(420,690,l),
(360,678,o),
(313,656,o),
(281,618,cs),
(248,580,o),
(228,526,o),
(220,456,c),
(166,53,ls),
(159,3,o),
(143,-32,o),
(110,-54,cs),
(76,-77,o),
(27,-81,o),
(-39,-78,c)
);
}
);
width = 686;
},
{
layerId = "49A5562C-FB3D-4EE7-BE2B-5FF0A3F25A62";
shapes = (
{
closed = 1;
nodes = (
(-42,-224,l),
(42,-239,o),
(116,-227,o),
(172,-192,cs),
(227,-157,o),
(261,-101,o),
(274,-32,c),
(349,484,l),
(356,560,o),
(369,601,o),
(400,626,c),
(431,649,o),
(477,656,o),
(562,656,c),
(583,728,l),
(498,728,o),
(457,735,o),
(439,761,cs),
(421,785,o),
(430,826,o),
(458,898,cs),
(659,1407,l),
(686,1480,o),
(677,1537,o),
(642,1571,cs),
(605,1606,o),
(538,1621,o),
(447,1604,c),
(428,1532,l),
(503,1539,o),
(552,1532,o),
(573,1511,cs),
(594,1490,o),
(592,1454,o),
(572,1396,c),
(389,917,l),
(330,772,o),
(349,711,o),
(446,692,c),
(443,690,l),
(388,679,o),
(347,660,o),
(321,626,cs),
(294,590,o),
(277,538,o),
(267,465,c),
(193,-16,l),
(183,-71,o),
(166,-107,o),
(131,-130,cs),
(95,-154,o),
(46,-157,o),
(-24,-152,c)
);
}
);
width = 657;
}
);
leftKerningGroup = _parenright;
unicode = 125;
},
{
glyphname = asciitilde;
layers = (
{
layerId = "EBD03586-66CA-4B27-94EE-9B66F2D0C841";
shapes = (
{
closed = 1;
nodes = (
(1053,460,o),
(1179,519,o),
(1295,639,c),
(1210,874,l),
(1122,778,o),
(1039,732,o),
(955,732,cs),
(891,732,o),
(811,769,o),
(726,806,cs),
(641,843,o),
(550,880,o),
(461,880,cs),
(340,880,o),
(222,819,o),
(109,702,c),
(194,466,l),
(278,562,o),
(363,608,o),
(448,608,cs),
(519,608,o),
(583,571,o),
(659,534,cs),
(734,497,o),
(817,460,o),
(928,460,cs)
);
}
);
width = 1296;
},
{
layerId = "DDFB1734-E0D7-49FC-BA30-BBC7C7BD5F60";
shapes = (
{
closed = 1;
nodes = (
(1021,516,o),
(1128,562,o),
(1230,669,c),
(1182,796,l),
(1098,708,o),
(1015,665,o),
(940,665,cs),
(876,665,o),
(808,702,o),
(733,739,cs),
(656,776,o),
(577,813,o),
(488,813,cs),
(387,813,o),
(282,765,o),
(180,657,c),
(236,539,l),
(311,619,o),
(398,664,o),
(474,664,cs),
(538,664,o),
(604,627,o),
(677,590,cs),
(749,553,o),
(827,516,o),
(922,516,cs)
);
}
);
width = 1296;
},
{
layerId = "49A5562C-FB3D-4EE7-BE2B-5FF0A3F25A62";
shapes = (
{
closed = 1;
nodes = (
(1000,551,o),
(1095,590,o),
(1189,688,c),
(1163,746,l),
(1083,664,o),
(1000,622,o),
(930,622,cs),
(866,622,o),
(806,643,o),
(736,680,cs),
(666,717,o),
(593,770,o),
(504,770,cs),
(416,770,o),
(319,731,o),
(224,629,c),
(261,585,l),
(332,654,o),
(420,699,o),
(490,699,cs),
(550,699,o),
(616,662,o),
(687,625,cs),
(759,588,o),
(833,551,o),
(918,551,cs)
);
}
);
width = 1296;
}
);
leftKerningGroup = _plus2;
rightKerningGroup = _plus;
unicode = 126;
},
{
color = (153, 255, 154, 255);
glyphname = exclamdown;
layers = (
{
layerId = "EBD03586-66CA-4B27-94EE-9B66F2D0C841";
shapes = (
{
closed = 1;
nodes = (
(370,-400,l),
(548,504,l),
(184,504,l),
(-122,-400,l)
);
},
{
closed = 1;
nodes = (
(570,624,o),
(687,735,o),
(687,883,cs),
(687,1002,o),
(587,1070,o),
(476,1070,cs),
(327,1070,o),
(212,965,o),
(212,813,cs),
(212,693,o),
(312,624,o),
(424,624,cs)
);
}
);
width = 720;
},
{
layerId = "DDFB1734-E0D7-49FC-BA30-BBC7C7BD5F60";
shapes = (
{
closed = 1;
nodes = (
(208,-400,l),
(425,543,l),
(247,543,l),
(-38,-400,l)
);
},
{
closed = 1;
nodes = (
(502,763,o),
(582,833,o),
(582,924,cs),
(582,996,o),
(519,1042,o),
(451,1042,cs),
(357,1042,o),
(282,978,o),
(282,882,cs),
(282,810,o),
(345,763,o),
(413,763,cs)
);
}
);
width = 664;
},
{
layerId = "49A5562C-FB3D-4EE7-BE2B-5FF0A3F25A62";
shapes = (
{
closed = 1;
nodes = (
(109,-400,l),
(344,524,l),
(282,524,l),
(21,-400,l)
);
},
{
closed = 1;
nodes = (
(456,806,o),
(511,849,o),
(511,905,cs),
(511,949,o),
(473,980,o),
(430,980,cs),
(373,980,o),
(322,941,o),
(322,881,cs),
(322,838,o),
(361,806,o),
(403,806,cs)
);
}
);
width = 629;
}
);
leftKerningGroup = _colon2;
rightKerningGroup = _colon;
unicode = 161;
},
{
glyphname = cent;
layers = (
{
layerId = "EBD03586-66CA-4B27-94EE-9B66F2D0C841";
shapes = (
{
closed = 1;
nodes = (
(620,-160,l),
(658,1,l),
(747,5,o),
(844,23,o),
(919,64,c),
(907,363,l),
(850,335,o),
(811,326,o),
(750,321,c),
(848,696,l),
(878,688,o),
(909,675,o),
(940,649,c),
(1124,889,l),
(1083,937,o),
(1009,984,o),
(926,1007,c),
(978,1200,l),
(732,1200,l),
(692,1037,l),
(402,1012,o),
(161,760,o),
(156,439,cs),
(152,243,o),
(253,89,o),
(424,30,c),
(374,-160,l)
);
},
{
closed = 1;
nodes = (
(508,352,l),
(466,376,o),
(445,425,o),
(447,487,cs),
(448,575,o),
(508,702,o),
(600,707,c)
);
}
);
width = 1200;
},
{
layerId = "DDFB1734-E0D7-49FC-BA30-BBC7C7BD5F60";
shapes = (
{
closed = 1;
nodes = (
(562,-169,l),
(606,1,l),
(726,2,o),
(827,30,o),
(929,96,c),
(879,244,l),
(807,189,o),
(738,172,o),
(650,171,c),
(832,852,l),
(886,843,o),
(929,819,o),
(970,779,c),
(1089,903,l),
(1033,964,o),
(965,1002,o),
(874,1019,c),
(926,1209,l),
(777,1209,l),
(734,1033,l),
(434,1021,o),
(178,768,o),
(173,434,c),
(169,229,o),
(282,72,o),
(464,20,c),
(413,-169,l)
);
},
{
closed = 1;
nodes = (
(507,190,l),
(393,226,o),
(337,316,o),
(339,450,cs),
(343,670,o),
(473,859,o),
(685,862,c)
);
}
);
width = 1200;
},
{
layerId = "49A5562C-FB3D-4EE7-BE2B-5FF0A3F25A62";
shapes = (
{
closed = 1;
nodes = (
(525,-175,l),
(573,0,l),
(711,-1,o),
(817,33,o),
(935,115,c),
(860,169,l),
(779,97,o),
(691,75,o),
(587,75,c),
(822,951,l),
(892,940,o),
(941,909,o),
(989,860,c),
(1066,912,l),
(1000,980,o),
(937,1012,o),
(841,1026,c),
(893,1215,l),
(805,1215,l),
(761,1030,l),
(453,1027,o),
(188,774,o),
(183,431,c),
(179,219,o),
(301,60,o),
(489,13,c),
(438,-175,l)
);
},
{
closed = 1;
nodes = (
(506,87,l),
(347,132,o),
(268,247,o),
(271,426,cs),
(275,730,o),
(450,958,o),
(738,959,c)
);
}
);
width = 1200;
}
);
unicode = 162;
},
{
glyphname = sterling;
layers = (
{
layerId = "EBD03586-66CA-4B27-94EE-9B66F2D0C841";
shapes = (
{
closed = 1;
nodes = (
(1017,0,l),
(1098,300,l),
(570,300,l),
(624,372,o),
(667,470,o),
(669,564,cs),
(670,624,o),
(677,685,o),
(683,745,c),
(684,793,o),
(695,843,o),
(695,892,cs),
(698,1015,o),
(749,1132,o),
(892,1132,cs),
(972,1132,o),
(1052,1105,o),
(1137,1022,c),
(1322,1260,l),
(1243,1388,o),
(1036,1436,o),
(903,1436,cs),
(622,1436,o),
(356,1266,o),
(350,932,cs),
(349,861,o),
(351,790,o),
(351,719,cs),
(352,645,o),
(352,577,o),
(351,534,cs),
(348,332,o),
(211,308,o),
(58,297,c),
(-17,0,l)
);
},
{
closed = 1;
nodes = (
(971,564,l),
(1035,816,l),
(179,816,l),
(115,564,l)
);
}
);
width = 1200;
},
{
layerId = "DDFB1734-E0D7-49FC-BA30-BBC7C7BD5F60";
shapes = (
{
closed = 1;
nodes = (
(976,0,l),
(1020,163,l),
(397,163,l),
(513,251,o),
(573,355,o),
(575,509,cs),
(577,584,o),
(583,660,o),
(592,733,c),
(596,805,o),
(604,875,o),
(606,947,cs),
(609,1132,o),
(702,1274,o),
(886,1274,cs),
(995,1274,o),
(1082,1238,o),
(1164,1150,c),
(1270,1282,l),
(1183,1396,o),
(1026,1440,o),
(895,1440,cs),
(637,1440,o),
(428,1260,o),
(423,969,cs),
(421,891,o),
(422,815,o),
(419,737,cs),
(416,660,o),
(413,584,o),
(412,514,cs),
(408,280,o),
(272,211,o),
(85,164,c),
(42,0,l)
);
},
{
closed = 1;
nodes = (
(992,619,l),
(1030,765,l),
(224,765,l),
(186,619,l)
);
}
);
width = 1200;
},
{
layerId = "49A5562C-FB3D-4EE7-BE2B-5FF0A3F25A62";
shapes = (
{
closed = 1;
nodes = (
(948,0,l),
(970,77,l),
(287,77,l),
(441,174,o),
(513,283,o),
(516,475,c),
(518,559,o),
(524,643,o),
(534,725,c),
(541,811,o),
(548,896,o),
(550,982,c),
(553,1204,o),
(673,1362,o),
(883,1362,cs),
(1010,1362,o),
(1102,1323,o),
(1180,1231,c),
(1236,1297,l),
(1146,1400,o),
(1019,1442,o),
(889,1442,cs),
(646,1442,o),
(472,1257,o),
(467,992,c),
(467,910,o),
(465,830,o),
(460,747,cs),
(456,668,o),
(451,588,o),
(450,501,c),
(445,247,o),
(310,150,o),
(101,81,c),
(80,0,l)
);
},
{
closed = 1;
nodes = (
(1007,653,l),
(1026,733,l),
(252,733,l),
(233,653,l)
);
}
);
width = 1200;
}
);
unicode = 163;
},
{
glyphname = currency;
layers = (
{
layerId = "EBD03586-66CA-4B27-94EE-9B66F2D0C841";
shapes = (
{
closed = 1;
nodes = (
(394,218,l),
(449,182,o),
(508,170,o),
(578,170,cs),
(645,170,o),
(701,187,o),
(763,221,c),
(886,63,l),
(1104,264,l),
(987,417,l),
(1038,498,o),
(1065,573,o),
(1067,674,cs),
(1068,726,o),
(1059,782,o),
(1041,829,c),
(1205,981,l),
(1048,1181,l),
(882,1027,l),
(828,1062,o),
(770,1074,o),
(700,1074,cs),
(634,1074,o),
(575,1056,o),
(514,1023,c),
(389,1181,l),
(173,981,l),
(290,830,l),
(245,756,o),
(212,672,o),
(210,569,cs),
(209,519,o),
(214,467,o),
(232,418,c),
(72,265,l),
(228,63,l)
);
},
{
closed = 1;
nodes = (
(541,456,o),
(485,512,o),
(486,596,cs),
(488,698,o),
(563,786,o),
(658,786,cs),
(738,786,o),
(792,734,o),
(790,645,cs),
(788,543,o),
(713,456,o),
(617,456,cs)
);
}
);
width = 1200;
},
{
layerId = "DDFB1734-E0D7-49FC-BA30-BBC7C7BD5F60";
shapes = (
{
closed = 1;
nodes = (
(388,280,l),
(444,231,o),
(508,209,o),
(586,209,cs),
(661,209,o),
(733,232,o),
(803,282,c),
(924,126,l),
(1047,240,l),
(929,392,l),
(995,471,o),
(1034,566,o),
(1036,671,cs),
(1037,733,o),
(1025,794,o),
(994,849,c),
(1157,1000,l),
(1065,1117,l),
(903,966,l),
(849,1013,o),
(783,1033,o),
(705,1033,cs),
(631,1033,o),
(559,1011,o),
(486,960,c),
(365,1117,l),
(243,1004,l),
(362,852,l),
(300,776,o),
(259,683,o),
(257,568,cs),
(256,509,o),
(265,450,o),
(296,395,c),
(133,244,l),
(224,126,l)
);
},
{
closed = 1;
nodes = (
(496,365,o),
(405,453,o),
(408,586,cs),
(411,743,o),
(535,877,o),
(680,877,cs),
(802,877,o),
(885,793,o),
(883,658,cs),
(880,499,o),
(763,365,o),
(615,365,cs)
);
}
);
width = 1200;
},
{
layerId = "49A5562C-FB3D-4EE7-BE2B-5FF0A3F25A62";
shapes = (
{
closed = 1;
nodes = (
(382,319,l),
(440,262,o),
(509,234,o),
(592,234,cs),
(671,234,o),
(752,260,o),
(828,320,c),
(948,166,l),
(1010,225,l),
(892,376,l),
(967,453,o),
(1013,560,o),
(1015,668,cs),
(1016,737,o),
(1004,801,o),
(964,861,c),
(1127,1012,l),
(1075,1076,l),
(916,927,l),
(861,982,o),
(791,1008,o),
(708,1008,cs),
(629,1008,o),
(547,982,o),
(468,920,c),
(349,1076,l),
(289,1019,l),
(406,865,l),
(334,788,o),
(288,689,o),
(286,567,cs),
(285,502,o),
(297,438,o),
(337,380,c),
(172,229,l),
(221,166,l)
);
},
{
closed = 1;
nodes = (
(467,307,o),
(355,415,o),
(358,579,cs),
(361,771,o),
(516,935,o),
(693,935,cs),
(843,935,o),
(944,830,o),
(942,666,c),
(938,471,o),
(795,307,o),
(613,307,cs)
);
}
);
width = 1200;
}
);
unicode = 164;
},
{
glyphname = yen;
layers = (
{
layerId = "EBD03586-66CA-4B27-94EE-9B66F2D0C841";
shapes = (
{
closed = 1;
nodes = (
(634,0,l),
(698,248,l),
(1030,248,l),
(1089,475,l),
(758,475,l),
(785,588,l),
(1121,588,l),
(1181,816,l),
(942,816,l),
(1466,1410,l),
(1073,1410,l),
(701,947,l),
(593,1410,l),
(232,1410,l),
(415,816,l),
(171,816,l),
(112,588,l),
(441,588,l),
(413,475,l),
(80,475,l),
(20,248,l),
(349,248,l),
(286,0,l)
);
}
);
width = 1200;
},
{
layerId = "DDFB1734-E0D7-49FC-BA30-BBC7C7BD5F60";
shapes = (
{
closed = 1;
nodes = (
(566,0,l),
(642,298,l),
(999,298,l),
(1035,437,l),
(680,437,l),
(728,617,l),
(1083,617,l),
(1121,756,l),
(840,756,l),
(1406,1410,l),
(1198,1410,l),
(683,806,l),
(505,1410,l),
(313,1410,l),
(510,756,l),
(230,756,l),
(192,617,l),
(547,617,l),
(498,437,l),
(143,437,l),
(106,298,l),
(461,298,l),
(385,0,l)
);
}
);
width = 1200;
},
{
layerId = "49A5562C-FB3D-4EE7-BE2B-5FF0A3F25A62";
shapes = (
{
closed = 1;
nodes = (
(523,0,l),
(608,330,l),
(978,330,l),
(1000,413,l),
(629,413,l),
(691,636,l),
(1059,636,l),
(1083,719,l),
(774,719,l),
(1367,1410,l),
(1277,1410,l),
(671,715,l),
(450,1410,l),
(366,1410,l),
(571,719,l),
(267,719,l),
(243,636,l),
(612,636,l),
(552,413,l),
(182,413,l),
(160,330,l),
(531,330,l),
(446,0,l)
);
}
);
width = 1200;
}
);
unicode = 165;
},
{
glyphname = brokenbar;
layers = (
{
layerId = "EBD03586-66CA-4B27-94EE-9B66F2D0C841";
shapes = (
{
closed = 1;
nodes = (
(599,810,l),
(779,1480,l),
(459,1480,l),
(279,810,l)
);
},
{
closed = 1;
nodes = (
(354,-100,l),
(533,570,l),
(213,570,l),
(34,-100,l)
);
}
);
width = 720;
},
{
layerId = "DDFB1734-E0D7-49FC-BA30-BBC7C7BD5F60";
shapes = (
{
closed = 1;
nodes = (
(452,810,l),
(632,1480,l),
(466,1480,l),
(286,810,l)
);
},
{
closed = 1;
nodes = (
(208,-100,l),
(386,570,l),
(220,570,l),
(42,-100,l)
);
}
);
width = 566;
},
{
layerId = "49A5562C-FB3D-4EE7-BE2B-5FF0A3F25A62";
shapes = (
{
closed = 1;
nodes = (
(359,810,l),
(539,1480,l),
(470,1480,l),
(290,810,l)
);
},
{
closed = 1;
nodes = (
(115,-100,l),
(293,570,l),
(224,570,l),
(46,-100,l)
);
}
);
width = 469;
}
);
leftKerningGroup = _bar2;
rightKerningGroup = _bar;
unicode = 166;
},
{
glyphname = section;
layers = (
{
layerId = "EBD03586-66CA-4B27-94EE-9B66F2D0C841";
shapes = (
{
closed = 1;
nodes = (
(611,-453,o),
(749,-412,o),
(854,-334,cs),
(959,-257,o),
(1023,-142,o),
(1023,3,cs),
(1023,85,o),
(993,150,o),
(936,205,cs),
(880,261,o),
(792,302,o),
(675,338,c),
(605,357,o),
(550,380,o),
(510,404,cs),
(471,428,o),
(449,456,o),
(449,492,cs),
(449,549,o),
(479,590,o),
(529,617,cs),
(577,644,o),
(642,658,o),
(712,652,c),
(752,860,l),
(664,861,o),
(580,853,o),
(499,837,cs),
(419,820,o),
(349,795,o),
(289,760,cs),
(229,725,o),
(180,682,o),
(145,628,cs),
(110,573,o),
(92,509,o),
(92,436,cs),
(92,346,o),
(132,283,o),
(204,227,cs),
(277,170,o),
(385,127,o),
(523,86,cs),
(587,66,o),
(627,50,o),
(655,30,cs),
(683,10,o),
(692,-11,o),
(692,-34,cs),
(692,-70,o),
(670,-96,o),
(636,-115,cs),
(603,-134,o),
(556,-143,o),
(508,-143,cs),
(436,-143,o),
(364,-130,o),
(296,-103,cs),
(228,-76,o),
(163,-41,o),
(112,0,c),
(-78,-269,l),
(-17,-320,o),
(60,-367,o),
(153,-400,cs),
(246,-432,o),
(351,-453,o),
(461,-453,cs)
);
},
{
closed = 1;
nodes = (
(583,133,l),
(761,134,o),
(924,164,o),
(1046,233,cs),
(1168,301,o),
(1245,406,o),
(1245,560,cs),
(1245,644,o),
(1209,710,o),
(1138,765,cs),
(1066,821,o),
(969,862,o),
(840,899,c),
(766,923,o),
(717,940,o),
(689,960,cs),
(660,979,o),
(647,997,o),
(647,1021,cs),
(647,1062,o),
(669,1089,o),
(701,1107,cs),
(732,1124,o),
(775,1130,o),
(819,1130,cs),
(879,1130,o),
(946,1116,o),
(1015,1091,cs),
(1083,1066,o),
(1145,1032,o),
(1193,987,c),
(1382,1256,l),
(1321,1316,o),
(1241,1359,o),
(1152,1392,cs),
(1062,1424,o),
(963,1440,o),
(865,1440,cs),
(715,1440,o),
(581,1400,o),
(480,1323,cs),
(380,1246,o),
(318,1131,o),
(318,985,cs),
(318,821,o),
(431,719,o),
(652,659,cs),
(733,637,o),
(791,614,o),
(831,590,cs),
(870,566,o),
(889,536,o),
(889,502,cs),
(889,442,o),
(857,401,o),
(809,374,cs),
(759,345,o),
(692,334,o),
(623,339,c)
);
}
);
width = 1320;
},
{
layerId = "DDFB1734-E0D7-49FC-BA30-BBC7C7BD5F60";
shapes = (
{
closed = 1;
nodes = (
(556,-453,o),
(678,-415,o),
(769,-343,cs),
(860,-272,o),
(915,-169,o),
(915,-38,cs),
(915,37,o),
(887,95,o),
(838,145,c),
(786,194,o),
(709,232,o),
(611,269,c),
(535,296,o),
(470,325,o),
(426,360,cs),
(381,395,o),
(355,435,o),
(355,491,cs),
(355,576,o),
(397,638,o),
(466,681,cs),
(535,722,o),
(629,743,o),
(733,741,c),
(762,866,l),
(691,874,o),
(620,869,o),
(549,854,cs),
(477,838,o),
(415,812,o),
(359,775,cs),
(304,740,o),
(259,696,o),
(224,640,cs),
(188,584,o),
(172,524,o),
(172,454,cs),
(172,376,o),
(203,316,o),
(259,263,cs),
(313,209,o),
(397,165,o),
(503,125,cs),
(588,94,o),
(642,66,o),
(682,36,c),
(720,4,o),
(735,-28,o),
(735,-69,cs),
(735,-139,o),
(705,-190,o),
(652,-229,cs),
(600,-268,o),
(529,-287,o),
(449,-287,cs),
(379,-287,o),
(309,-275,o),
(246,-248,cs),
(182,-221,o),
(123,-184,o),
(80,-135,c),
(-41,-279,l),
(6,-325,o),
(72,-369,o),
(153,-401,cs),
(234,-433,o),
(324,-453,o),
(423,-453,cs)
);
},
{
closed = 1;
nodes = (
(558,147,l),
(711,142,o),
(853,176,o),
(960,248,cs),
(1066,319,o),
(1134,424,o),
(1134,564,cs),
(1134,640,o),
(1104,700,o),
(1046,751,cs),
(989,801,o),
(909,841,o),
(809,877,c),
(728,907,o),
(666,932,o),
(624,961,cs),
(582,990,o),
(561,1022,o),
(561,1069,cs),
(561,1136,o),
(590,1186,o),
(636,1222,cs),
(683,1258,o),
(748,1275,o),
(821,1275,cs),
(890,1275,o),
(956,1261,o),
(1019,1236,cs),
(1081,1211,o),
(1135,1176,o),
(1175,1128,c),
(1290,1274,l),
(1239,1329,o),
(1176,1368,o),
(1103,1399,c),
(1028,1427,o),
(945,1440,o),
(858,1440,cs),
(730,1440,o),
(614,1403,o),
(528,1332,cs),
(441,1262,o),
(389,1163,o),
(389,1037,cs),
(389,898,o),
(489,810,o),
(684,737,cs),
(772,705,o),
(836,677,o),
(880,646,cs),
(923,616,o),
(944,581,o),
(944,538,cs),
(944,450,o),
(904,383,o),
(839,335,cs),
(773,287,o),
(685,265,o),
(585,270,c)
);
}
);
width = 1254;
},
{
layerId = "49A5562C-FB3D-4EE7-BE2B-5FF0A3F25A62";
shapes = (
{
closed = 1;
nodes = (
(521,-453,o),
(631,-417,o),
(715,-349,cs),
(796,-282,o),
(847,-185,o),
(847,-63,cs),
(847,7,o),
(821,60,o),
(774,107,cs),
(727,153,o),
(656,187,o),
(571,225,c),
(488,257,o),
(420,291,o),
(372,332,cs),
(322,374,o),
(296,422,o),
(296,490,cs),
(296,592,o),
(344,669,o),
(426,720,cs),
(507,769,o),
(620,797,o),
(745,797,c),
(768,869,l),
(707,882,o),
(645,879,o),
(580,864,cs),
(515,848,o),
(456,822,o),
(404,785,cs),
(351,749,o),
(309,705,o),
(274,647,cs),
(239,591,o),
(223,533,o),
(223,464,cs),
(223,395,o),
(248,337,o),
(293,285,cs),
(336,234,o),
(404,189,o),
(491,150,c),
(588,110,o),
(652,77,o),
(698,39,cs),
(743,1,o),
(763,-38,o),
(763,-91,cs),
(763,-182,o),
(727,-250,o),
(663,-301,cs),
(598,-352,o),
(510,-378,o),
(411,-378,cs),
(341,-378,o),
(274,-366,o),
(213,-338,cs),
(153,-311,o),
(98,-275,o),
(58,-221,c),
(-18,-285,l),
(21,-328,o),
(80,-370,o),
(153,-402,cs),
(226,-433,o),
(308,-453,o),
(398,-453,cs)
);
},
{
closed = 1;
nodes = (
(542,156,l),
(679,146,o),
(807,183,o),
(904,257,cs),
(1003,329,o),
(1064,434,o),
(1064,566,cs),
(1064,637,o),
(1035,694,o),
(987,742,cs),
(938,789,o),
(872,828,o),
(789,862,c),
(703,897,o),
(632,926,o),
(583,962,cs),
(533,997,o),
(505,1038,o),
(505,1100,cs),
(505,1182,o),
(540,1247,o),
(595,1295,cs),
(650,1342,o),
(730,1366,o),
(822,1366,cs),
(896,1366,o),
(962,1352,o),
(1021,1328,cs),
(1079,1303,o),
(1128,1267,o),
(1163,1216,c),
(1230,1286,l),
(1187,1337,o),
(1135,1374,o),
(1070,1402,cs),
(1006,1429,o),
(935,1440,o),
(852,1440,cs),
(739,1440,o),
(635,1405,o),
(557,1338,cs),
(479,1272,o),
(432,1182,o),
(432,1070,cs),
(432,945,o),
(527,866,o),
(703,787,c),
(797,748,o),
(864,716,o),
(910,682,cs),
(957,647,o),
(979,609,o),
(979,559,cs),
(979,456,o),
(933,371,o),
(858,310,cs),
(782,250,o),
(681,221,o),
(561,226,c)
);
}
);
width = 1211;
}
);
unicode = 167;
},
{
glyphname = copyright;
layers = (
{
layerId = "EBD03586-66CA-4B27-94EE-9B66F2D0C841";
shapes = (
{
closed = 1;
nodes = (
(1047,-48,o),
(1230,30,o),
(1363,162,cs),
(1496,294,o),
(1576,474,o),
(1576,682,cs),
(1576,887,o),
(1496,1067,o),
(1363,1200,cs),
(1230,1333,o),
(1047,1412,o),
(838,1412,cs),
(629,1412,o),
(446,1335,o),
(313,1203,cs),
(180,1071,o),
(100,891,o),
(100,682,cs),
(100,475,o),
(181,295,o),
(314,163,cs),
(447,30,o),
(630,-48,o),
(839,-48,cs)
);
},
{
closed = 1;
nodes = (
(681,112,o),
(543,169,o),
(442,269,cs),
(341,369,o),
(278,509,o),
(278,682,cs),
(278,857,o),
(341,996,o),
(442,1096,cs),
(543,1196,o),
(685,1250,o),
(838,1250,cs),
(995,1250,o),
(1133,1196,o),
(1234,1096,cs),
(1335,996,o),
(1398,857,o),
(1398,682,cs),
(1398,509,o),
(1337,369,o),
(1236,269,cs),
(1135,169,o),
(995,112,o),
(838,112,cs)
);
},
{
closed = 1;
nodes = (
(1006,274,o),
(1104,310,o),
(1180,366,c),
(1088,536,l),
(1024,491,o),
(953,470,o),
(880,470,cs),
(807,470,o),
(748,491,o),
(708,528,cs),
(668,564,o),
(646,617,o),
(646,682,cs),
(646,747,o),
(667,800,o),
(707,837,cs),
(747,874,o),
(806,894,o),
(878,894,cs),
(958,894,o),
(1018,872,o),
(1062,828,c),
(1162,994,l),
(1087,1057,o),
(1000,1090,o),
(864,1090,cs),
(739,1090,o),
(632,1048,o),
(556,976,cs),
(479,904,o),
(434,801,o),
(434,680,cs),
(434,555,o),
(479,456,o),
(555,385,cs),
(631,314,o),
(737,274,o),
(862,274,cs)
);
}
);
width = 1676;
},
{
layerId = "DDFB1734-E0D7-49FC-BA30-BBC7C7BD5F60";
shapes = (
{
closed = 1;
nodes = (
(1050,-35,o),
(1232,43,o),
(1365,175,cs),
(1497,307,o),
(1576,487,o),
(1576,695,cs),
(1576,901,o),
(1497,1081,o),
(1365,1214,cs),
(1232,1347,o),
(1050,1425,o),
(839,1425,cs),
(627,1425,o),
(445,1349,o),
(312,1217,cs),
(179,1085,o),
(100,905,o),
(100,695,cs),
(100,489,o),
(179,309,o),
(312,176,cs),
(445,43,o),
(627,-35,o),
(839,-35,cs)
);
},
{
closed = 1;
nodes = (
(671,73,o),
(520,135,o),
(406,244,cs),
(292,353,o),
(219,506,o),
(219,695,cs),
(219,885,o),
(291,1038,o),
(405,1146,cs),
(519,1256,o),
(674,1316,o),
(838,1316,cs),
(1006,1316,o),
(1157,1256,o),
(1271,1146,cs),
(1385,1038,o),
(1457,885,o),
(1457,695,cs),
(1457,506,o),
(1387,353,o),
(1272,244,cs),
(1158,135,o),
(1005,73,o),
(838,73,cs)
);
},
{
closed = 1;
nodes = (
(990,287,o),
(1086,318,o),
(1165,377,c),
(1103,490,l),
(1034,436,o),
(957,415,o),
(879,415,cs),
(787,415,o),
(712,443,o),
(660,491,cs),
(609,538,o),
(580,607,o),
(580,695,cs),
(580,782,o),
(608,850,o),
(659,900,cs),
(711,949,o),
(784,974,o),
(872,974,cs),
(955,974,o),
(1021,953,o),
(1073,906,c),
(1142,1016,l),
(1076,1072,o),
(988,1103,o),
(863,1103,cs),
(740,1103,o),
(636,1060,o),
(560,988,cs),
(484,916,o),
(441,815,o),
(441,694,cs),
(441,570,o),
(485,471,o),
(559,399,cs),
(632,328,o),
(737,287,o),
(862,287,cs)
);
}
);
width = 1676;
},
{
layerId = "49A5562C-FB3D-4EE7-BE2B-5FF0A3F25A62";
shapes = (
{
closed = 1;
nodes = (
(1052,-27,o),
(1233,51,o),
(1366,183,cs),
(1498,315,o),
(1576,495,o),
(1576,703,cs),
(1576,910,o),
(1498,1089,o),
(1366,1222,cs),
(1233,1355,o),
(1052,1433,o),
(839,1433,cs),
(625,1433,o),
(444,1357,o),
(311,1225,cs),
(178,1093,o),
(100,914,o),
(100,703,cs),
(100,498,o),
(177,317,o),
(310,184,cs),
(443,51,o),
(625,-27,o),
(839,-27,cs)
);
},
{
closed = 1;
nodes = (
(665,48,o),
(505,113,o),
(383,228,cs),
(260,343,o),
(182,504,o),
(182,703,cs),
(182,903,o),
(259,1063,o),
(381,1178,cs),
(504,1293,o),
(667,1357,o),
(838,1357,cs),
(1012,1357,o),
(1172,1293,o),
(1294,1178,cs),
(1417,1063,o),
(1494,903,o),
(1494,703,cs),
(1494,504,o),
(1418,343,o),
(1295,228,cs),
(1173,113,o),
(1011,48,o),
(838,48,cs)
);
},
{
closed = 1;
nodes = (
(980,295,o),
(1074,324,o),
(1155,384,c),
(1113,461,l),
(1040,402,o),
(959,381,o),
(878,381,cs),
(774,381,o),
(689,412,o),
(630,467,cs),
(572,522,o),
(539,601,o),
(539,703,cs),
(539,803,o),
(571,881,o),
(629,939,cs),
(688,996,o),
(769,1024,o),
(869,1024,cs),
(953,1024,o),
(1023,1005,o),
(1080,956,c),
(1130,1031,l),
(1069,1081,o),
(980,1111,o),
(862,1111,cs),
(741,1111,o),
(639,1067,o),
(563,995,cs),
(487,923,o),
(445,824,o),
(445,703,cs),
(445,579,o),
(488,480,o),
(561,408,cs),
(632,336,o),
(737,295,o),
(862,295,cs)
);
}
);
width = 1676;
}
);
rightKerningGroup = _at;
unicode = 169;
},
{
glyphname = ordfeminine;
layers = (
{
hints = (
{
horizontal = 1;
place = (922,208);
type = Stem;
},
{
horizontal = 1;
place = (1219,168);
type = Stem;
},
{
horizontal = 1;
place = (1437,224);
type = Stem;
},
{
place = (-5,281);
type = Stem;
}
);
layerId = "EBD03586-66CA-4B27-94EE-9B66F2D0C841";
shapes = (
{
closed = 1;
nodes = (
(483,702,o),
(597,742,o),
(658,814,c),
(686,757,o),
(743,702,o),
(825,702,cs),
(835,702,o),
(861,705,o),
(871,708,c),
(930,889,l),
(924,886,o),
(920,885,o),
(914,885,cs),
(883,885,o),
(873,920,o),
(884,959,cs),
(923,1097,ls),
(952,1195,o),
(940,1281,o),
(881,1343,c),
(828,1406,o),
(733,1440,o),
(594,1440,cs),
(480,1440,o),
(386,1417,o),
(306,1362,c),
(344,1184,l),
(391,1205,o),
(475,1216,o),
(543,1216,cs),
(589,1216,o),
(631,1211,o),
(656,1198,cs),
(678,1188,o),
(687,1173,o),
(679,1150,cs),
(675,1138,l),
(714,1160,l),
(661,1161,o),
(612,1167,o),
(559,1167,cs),
(405,1167,o),
(145,1118,o),
(149,908,cs),
(152,778,o),
(254,702,o),
(387,702,cs)
);
},
{
closed = 1;
nodes = (
(476,910,o),
(429,921,o),
(429,948,cs),
(428,992,o),
(550,999,o),
(602,999,cs),
(622,999,o),
(643,999,o),
(665,996,c),
(648,1004,l),
(641,984,ls),
(625,938,o),
(572,910,o),
(514,910,cs)
);
}
);
width = 837;
},
{
layerId = "DDFB1734-E0D7-49FC-BA30-BBC7C7BD5F60";
shapes = (
{
closed = 1;
nodes = (
(527,702,o),
(626,739,o),
(689,826,c),
(694,770,o),
(729,702,o),
(810,702,cs),
(822,702,o),
(847,705,o),
(861,707,c),
(899,819,l),
(892,817,o),
(874,816,o),
(868,816,cs),
(826,816,o),
(817,864,o),
(828,904,cs),
(891,1135,ls),
(917,1230,o),
(899,1307,o),
(846,1360,c),
(794,1414,o),
(712,1440,o),
(605,1440,cs),
(501,1440,o),
(411,1415,o),
(331,1357,c),
(352,1255,l),
(411,1288,o),
(497,1312,o),
(575,1312,cs),
(629,1312,o),
(682,1300,o),
(717,1274,cs),
(749,1249,o),
(764,1209,o),
(747,1149,cs),
(741,1126,l),
(774,1135,l),
(710,1145,o),
(644,1150,o),
(584,1150,cs),
(409,1150,o),
(166,1105,o),
(174,899,cs),
(180,764,o),
(288,702,o),
(422,702,cs)
);
},
{
closed = 1;
nodes = (
(397,826,o),
(326,855,o),
(323,921,cs),
(317,1031,o),
(498,1043,o),
(590,1043,cs),
(646,1043,o),
(699,1039,o),
(746,1034,c),
(726,1059,l),
(704,978,ls),
(677,880,o),
(565,826,o),
(467,826,cs)
);
}
);
width = 820;
},
{
layerId = "49A5562C-FB3D-4EE7-BE2B-5FF0A3F25A62";
shapes = (
{
closed = 1;
nodes = (
(554,702,o),
(645,737,o),
(708,833,c),
(700,778,o),
(719,702,o),
(799,702,cs),
(813,702,o),
(837,704,o),
(854,706,c),
(880,774,l),
(871,773,o),
(845,772,o),
(839,772,cs),
(788,772,o),
(781,829,o),
(792,870,cs),
(870,1159,ls),
(896,1253,o),
(874,1323,o),
(824,1370,cs),
(773,1418,o),
(699,1440,o),
(611,1440,cs),
(514,1440,o),
(426,1413,o),
(347,1354,c),
(358,1298,l),
(423,1340,o),
(510,1371,o),
(596,1371,cs),
(654,1371,o),
(714,1356,o),
(754,1321,cs),
(793,1286,o),
(812,1231,o),
(790,1148,cs),
(782,1118,l),
(813,1119,l),
(741,1135,o),
(664,1140,o),
(600,1140,cs),
(412,1140,o),
(179,1097,o),
(190,893,cs),
(198,755,o),
(309,702,o),
(444,702,cs)
);
},
{
closed = 1;
nodes = (
(346,771,o),
(261,812,o),
(255,905,c),
(248,1056,o),
(465,1071,o),
(582,1071,cs),
(662,1071,o),
(733,1064,o),
(796,1058,c),
(773,1093,l),
(743,974,ls),
(709,843,o),
(559,771,o),
(438,771,cs)
);
}
);
width = 808;
}
);
leftKerningGroup = _degree2;
rightKerningGroup = _degree;
unicode = 170;
},
{
glyphname = guillemotleft;
layers = (
{
layerId = "EBD03586-66CA-4B27-94EE-9B66F2D0C841";
shapes = (
{
alignment = -1;
pos = (521,0);
ref = guilsinglleft;
},
{
alignment = -1;
pos = (1,0);
ref = guilsinglleft;
}
);
width = 1230;
},
{
layerId = "DDFB1734-E0D7-49FC-BA30-BBC7C7BD5F60";
shapes = (
{
closed = 1;
nodes = (
(855,166,l),
(677,495,l),
(1011,821,l),
(905,920,l),
(483,507,l),
(707,96,l)
);
},
{
closed = 1;
nodes = (
(433,166,l),
(255,495,l),
(589,821,l),
(483,920,l),
(61,507,l),
(285,96,l)
);
}
);
width = 1038;
},
{
layerId = "49A5562C-FB3D-4EE7-BE2B-5FF0A3F25A62";
shapes = (
{
closed = 1;
nodes = (
(730,158,l),
(517,489,l),
(905,827,l),
(875,870,l),
(430,494,l),
(685,118,l)
);
},
{
closed = 1;
nodes = (
(370,158,l),
(157,489,l),
(545,827,l),
(515,870,l),
(70,494,l),
(325,118,l)
);
}
);
width = 917;
}
);
unicode = 171;
},
{
glyphname = logicalnot;
layers = (
{
layerId = "EBD03586-66CA-4B27-94EE-9B66F2D0C841";
shapes = (
{
closed = 1;
nodes = (
(1170,290,l),
(1371,1050,l),
(211,1050,l),
(140,782,l),
(1016,782,l),
(886,290,l)
);
}
);
width = 1296;
},
{
layerId = "DDFB1734-E0D7-49FC-BA30-BBC7C7BD5F60";
shapes = (
{
closed = 1;
nodes = (
(1129,408,l),
(1266,924,l),
(263,924,l),
(224,776,l),
(1072,776,l),
(974,408,l)
);
}
);
width = 1296;
},
{
layerId = "49A5562C-FB3D-4EE7-BE2B-5FF0A3F25A62";
shapes = (
{
closed = 1;
nodes = (
(1102,482,l),
(1200,844,l),
(296,844,l),
(277,773,l),
(1107,773,l),
(1029,482,l)
);
}
);
width = 1296;
}
);
leftKerningGroup = _plus2;
rightKerningGroup = _plus;
unicode = 172;
},
{
glyphname = registered;
layers = (
{
layerId = "EBD03586-66CA-4B27-94EE-9B66F2D0C841";
shapes = (
{
closed = 1;
nodes = (
(886,470,o),
(1019,526,o),
(1112,618,cs),
(1205,710,o),
(1262,834,o),
(1262,979,cs),
(1262,1123,o),
(1206,1249,o),
(1110,1342,cs),
(1014,1435,o),
(884,1492,o),
(735,1492,cs),
(587,1492,o),
(460,1438,o),
(364,1346,cs),
(268,1254,o),
(214,1128,o),
(214,983,cs),
(214,838,o),
(269,711,o),
(365,619,cs),
(461,527,o),
(592,470,o),
(741,470,cs)
);
},
{
closed = 1;
nodes = (
(628,566,o),
(522,608,o),
(446,681,cs),
(370,753,o),
(322,855,o),
(322,983,cs),
(322,1108,o),
(369,1210,o),
(445,1282,cs),
(521,1354,o),
(622,1394,o),
(735,1394,cs),
(848,1394,o),
(953,1354,o),
(1030,1281,cs),
(1106,1208,o),
(1154,1104,o),
(1154,979,cs),
(1154,855,o),
(1108,753,o),
(1032,681,cs),
(956,609,o),
(854,566,o),
(741,566,cs)
);
},
{
closed = 1;
nodes = (
(663,706,l),
(664,912,l),
(724,912,l),
(864,706,l),
(1011,706,l),
(848,936,l),
(924,956,o),
(977,1008,o),
(977,1088,cs),
(977,1141,o),
(957,1183,o),
(921,1212,c),
(884,1240,o),
(833,1256,o),
(769,1256,cs),
(541,1256,l),
(542,706,l)
);
},
{
closed = 1;
nodes = (
(664,1156,l),
(758,1156,ls),
(822,1156,o),
(854,1130,o),
(854,1082,cs),
(854,1034,o),
(818,1010,o),
(754,1010,cs),
(664,1010,l)
);
}
);
width = 1212;
},
{
layerId = "DDFB1734-E0D7-49FC-BA30-BBC7C7BD5F60";
shapes = (
{
closed = 1;
nodes = (
(899,476,o),
(1030,531,o),
(1123,623,cs),
(1216,715,o),
(1273,838,o),
(1273,983,cs),
(1273,1127,o),
(1217,1255,o),
(1121,1348,cs),
(1025,1441,o),
(896,1498,o),
(745,1498,cs),
(596,1498,o),
(469,1444,o),
(374,1353,cs),
(279,1261,o),
(225,1134,o),
(225,990,cs),
(225,842,o),
(280,716,o),
(376,624,cs),
(472,532,o),
(603,476,o),
(752,476,cs)
);
},
{
closed = 1;
nodes = (
(634,551,o),
(523,594,o),
(442,671,cs),
(360,748,o),
(309,855,o),
(309,990,cs),
(309,1119,o),
(361,1228,o),
(440,1303,cs),
(520,1379,o),
(629,1422,o),
(745,1422,cs),
(863,1422,o),
(973,1381,o),
(1055,1303,cs),
(1136,1225,o),
(1189,1117,o),
(1189,983,cs),
(1189,853,o),
(1138,746,o),
(1057,671,cs),
(975,595,o),
(868,551,o),
(752,551,cs)
);
},
{
closed = 1;
nodes = (
(656,712,l),
(655,930,l),
(733,930,l),
(892,712,l),
(1008,712,l),
(832,946,l),
(919,963,o),
(974,1016,o),
(974,1096,cs),
(974,1147,o),
(956,1188,o),
(922,1217,cs),
(888,1245,o),
(839,1260,o),
(777,1260,cs),
(559,1260,l),
(563,712,l)
);
},
{
closed = 1;
nodes = (
(655,1183,l),
(772,1183,ls),
(844,1183,o),
(882,1150,o),
(882,1093,cs),
(882,1037,o),
(840,1007,o),
(765,1007,cs),
(655,1007,l)
);
}
);
width = 1223;
},
{
layerId = "49A5562C-FB3D-4EE7-BE2B-5FF0A3F25A62";
shapes = (
{
closed = 1;
nodes = (
(907,479,o),
(1036,534,o),
(1129,626,cs),
(1222,718,o),
(1279,841,o),
(1279,986,cs),
(1279,1130,o),
(1223,1258,o),
(1127,1351,cs),
(1031,1444,o),
(903,1501,o),
(751,1501,cs),
(602,1501,o),
(475,1447,o),
(380,1356,cs),
(285,1265,o),
(231,1137,o),
(231,993,cs),
(231,845,o),
(286,719,o),
(382,627,cs),
(478,535,o),
(609,479,o),
(758,479,cs)
);
},
{
closed = 1;
nodes = (
(637,541,o),
(524,585,o),
(439,665,cs),
(354,745,o),
(300,855,o),
(300,993,cs),
(300,1126,o),
(355,1238,o),
(437,1316,cs),
(519,1394,o),
(633,1440,o),
(751,1440,cs),
(872,1440,o),
(985,1397,o),
(1070,1316,cs),
(1155,1235,o),
(1210,1125,o),
(1210,986,cs),
(1210,851,o),
(1157,742,o),
(1072,664,cs),
(987,586,o),
(876,541,o),
(758,541,cs)
);
},
{
closed = 1;
nodes = (
(652,715,l),
(649,942,l),
(739,942,l),
(910,715,l),
(1005,715,l),
(822,952,l),
(916,966,o),
(972,1022,o),
(972,1102,cs),
(972,1150,o),
(955,1191,o),
(923,1220,c),
(891,1248,o),
(842,1263,o),
(783,1263,cs),
(571,1263,l),
(575,715,l)
);
},
{
closed = 1;
nodes = (
(649,1199,l),
(780,1199,ls),
(857,1199,o),
(898,1162,o),
(898,1100,cs),
(898,1039,o),
(853,1005,o),
(771,1005,cs),
(649,1005,l)
);
}
);
width = 1230;
}
);
leftKerningGroup = _degree2;
rightKerningGroup = _degree;
unicode = 174;
},
{
glyphname = degree;
layers = (
{
layerId = "EBD03586-66CA-4B27-94EE-9B66F2D0C841";
shapes = (
{
closed = 1;
nodes = (
(656,610,o),
(774,664,o),
(863,749,cs),
(952,835,o),
(1008,953,o),
(1008,1078,cs),
(1008,1179,o),
(970,1267,o),
(905,1330,cs),
(841,1394,o),
(749,1430,o),
(636,1430,cs),
(510,1430,o),
(391,1376,o),
(302,1292,cs),
(212,1207,o),
(157,1091,o),
(157,966,cs),
(157,865,o),
(193,778,o),
(261,714,cs),
(328,649,o),
(418,610,o),
(531,610,cs)
);
},
{
closed = 1;
nodes = (
(521,858,o),
(484,872,o),
(460,896,cs),
(436,919,o),
(421,956,o),
(421,997,cs),
(421,1046,o),
(442,1092,o),
(474,1128,cs),
(506,1163,o),
(552,1182,o),
(601,1182,cs),
(645,1182,o),
(680,1168,o),
(705,1145,cs),
(730,1122,o),
(744,1087,o),
(744,1047,cs),
(744,991,o),
(723,944,o),
(690,911,cs),
(656,878,o),
(612,858,o),
(565,858,cs)
);
}
);
width = 890;
},
{
layerId = "DDFB1734-E0D7-49FC-BA30-BBC7C7BD5F60";
shapes = (
{
closed = 1;
nodes = (
(675,684,o),
(784,731,o),
(865,808,cs),
(945,884,o),
(1001,990,o),
(1001,1105,cs),
(1001,1197,o),
(967,1278,o),
(907,1336,cs),
(849,1395,o),
(764,1430,o),
(664,1430,cs),
(550,1430,o),
(443,1383,o),
(359,1307,cs),
(277,1230,o),
(226,1127,o),
(226,1012,cs),
(226,919,o),
(259,839,o),
(319,779,cs),
(380,720,o),
(462,684,o),
(564,684,cs)
);
},
{
closed = 1;
nodes = (
(522,826,o),
(467,847,o),
(432,880,cs),
(396,913,o),
(375,965,o),
(375,1023,cs),
(375,1097,o),
(406,1164,o),
(453,1212,cs),
(499,1260,o),
(568,1288,o),
(640,1288,cs),
(707,1288,o),
(757,1269,o),
(793,1236,cs),
(830,1203,o),
(850,1156,o),
(850,1099,cs),
(850,1023,o),
(823,956,o),
(775,906,cs),
(729,857,o),
(663,826,o),
(586,826,cs)
);
}
);
width = 915;
},
{
layerId = "49A5562C-FB3D-4EE7-BE2B-5FF0A3F25A62";
shapes = (
{
closed = 1;
nodes = (
(687,730,o),
(790,772,o),
(866,845,cs),
(942,915,o),
(995,1013,o),
(995,1121,cs),
(995,1207,o),
(964,1284,o),
(908,1339,cs),
(853,1395,o),
(774,1430,o),
(680,1430,cs),
(574,1430,o),
(476,1387,o),
(397,1316,cs),
(317,1246,o),
(269,1148,o),
(269,1040,cs),
(269,954,o),
(300,876,o),
(356,821,cs),
(412,764,o),
(490,730,o),
(585,730,cs)
);
},
{
closed = 1;
nodes = (
(522,805,o),
(457,831,o),
(414,870,cs),
(371,909,o),
(345,971,o),
(345,1039,cs),
(345,1129,o),
(383,1210,o),
(438,1266,c),
(495,1320,o),
(578,1354,o),
(665,1354,cs),
(745,1354,o),
(807,1332,o),
(850,1295,cs),
(893,1256,o),
(916,1199,o),
(916,1131,cs),
(916,1042,o),
(885,963,o),
(830,903,cs),
(775,844,o),
(695,805,o),
(599,805,cs)
);
}
);
width = 931;
}
);
leftKerningGroup = _degree2;
rightKerningGroup = _degree;
unicode = 176;
},
{
glyphname = twosuperior;
layers = (
{
layerId = "EBD03586-66CA-4B27-94EE-9B66F2D0C841";
shapes = (
{
closed = 1;
nodes = (
(463,1267,l),
(504,1335,o),
(600,1442,o),
(683,1442,cs),
(727,1442,o),
(775,1423,o),
(775,1372,cs),
(775,1228,o),
(339,989,o),
(213,922,c),
(159,722,l),
(849,722,l),
(908,941,l),
(608,941,l),
(792,1010,o),
(1032,1163,o),
(1032,1383,cs),
(1032,1573,o),
(863,1652,o),
(692,1652,cs),
(485,1652,o),
(371,1516,o),
(259,1367,c)
);
}
);
width = 854;
},
{
layerId = "DDFB1734-E0D7-49FC-BA30-BBC7C7BD5F60";
shapes = (
{
closed = 1;
nodes = (
(453,1342,l),
(494,1430,o),
(590,1523,o),
(691,1523,cs),
(786,1523,o),
(839,1489,o),
(839,1415,cs),
(839,1214,o),
(379,939,o),
(214,844,c),
(181,722,l),
(803,722,l),
(840,859,l),
(462,859,l),
(652,955,o),
(994,1183,o),
(994,1415,cs),
(994,1580,o),
(882,1652,o),
(696,1652,cs),
(527,1652,o),
(399,1537,o),
(322,1402,c)
);
}
);
width = 855;
},
{
layerId = "49A5562C-FB3D-4EE7-BE2B-5FF0A3F25A62";
shapes = (
{
closed = 1;
nodes = (
(446,1389,l),
(487,1489,o),
(584,1575,o),
(697,1575,cs),
(823,1575,o),
(880,1530,o),
(880,1442,cs),
(880,1204,o),
(404,907,o),
(215,794,c),
(196,722,l),
(774,722,l),
(797,807,l),
(370,807,l),
(562,920,o),
(970,1195,o),
(970,1436,cs),
(970,1583,o),
(894,1652,o),
(699,1652,cs),
(554,1652,o),
(415,1549,o),
(361,1424,c)
);
}
);
width = 856;
}
);
unicode = 178;
},
{
glyphname = threesuperior;
layers = (
{
layerId = "EBD03586-66CA-4B27-94EE-9B66F2D0C841";
shapes = (
{
closed = 1;
nodes = (
(581,702,o),
(679,734,o),
(751,791,cs),
(823,847,o),
(869,929,o),
(869,1029,cs),
(869,1090,o),
(848,1137,o),
(817,1176,cs),
(785,1215,o),
(740,1238,o),
(696,1250,c),
(948,1444,l),
(996,1632,l),
(372,1632,l),
(319,1422,l),
(643,1422,l),
(388,1255,l),
(411,1104,l),
(444,1112,o),
(473,1112,o),
(497,1112,cs),
(578,1112,o),
(628,1081,o),
(628,1025,cs),
(628,993,o),
(616,967,o),
(589,948,cs),
(562,928,o),
(526,918,o),
(483,918,cs),
(440,918,o),
(399,927,o),
(360,946,cs),
(321,965,o),
(291,990,o),
(271,1019,c),
(151,830,l),
(174,795,o),
(221,763,o),
(280,740,cs),
(339,716,o),
(408,702,o),
(476,702,cs)
);
}
);
width = 826;
},
{
layerId = "DDFB1734-E0D7-49FC-BA30-BBC7C7BD5F60";
shapes = (
{
closed = 1;
nodes = (
(580,702,o),
(673,735,o),
(742,792,cs),
(811,848,o),
(853,930,o),
(853,1025,cs),
(853,1094,o),
(824,1145,o),
(779,1184,cs),
(733,1223,o),
(669,1246,o),
(602,1253,c),
(950,1518,l),
(979,1632,l),
(388,1632,l),
(355,1505,l),
(757,1505,l),
(402,1242,l),
(417,1154,l),
(441,1160,o),
(469,1160,o),
(494,1160,cs),
(625,1160,o),
(704,1107,o),
(704,1020,cs),
(704,963,o),
(682,918,o),
(643,885,cs),
(604,852,o),
(548,835,o),
(484,835,cs),
(436,835,o),
(390,844,o),
(348,862,c),
(306,878,o),
(271,902,o),
(244,929,c),
(168,815,l),
(195,785,o),
(243,756,o),
(298,735,cs),
(353,714,o),
(418,702,o),
(477,702,cs)
);
}
);
width = 819;
},
{
layerId = "49A5562C-FB3D-4EE7-BE2B-5FF0A3F25A62";
shapes = (
{
closed = 1;
nodes = (
(579,702,o),
(669,736,o),
(736,793,cs),
(803,849,o),
(843,931,o),
(843,1022,cs),
(843,1097,o),
(808,1151,o),
(754,1190,cs),
(700,1229,o),
(623,1250,o),
(542,1255,c),
(951,1564,l),
(967,1632,l),
(398,1632,l),
(377,1557,l),
(829,1557,l),
(411,1234,l),
(420,1186,l),
(439,1190,o),
(466,1190,o),
(491,1190,cs),
(654,1190,o),
(751,1123,o),
(751,1017,cs),
(751,944,o),
(723,887,o),
(677,845,cs),
(629,803,o),
(561,782,o),
(485,782,cs),
(433,782,o),
(384,791,o),
(340,808,c),
(296,823,o),
(258,846,o),
(228,873,c),
(178,805,l),
(207,778,o),
(256,750,o),
(308,732,c),
(361,712,o),
(424,702,o),
(478,702,cs)
);
}
);
width = 815;
}
);
leftKerningGroup = _degree2;
rightKerningGroup = _degree;
unicode = 179;
},
{
glyphname = mu;
layers = (
{
layerId = "EBD03586-66CA-4B27-94EE-9B66F2D0C841";
shapes = (
{
closed = 1;
nodes = (
(243,-420,l),
(360,12,l),
(377,-5,o),
(398,-14,o),
(421,-21,cs),
(444,-28,o),
(466,-30,o),
(494,-30,cs),
(541,-30,o),
(588,-23,o),
(636,2,cs),
(684,27,o),
(734,73,o),
(779,145,c),
(738,0,l),
(1072,0,l),
(1354,1040,l),
(954,1040,l),
(802,482,ls),
(789,437,o),
(769,400,o),
(738,373,cs),
(706,346,o),
(668,331,o),
(617,331,cs),
(568,331,o),
(537,347,o),
(521,371,cs),
(505,395,o),
(505,431,o),
(517,470,c),
(670,1040,l),
(270,1040,l),
(-125,-420,l)
);
}
);
width = 1340;
},
{
layerId = "DDFB1734-E0D7-49FC-BA30-BBC7C7BD5F60";
shapes = (
{
closed = 1;
nodes = (
(87,-400,l),
(217,79,l),
(234,37,o),
(267,11,o),
(308,-7,cs),
(348,-25,o),
(396,-30,o),
(451,-30,cs),
(510,-30,o),
(568,-23,o),
(626,3,cs),
(683,30,o),
(742,78,o),
(801,149,c),
(762,0,l),
(946,0,l),
(1228,1040,l),
(1023,1040,l),
(862,440,ls),
(837,348,o),
(788,277,o),
(724,230,cs),
(660,182,o),
(585,158,o),
(512,158,cs),
(434,158,o),
(374,181,o),
(339,226,cs),
(305,270,o),
(296,337,o),
(319,422,cs),
(484,1040,l),
(280,1040,l),
(-108,-400,l)
);
}
);
width = 1225;
},
{
layerId = "49A5562C-FB3D-4EE7-BE2B-5FF0A3F25A62";
shapes = (
{
closed = 1;
nodes = (
(-15,-400,l),
(127,120,l),
(144,64,o),
(185,26,o),
(237,2,cs),
(288,-22,o),
(353,-30,o),
(423,-30,cs),
(491,-30,o),
(556,-23,o),
(620,4,cs),
(683,32,o),
(748,81,o),
(816,152,c),
(778,0,l),
(868,0,l),
(1148,1040,l),
(1067,1040,l),
(900,413,ls),
(868,292,o),
(800,199,o),
(715,139,cs),
(631,79,o),
(533,49,o),
(446,49,cs),
(349,49,o),
(271,76,o),
(225,134,c),
(178,190,o),
(165,278,o),
(194,392,c),
(367,1040,l),
(286,1040,l),
(-100,-400,l)
);
}
);
width = 1153;
}
);
unicode = (181,956);
},
{
glyphname = paragraph;
layers = (
{
layerId = "EBD03586-66CA-4B27-94EE-9B66F2D0C841";
shapes = (
{
closed = 1;
nodes = (
(576,-403,l),
(1007,1194,l),
(1140,1194,l),
(709,-403,l),
(971,-403,l),
(1402,1194,l),
(1607,1194,l),
(1667,1410,l),
(831,1410,ls),
(644,1410,o),
(474,1360,o),
(349,1268,cs),
(225,1174,o),
(147,1042,o),
(147,870,cs),
(147,748,o),
(195,642,o),
(280,573,cs),
(364,503,o),
(481,464,o),
(627,467,c),
(562,514,l),
(314,-403,l)
);
}
);
width = 1444;
},
{
layerId = "DDFB1734-E0D7-49FC-BA30-BBC7C7BD5F60";
shapes = (
{
closed = 1;
nodes = (
(427,-403,l),
(879,1275,l),
(1063,1275,l),
(611,-403,l),
(763,-403,l),
(1215,1275,l),
(1434,1275,l),
(1472,1410,l),
(770,1410,ls),
(620,1410,o),
(481,1369,o),
(379,1291,cs),
(277,1212,o),
(211,1105,o),
(211,965,cs),
(211,866,o),
(251,779,o),
(320,720,cs),
(390,660,o),
(485,626,o),
(609,628,c),
(565,669,l),
(275,-403,l)
);
}
);
width = 1270;
},
{
layerId = "49A5562C-FB3D-4EE7-BE2B-5FF0A3F25A62";
shapes = (
{
closed = 1;
nodes = (
(332,-403,l),
(797,1325,l),
(1016,1325,l),
(550,-403,l),
(632,-403,l),
(1098,1325,l),
(1324,1325,l),
(1348,1410,l),
(732,1410,ls),
(605,1410,o),
(485,1375,o),
(398,1306,cs),
(310,1236,o),
(253,1144,o),
(253,1024,cs),
(253,940,o),
(285,866,o),
(345,813,cs),
(406,759,o),
(488,729,o),
(597,729,c),
(567,766,l),
(250,-403,l)
);
}
);
width = 1161;
}
);
unicode = 182;
},
{
glyphname = periodcentered;
layers = (
{
layerId = "EBD03586-66CA-4B27-94EE-9B66F2D0C841";
shapes = (
{
closed = 1;
nodes = (
(396,492,o),
(461,515,o),
(510,559,cs),
(558,602,o),
(591,667,o),
(591,747,cs),
(591,807,o),
(570,856,o),
(531,888,cs),
(492,920,o),
(441,938,o),
(381,938,cs),
(313,938,o),
(249,916,o),
(198,872,cs),
(147,828,o),
(116,765,o),
(116,681,c),
(113,624,o),
(137,576,o),
(176,544,cs),
(215,512,o),
(268,492,o),
(328,492,cs)
);
}
);
width = 600;
},
{
layerId = "DDFB1734-E0D7-49FC-BA30-BBC7C7BD5F60";
shapes = (
{
closed = 1;
nodes = (
(340,533,o),
(382,549,o),
(413,577,cs),
(443,603,o),
(464,644,o),
(464,692,cs),
(464,728,o),
(451,759,o),
(427,780,cs),
(404,800,o),
(372,812,o),
(334,812,cs),
(291,812,o),
(248,798,o),
(216,770,cs),
(184,742,o),
(165,702,o),
(165,652,c),
(163,617,o),
(177,587,o),
(202,567,cs),
(227,547,o),
(258,533,o),
(296,533,cs)
);
}
);
width = 530;
},
{
layerId = "49A5562C-FB3D-4EE7-BE2B-5FF0A3F25A62";
shapes = (
{
closed = 1;
nodes = (
(303,558,o),
(332,570,o),
(351,587,cs),
(371,604,o),
(383,629,o),
(383,658,cs),
(383,678,o),
(375,697,o),
(362,711,c),
(348,724,o),
(328,732,o),
(304,732,cs),
(276,732,o),
(247,723,o),
(228,705,c),
(207,687,o),
(195,662,o),
(195,633,c),
(194,613,o),
(202,594,o),
(218,582,c),
(234,568,o),
(252,558,o),
(275,558,cs)
);
}
);
width = 486;
}
);
leftKerningGroup = _hyphen2;
rightKerningGroup = _hyphen;
unicode = 183;
},
{
glyphname = onesuperior;
layers = (
{
layerId = "EBD03586-66CA-4B27-94EE-9B66F2D0C841";
shapes = (
{
closed = 1;
nodes = (
(624,722,l),
(866,1632,l),
(787,1632,l),
(278,1479,l),
(340,1280,l),
(553,1339,l),
(384,722,l)
);
}
);
width = 666;
},
{
layerId = "DDFB1734-E0D7-49FC-BA30-BBC7C7BD5F60";
shapes = (
{
closed = 1;
nodes = (
(547,722,l),
(790,1632,l),
(720,1632,l),
(305,1501,l),
(342,1387,l),
(607,1466,l),
(405,722,l)
);
}
);
width = 631;
},
{
layerId = "49A5562C-FB3D-4EE7-BE2B-5FF0A3F25A62";
shapes = (
{
closed = 1;
nodes = (
(497,722,l),
(743,1632,l),
(677,1632,l),
(321,1514,l),
(343,1455,l),
(641,1547,l),
(417,722,l)
);
}
);
width = 609;
}
);
leftKerningGroup = _degree2;
rightKerningGroup = _degree;
unicode = 185;
},
{
glyphname = ordmasculine;
layers = (
{
hints = (
{
horizontal = 1;
place = (922,257);
type = Stem;
},
{
horizontal = 1;
place = (1404,257);
type = Stem;
},
{
place = (27,298);
type = Stem;
},
{
place = (600,298);
type = Stem;
}
);
layerId = "EBD03586-66CA-4B27-94EE-9B66F2D0C841";
shapes = (
{
closed = 1;
nodes = (
(814,702,o),
(1049,884,o),
(1049,1120,cs),
(1049,1334,o),
(854,1440,o),
(662,1440,cs),
(415,1440,o),
(178,1260,o),
(178,1023,cs),
(178,811,o),
(373,702,o),
(565,702,cs)
);
},
{
closed = 1;
nodes = (
(526,959,o),
(476,995,o),
(476,1050,cs),
(476,1121,o),
(541,1183,o),
(632,1183,cs),
(702,1183,o),
(751,1151,o),
(751,1093,cs),
(751,1022,o),
(688,959,o),
(594,959,cs)
);
}
);
width = 917;
},
{
layerId = "DDFB1734-E0D7-49FC-BA30-BBC7C7BD5F60";
shapes = (
{
closed = 1;
nodes = (
(785,702,o),
(996,895,o),
(996,1123,cs),
(996,1323,o),
(834,1440,o),
(644,1440,cs),
(409,1440,o),
(196,1250,o),
(196,1020,cs),
(196,825,o),
(354,702,o),
(547,702,cs)
);
},
{
closed = 1;
nodes = (
(442,840,o),
(354,909,o),
(354,1028,cs),
(354,1174,o),
(463,1301,o),
(626,1301,cs),
(751,1301,o),
(837,1237,o),
(837,1116,cs),
(837,969,o),
(729,840,o),
(566,840,cs)
);
}
);
width = 883;
},
{
layerId = "49A5562C-FB3D-4EE7-BE2B-5FF0A3F25A62";
shapes = (
{
closed = 1;
nodes = (
(766,702,o),
(962,901,o),
(962,1125,cs),
(962,1316,o),
(821,1440,o),
(634,1440,cs),
(405,1440,o),
(206,1243,o),
(206,1018,cs),
(206,834,o),
(342,702,o),
(535,702,cs)
);
},
{
closed = 1;
nodes = (
(389,765,o),
(277,855,o),
(277,1013,cs),
(277,1208,o),
(414,1375,o),
(622,1375,cs),
(782,1375,o),
(891,1292,o),
(891,1129,cs),
(891,934,o),
(754,765,o),
(547,765,cs)
);
}
);
width = 861;
}
);
leftKerningGroup = _degree2;
rightKerningGroup = _degree;
unicode = 186;
},
{
glyphname = guillemotright;
layers = (
{
layerId = "EBD03586-66CA-4B27-94EE-9B66F2D0C841";
shapes = (
{
alignment = -1;
pos = (520,0);
ref = guilsinglright;
},
{
alignment = -1;
ref = guilsinglright;
}
);
width = 1230;
},
{
layerId = "DDFB1734-E0D7-49FC-BA30-BBC7C7BD5F60";
shapes = (
{
closed = 1;
nodes = (
(987,508,l),
(762,921,l),
(617,851,l),
(794,522,l),
(460,196,l),
(567,95,l)
);
},
{
closed = 1;
nodes = (
(565,508,l),
(340,921,l),
(195,851,l),
(372,522,l),
(38,196,l),
(145,95,l)
);
}
);
width = 1038;
},
{
layerId = "49A5562C-FB3D-4EE7-BE2B-5FF0A3F25A62";
shapes = (
{
closed = 1;
nodes = (
(857,493,l),
(601,871,l),
(558,830,l),
(772,500,l),
(383,162,l),
(414,117,l)
);
},
{
closed = 1;
nodes = (
(497,493,l),
(241,871,l),
(198,830,l),
(412,500,l),
(23,162,l),
(54,117,l)
);
}
);
width = 917;
}
);
unicode = 187;
},
{
glyphname = onequarter;
layers = (
{
layerId = "EBD03586-66CA-4B27-94EE-9B66F2D0C841";
shapes = (
{
closed = 1;
nodes = (
(1583,1298,l),
(1417,1440,l),
(286,101,l),
(453,-40,l)
);
},
{
closed = 1;
nodes = (
(557,490,l),
(800,1400,l),
(722,1400,l),
(213,1247,l),
(273,1048,l),
(486,1107,l),
(318,490,l)
);
},
{
closed = 1;
nodes = (
(1616,0,l),
(1659,160,l),
(1777,160,l),
(1830,366,l),
(1712,366,l),
(1754,528,l),
(1544,528,l),
(1498,366,l),
(1345,366,l),
(1740,910,l),
(1471,910,l),
(1059,340,l),
(1011,160,l),
(1445,160,l),
(1402,0,l)
);
}
);
width = 1890;
},
{
layerId = "DDFB1734-E0D7-49FC-BA30-BBC7C7BD5F60";
shapes = (
{
closed = 1;
nodes = (
(1520,1355,l),
(1431,1433,l),
(274,45,l),
(369,-33,l)
);
},
{
closed = 1;
nodes = (
(483,490,l),
(727,1400,l),
(659,1400,l),
(243,1269,l),
(280,1155,l),
(543,1234,l),
(341,490,l)
);
},
{
closed = 1;
nodes = (
(1501,0,l),
(1551,185,l),
(1694,185,l),
(1727,311,l),
(1583,311,l),
(1635,511,l),
(1506,511,l),
(1451,311,l),
(1153,311,l),
(1638,910,l),
(1475,910,l),
(982,299,l),
(953,185,l),
(1419,185,l),
(1369,0,l)
);
}
);
width = 1823;
},
{
layerId = "49A5562C-FB3D-4EE7-BE2B-5FF0A3F25A62";
shapes = (
{
closed = 1;
nodes = (
(1480,1392,l),
(1439,1429,l),
(266,10,l),
(315,-29,l)
);
},
{
closed = 1;
nodes = (
(436,490,l),
(681,1400,l),
(618,1400,l),
(262,1282,l),
(283,1223,l),
(580,1315,l),
(356,490,l)
);
},
{
closed = 1;
nodes = (
(1427,0,l),
(1482,201,l),
(1641,201,l),
(1662,277,l),
(1501,277,l),
(1560,501,l),
(1481,501,l),
(1421,277,l),
(1031,277,l),
(1573,910,l),
(1478,910,l),
(932,272,l),
(916,201,l),
(1403,201,l),
(1348,0,l)
);
}
);
width = 1780;
}
);
leftKerningGroup = _onehalf;
unicode = 188;
},
{
glyphname = onehalf;
layers = (
{
layerId = "EBD03586-66CA-4B27-94EE-9B66F2D0C841";
shapes = (
{
closed = 1;
nodes = (
(1574,1298,l),
(1406,1440,l),
(275,101,l),
(442,-40,l)
);
},
{
closed = 1;
nodes = (
(548,490,l),
(791,1400,l),
(711,1400,l),
(202,1247,l),
(262,1048,l),
(477,1107,l),
(307,490,l)
);
},
{
alignment = -1;
pos = (881,-723);
ref = twosuperior;
}
);
width = 1906;
},
{
layerId = "DDFB1734-E0D7-49FC-BA30-BBC7C7BD5F60";
shapes = (
{
closed = 1;
nodes = (
(1518,1355,l),
(1426,1433,l),
(269,45,l),
(364,-33,l)
);
},
{
closed = 1;
nodes = (
(480,490,l),
(725,1400,l),
(654,1400,l),
(238,1269,l),
(275,1155,l),
(541,1234,l),
(336,490,l)
);
},
{
alignment = -1;
pos = (835,-723);
ref = twosuperior;
}
);
width = 1856;
},
{
layerId = "49A5562C-FB3D-4EE7-BE2B-5FF0A3F25A62";
shapes = (
{
closed = 1;
nodes = (
(1481,1392,l),
(1438,1429,l),
(266,10,l),
(314,-29,l)
);
},
{
closed = 1;
nodes = (
(437,490,l),
(682,1400,l),
(617,1400,l),
(261,1282,l),
(283,1223,l),
(581,1315,l),
(355,490,l)
);
},
{
alignment = -1;
pos = (806,-722);
ref = twosuperior;
}
);
width = 1824;
}
);
leftKerningGroup = _onehalf;
unicode = 189;
},
{
glyphname = threequarters;
layers = (
{
layerId = "EBD03586-66CA-4B27-94EE-9B66F2D0C841";
shapes = (
{
closed = 1;
nodes = (
(1721,1298,l),
(1555,1440,l),
(424,101,l),
(591,-40,l)
);
},
{
closed = 1;
nodes = (
(517,470,o),
(614,502,o),
(687,559,cs),
(759,615,o),
(805,697,o),
(805,797,cs),
(805,858,o),
(784,905,o),
(753,944,cs),
(721,983,o),
(679,1006,o),
(632,1018,c),
(884,1212,l),
(932,1400,l),
(307,1400,l),
(254,1190,l),
(578,1190,l),
(325,1023,l),
(348,872,l),
(379,880,o),
(410,880,o),
(433,880,cs),
(514,880,o),
(565,849,o),
(565,793,cs),
(565,761,o),
(551,735,o),
(524,716,cs),
(497,696,o),
(463,686,o),
(420,686,cs),
(377,686,o),
(334,695,o),
(295,714,cs),
(256,733,o),
(225,758,o),
(208,787,c),
(88,598,l),
(111,563,o),
(156,531,o),
(216,508,cs),
(276,484,o),
(341,470,o),
(413,470,cs)
);
},
{
closed = 1;
nodes = (
(1755,0,l),
(1798,160,l),
(1916,160,l),
(1969,366,l),
(1851,366,l),
(1893,528,l),
(1683,528,l),
(1637,366,l),
(1484,366,l),
(1879,910,l),
(1610,910,l),
(1198,340,l),
(1150,160,l),
(1584,160,l),
(1541,0,l)
);
}
);
width = 2050;
},
{
layerId = "DDFB1734-E0D7-49FC-BA30-BBC7C7BD5F60";
shapes = (
{
closed = 1;
nodes = (
(1694,1355,l),
(1605,1433,l),
(449,45,l),
(543,-33,l)
);
},
{
closed = 1;
nodes = (
(518,470,o),
(610,503,o),
(680,560,cs),
(749,616,o),
(791,698,o),
(791,793,cs),
(791,862,o),
(761,913,o),
(716,952,cs),
(671,991,o),
(609,1014,o),
(538,1021,c),
(888,1286,l),
(916,1400,l),
(325,1400,l),
(292,1273,l),
(694,1273,l),
(340,1010,l),
(356,922,l),
(379,928,o),
(408,928,o),
(431,928,cs),
(563,928,o),
(643,875,o),
(643,788,cs),
(643,731,o),
(619,686,o),
(580,653,cs),
(540,620,o),
(487,603,o),
(424,603,cs),
(375,603,o),
(327,612,o),
(285,630,c),
(243,646,o),
(208,670,o),
(184,697,c),
(107,583,l),
(133,553,o),
(178,524,o),
(236,503,cs),
(293,482,o),
(353,470,o),
(417,470,cs)
);
},
{
closed = 1;
nodes = (
(1675,0,l),
(1725,185,l),
(1868,185,l),
(1901,311,l),
(1757,311,l),
(1809,511,l),
(1680,511,l),
(1625,311,l),
(1327,311,l),
(1812,910,l),
(1649,910,l),
(1156,299,l),
(1127,185,l),
(1593,185,l),
(1543,0,l)
);
}
);
width = 2011;
},
{
layerId = "49A5562C-FB3D-4EE7-BE2B-5FF0A3F25A62";
shapes = (
{
closed = 1;
nodes = (
(1678,1392,l),
(1636,1429,l),
(464,10,l),
(512,-29,l)
);
},
{
closed = 1;
nodes = (
(518,470,o),
(607,504,o),
(674,561,cs),
(742,617,o),
(781,699,o),
(781,790,cs),
(781,865,o),
(746,919,o),
(692,958,cs),
(639,997,o),
(563,1018,o),
(479,1023,c),
(890,1332,l),
(906,1400,l),
(337,1400,l),
(316,1325,l),
(768,1325,l),
(350,1002,l),
(360,954,l),
(378,958,o),
(406,958,o),
(429,958,cs),
(593,958,o),
(692,891,o),
(692,785,cs),
(692,712,o),
(662,655,o),
(615,613,cs),
(568,571,o),
(502,550,o),
(426,550,cs),
(373,550,o),
(323,559,o),
(279,576,c),
(234,591,o),
(196,614,o),
(168,641,c),
(119,573,l),
(148,546,o),
(193,518,o),
(248,500,c),
(303,480,o),
(360,470,o),
(419,470,cs)
);
},
{
closed = 1;
nodes = (
(1623,0,l),
(1678,201,l),
(1837,201,l),
(1858,277,l),
(1697,277,l),
(1756,501,l),
(1677,501,l),
(1617,277,l),
(1227,277,l),
(1769,910,l),
(1674,910,l),
(1128,272,l),
(1112,201,l),
(1599,201,l),
(1544,0,l)
);
}
);
width = 1986;
}
);
unicode = 190;
},
{
glyphname = questiondown;
leftMetricsKey = "=116";
widthMetricsKey = "=950";
layers = (
{
guides = (
{
position = "{4, 1400}";
}
);
layerId = "EBD03586-66CA-4B27-94EE-9B66F2D0C841";
shapes = (
{
closed = 1;
nodes = (
(424,529,l),
(450,503,o),
(489,461,o),
(489,421,cs),
(489,373,o),
(448,341,o),
(385,316,cs),
(241,259,ls),
(91,200,o),
(-29,92,o),
(-29,-81,cs),
(-29,-336,o),
(287,-450,o),
(492,-450,cs),
(583,-450,o),
(750,-441,o),
(825,-389,c),
(837,-64,l),
(768,-86,o),
(698,-107,o),
(627,-107,cs),
(536,-107,o),
(479,-70,o),
(479,-11,cs),
(479,52,o),
(516,101,o),
(587,132,cs),
(687,176,ls),
(767,211,o),
(837,266,o),
(837,371,cs),
(837,448,o),
(756,510,o),
(701,551,c)
);
},
{
closed = 1;
nodes = (
(610,1070,o),
(487,962,o),
(487,820,cs),
(487,696,o),
(595,632,o),
(707,632,cs),
(847,632,o),
(966,737,o),
(966,881,cs),
(966,1002,o),
(862,1070,o),
(749,1070,cs)
);
}
);
width = 1052;
},
{
layerId = "DDFB1734-E0D7-49FC-BA30-BBC7C7BD5F60";
shapes = (
{
closed = 1;
nodes = (
(484,565,l),
(521,527,o),
(564,478,o),
(564,420,cs),
(564,365,o),
(519,337,o),
(446,306,cs),
(277,236,ls),
(119,171,o),
(-42,54,o),
(-42,-137,cs),
(-42,-366,o),
(239,-450,o),
(426,-450,cs),
(522,-450,o),
(636,-431,o),
(719,-382,c),
(705,-217,l),
(636,-256,o),
(557,-275,o),
(478,-275,cs),
(373,-275,o),
(196,-245,o),
(196,-108,cs),
(196,-10,o),
(287,58,o),
(380,97,cs),
(528,159,ls),
(645,208,o),
(751,276,o),
(751,399,cs),
(751,477,o),
(690,539,o),
(636,586,c)
);
},
{
closed = 1;
nodes = (
(621,1019,o),
(546,953,o),
(546,868,cs),
(546,793,o),
(611,754,o),
(680,754,cs),
(763,754,o),
(838,815,o),
(838,902,cs),
(838,976,o),
(772,1019,o),
(703,1019,cs)
);
}
);
width = 950;
},
{
layerId = "49A5562C-FB3D-4EE7-BE2B-5FF0A3F25A62";
shapes = (
{
closed = 1;
nodes = (
(529,592,l),
(573,545,o),
(613,490,o),
(613,419,cs),
(613,359,o),
(572,319,o),
(491,284,cs),
(304,203,ls),
(139,133,o),
(-46,55,o),
(-46,-149,cs),
(-46,-366,o),
(216,-450,o),
(394,-450,cs),
(492,-450,o),
(579,-425,o),
(666,-379,c),
(638,-307,l),
(569,-355,o),
(485,-371,o),
(403,-371,cs),
(265,-371,o),
(31,-319,o),
(31,-142,cs),
(31,-12,o),
(107,42,o),
(223,88,cs),
(408,163,ls),
(553,223,o),
(687,283,o),
(687,420,cs),
(687,499,o),
(640,560,o),
(586,613,c)
);
},
{
closed = 1;
nodes = (
(629,991,o),
(579,949,o),
(579,893,cs),
(579,845,o),
(622,818,o),
(669,818,cs),
(721,818,o),
(772,856,o),
(772,912,cs),
(772,961,o),
(728,991,o),
(681,991,cs)
);
}
);
width = 950;
}
);
unicode = 191;
},
{
glyphname = AE;
layers = (
{
layerId = "EBD03586-66CA-4B27-94EE-9B66F2D0C841";
shapes = (
{
closed = 1;
nodes = (
(209,0,l),
(381,252,l),
(722,252,l),
(658,0,l),
(1626,0,l),
(1719,354,l),
(1157,354,l),
(1210,554,l),
(1682,554,l),
(1768,876,l),
(1297,876,l),
(1347,1059,l),
(1901,1059,l),
(1994,1410,l),
(761,1410,l),
(-252,0,l)
);
},
{
closed = 1;
nodes = (
(947,1070,l),
(810,570,l),
(602,570,l)
);
}
);
width = 1846;
},
{
layerId = "DDFB1734-E0D7-49FC-BA30-BBC7C7BD5F60";
shapes = (
{
closed = 1;
nodes = (
(62,0,l),
(311,343,l),
(740,343,l),
(650,0,l),
(1518,0,l),
(1565,182,l),
(900,182,l),
(1027,651,l),
(1611,651,l),
(1656,824,l),
(1072,824,l),
(1183,1228,l),
(1840,1228,l),
(1887,1410,l),
(896,1410,l),
(-172,0,l)
);
},
{
closed = 1;
nodes = (
(984,1236,l),
(786,513,l),
(431,513,l)
);
}
);
width = 1773;
},
{
layerId = "49A5562C-FB3D-4EE7-BE2B-5FF0A3F25A62";
shapes = (
{
closed = 1;
nodes = (
(-31,0,l),
(268,402,l),
(752,402,l),
(644,0,l),
(1450,0,l),
(1468,74,l),
(738,74,l),
(911,713,l),
(1567,713,l),
(1587,790,l),
(931,790,l),
(1079,1335,l),
(1800,1335,l),
(1818,1410,l),
(981,1410,l),
(-122,0,l)
);
},
{
closed = 1;
nodes = (
(1006,1342,l),
(771,475,l),
(322,475,l)
);
}
);
width = 1727;
}
);
leftKerningGroup = _AE;
rightKerningGroup = _E;
unicode = 198;
},
{
glyphname = Eth;
layers = (
{
layerId = "EBD03586-66CA-4B27-94EE-9B66F2D0C841";
shapes = (
{
closed = 1;
nodes = (
(877,562,l),
(961,872,l),
(68,872,l),
(-15,562,l)
);
},
{
closed = 1;
nodes = (
(644,0,ls),
(886,0,o),
(1090,90,o),
(1241,236,cs),
(1390,382,o),
(1475,585,o),
(1475,818,cs),
(1475,1015,o),
(1401,1160,o),
(1272,1261,cs),
(1142,1361,o),
(967,1410,o),
(757,1410,cs),
(391,1410,l),
(13,0,l)
);
},
{
closed = 1;
nodes = (
(695,1031,l),
(734,1031,ls),
(827,1031,o),
(905,1011,o),
(961,968,cs),
(1016,924,o),
(1044,863,o),
(1044,774,cs),
(1044,662,o),
(1013,565,o),
(948,493,cs),
(884,422,o),
(792,379,o),
(675,379,cs),
(523,379,l)
);
}
);
width = 1520;
},
{
layerId = "DDFB1734-E0D7-49FC-BA30-BBC7C7BD5F60";
shapes = (
{
closed = 1;
nodes = (
(927,661,l),
(969,816,l),
(120,816,l),
(79,661,l)
);
},
{
closed = 1;
nodes = (
(541,0,ls),
(795,0,o),
(1006,83,o),
(1157,229,cs),
(1309,374,o),
(1395,577,o),
(1395,825,cs),
(1395,1022,o),
(1320,1167,o),
(1191,1265,cs),
(1061,1362,o),
(888,1410,o),
(682,1410,cs),
(428,1410,l),
(50,0,l)
);
},
{
closed = 1;
nodes = (
(581,1220,l),
(699,1220,ls),
(848,1220,o),
(969,1181,o),
(1052,1106,cs),
(1137,1031,o),
(1179,927,o),
(1179,796,cs),
(1179,627,o),
(1123,477,o),
(1018,368,cs),
(913,259,o),
(767,189,o),
(590,189,cs),
(305,189,l)
);
}
);
width = 1461;
},
{
layerId = "49A5562C-FB3D-4EE7-BE2B-5FF0A3F25A62";
shapes = (
{
closed = 1;
nodes = (
(959,723,l),
(973,780,l),
(152,780,l),
(138,723,l)
);
},
{
closed = 1;
nodes = (
(475,0,ls),
(739,0,o),
(952,79,o),
(1105,223,cs),
(1259,368,o),
(1342,571,o),
(1342,828,cs),
(1342,1025,o),
(1268,1170,o),
(1139,1267,cs),
(1011,1362,o),
(838,1410,o),
(634,1410,cs),
(451,1410,l),
(74,0,l)
);
},
{
closed = 1;
nodes = (
(508,1339,l),
(676,1339,ls),
(860,1339,o),
(1008,1288,o),
(1111,1193,cs),
(1212,1098,o),
(1265,969,o),
(1265,810,cs),
(1265,605,o),
(1191,422,o),
(1061,289,cs),
(931,155,o),
(751,70,o),
(537,70,cs),
(167,70,l)
);
}
);
width = 1424;
}
);
leftKerningGroup = _Eth;
rightKerningGroup = _D;
unicode = 208;
},
